<svg width="43" height="43" viewBox="0 0 43 43" fill="none" xmlns="http://www.w3.org/2000/svg">
<path fill-rule="evenodd" clip-rule="evenodd" d="M9.20551 7.27091C8.73378 7.27091 8.28137 7.45831 7.94781 7.79187C7.61425 8.12543 7.42686 8.57783 7.42686 9.04956V33.9506C7.42686 34.4223 7.61425 34.8747 7.94781 35.2083C8.28137 35.5419 8.73378 35.7292 9.20551 35.7292H10.2474L25.8874 20.0893C26.8815 19.0953 28.2277 18.5339 29.6335 18.5269C31.0393 18.5199 32.391 19.0679 33.395 20.0519C33.3993 20.0561 33.4035 20.0603 33.4077 20.0645L35.8852 22.542V9.04956C35.8852 8.57784 35.6978 8.12543 35.3642 7.79187C35.0307 7.45831 34.5783 7.27091 34.1065 7.27091H9.20551ZM15.2782 35.7292H18.6323C19.6146 35.7292 20.411 36.5256 20.411 37.5079C20.411 38.4902 19.6146 39.2865 18.6323 39.2865H9.20551C7.79033 39.2865 6.43311 38.7244 5.43243 37.7237C4.43175 36.723 3.86957 35.3658 3.86957 33.9506V9.04956C3.86957 7.63438 4.43175 6.27717 5.43243 5.27648C6.43311 4.2758 7.79033 3.71362 9.20551 3.71362H34.1065C35.5217 3.71362 36.8789 4.2758 37.8796 5.27648C38.8803 6.27716 39.4425 7.63438 39.4425 9.04956V26.836C39.4425 27.5554 39.0091 28.204 38.3445 28.4793C37.6799 28.7546 36.9148 28.6024 36.4061 28.0937L30.8997 22.5873C30.5656 22.2626 30.1173 22.0818 29.6512 22.0841C29.1827 22.0865 28.734 22.2736 28.4026 22.6048C28.4026 22.6049 28.4025 22.6049 28.4025 22.6049L15.2782 35.7292Z" fill="#A8AFBE"/>
<path fill-rule="evenodd" clip-rule="evenodd" d="M29.292 28.2463C29.9866 27.5517 31.1128 27.5517 31.8074 28.2463L37.1433 33.5822C37.8379 34.2768 37.8379 35.403 37.1433 36.0976C36.4487 36.7922 35.3226 36.7922 34.6279 36.0976L30.5497 32.0194L26.4715 36.0976C25.7769 36.7922 24.6507 36.7922 23.9561 36.0976C23.2615 35.403 23.2615 34.2768 23.9561 33.5822L29.292 28.2463Z" fill="#A8AFBE"/>
<path fill-rule="evenodd" clip-rule="evenodd" d="M30.5497 27.7253C31.532 27.7253 32.3283 28.5217 32.3283 29.504V39.2865C32.3283 40.2689 31.532 41.0652 30.5497 41.0652C29.5674 41.0652 28.7711 40.2689 28.7711 39.2865V29.504C28.7711 28.5217 29.5674 27.7253 30.5497 27.7253Z" fill="#A8AFBE"/>
<path fill-rule="evenodd" clip-rule="evenodd" d="M16.3203 14.3854C15.338 14.3854 14.5417 15.1817 14.5417 16.1641C14.5417 17.1464 15.338 17.9427 16.3203 17.9427C17.3026 17.9427 18.099 17.1464 18.099 16.1641C18.099 15.1817 17.3026 14.3854 16.3203 14.3854ZM10.9844 16.1641C10.9844 13.2171 13.3734 10.8281 16.3203 10.8281C19.2673 10.8281 21.6562 13.2171 21.6562 16.1641C21.6562 19.111 19.2673 21.5 16.3203 21.5C13.3734 21.5 10.9844 19.111 10.9844 16.1641Z" fill="#A8AFBE"/>
</svg>
