<svg width="99" height="80" viewBox="0 0 99 80" fill="none" xmlns="http://www.w3.org/2000/svg">
<g clip-path="url(#clip0_16_13625)">
<path d="M65.8745 26.6007C65.784 26.9896 65.6889 27.4208 65.6084 27.8743C66.1809 27.9233 66.1429 28.8237 65.5134 28.8616H65.4754C65.3468 30.2377 65.5056 31.6517 66.5219 32.5631C67.9486 33.8412 71.3632 34.3972 72.7742 32.786C72.9184 28.846 73.0895 24.9104 73.2862 20.9715C69.7699 19.3725 66.5711 23.5911 65.8734 26.6007H65.8745Z" fill="#CAEB0E"/>
<path d="M21.9129 44.1391C24.2307 44.1201 26.5484 44.1012 28.8673 44.0823L32.6195 44.0522C33.4961 44.0444 33.6627 44.1959 34.1826 43.5073C34.5281 43.0493 34.6421 42.4332 34.6723 41.8738C34.7864 41.4236 34.7483 40.9735 34.5549 40.5278C34.2966 40.5055 34.0395 40.4788 33.7812 40.452C33.334 40.3161 32.7034 40.3573 32.2338 40.3194C31.0688 40.2292 29.9049 40.1567 28.7398 40.1044C26.4903 40.0019 24.2362 39.9796 21.9833 40.0141L21.9945 40.2793C22.1991 40.3506 22.3434 40.5289 22.2752 40.793C22.2718 40.8119 22.2673 40.8275 22.264 40.8453C23.1551 40.8754 24.0428 40.91 24.9082 40.9701C25.5757 41.0158 25.5802 42.0064 24.9082 41.9607C23.9791 41.8961 23.0187 41.8627 22.0515 41.8281C21.9263 42.5914 21.8805 43.348 21.9151 44.138L21.9129 44.1391Z" fill="#CAEB0E"/>
<path d="M68.1015 54.6198C67.149 54.6733 65.928 54.5441 65.0134 54.7936C62.244 55.538 62.5895 59.6674 62.7672 61.7689C62.7896 62.0374 62.6196 62.1923 62.4106 62.2302C62.301 63.9239 62.1679 65.6097 62.0014 67.3001C61.8985 68.3096 61.7856 69.3191 61.6603 70.3242C61.5765 70.9972 61.2388 71.9387 61.3607 72.585C61.7666 74.7132 64.422 73.882 66.1595 73.765C67.935 73.648 69.7105 73.5121 71.4815 73.3639C73.257 73.2123 75.0291 73.0463 76.8001 72.8613C78.1966 72.7176 79.8771 72.9895 80.5479 71.512C80.8967 70.752 80.8319 69.4963 80.9381 68.6728C81.3708 65.2666 81.6973 61.8525 81.9321 58.4272C79.0978 58.7827 76.3283 59.7086 73.8283 61.2062C73.2324 61.565 72.1702 61.3232 72.1747 60.5064C72.1903 58.4417 72.2093 56.3737 72.2395 54.3101C72.1635 54.3624 72.0729 54.397 71.9589 54.4048L68.1004 54.6198H68.1015Z" fill="#CAEB0E"/>
<path d="M48.5948 53.3005C48.6552 52.4504 48.8072 51.5311 48.739 50.6809C48.7469 50.4313 48.7547 50.1784 48.7659 49.9288C48.7312 48.995 48.3063 48.6585 47.4991 48.9226C46.0311 48.7076 44.3316 49.0017 42.8401 48.9794C41.3944 48.9605 39.9488 48.9003 38.5042 48.809C38.5076 48.8658 38.512 48.926 38.5154 48.9828C38.5232 49.1299 38.474 49.2435 38.3902 49.3226C38.0179 50.8837 37.6467 52.4459 37.2743 54.007C37.0999 54.7324 36.9289 55.4588 36.7544 56.1842C36.6326 56.6979 36.1093 57.8211 36.239 58.3615C36.5543 59.6886 40.2562 59.9382 43.3108 59.7298C43.0794 58.3871 42.8479 57.0489 42.6165 55.7073C42.5103 55.08 43.5154 54.8148 43.6216 55.4421C43.8643 56.8405 44.1035 58.24 44.3461 59.6384C45.6431 59.5025 46.7131 59.283 47.1681 59.0445C48.6552 58.2657 48.4964 54.6588 48.5948 53.2983V53.3005Z" fill="#CAEB0E"/>
<path d="M29.0156 33.1336C31.6252 33.0801 34.2359 33.0278 36.8499 32.9743C42.343 32.8606 47.8405 32.7514 53.337 32.6378C53.4812 32.6344 53.5986 32.679 53.6858 32.7514C53.8457 30.7179 54.0011 28.6833 54.1565 26.6497C43.2341 25.7305 32.2748 25.4697 21.3188 25.8675C21.3456 25.9388 21.3535 26.0224 21.3344 26.1138C20.9252 28.2041 20.5373 30.2956 20.1739 32.3893C20.2085 32.3971 20.2387 32.4082 20.2723 32.4194C23.0753 33.4322 26.0762 33.1949 29.0167 33.1336H29.0156ZM47.6393 27.4509C48.148 27.0386 49.7368 26.8046 49.4908 27.8821L49.5322 27.8899C49.6384 27.4743 50.3406 27.3116 50.5262 27.8108C50.8291 28.6354 50.5563 29.5958 49.767 30.0828C49.0268 30.5407 48.0027 30.3547 47.4257 29.7385C46.7851 29.0577 46.9137 28.0292 47.6382 27.4509H47.6393ZM42.5476 27.3751C43.2196 26.8871 44.2739 26.8681 44.8888 27.4542C44.8967 27.462 44.9045 27.4732 44.9112 27.481C44.9336 27.4999 44.957 27.5189 44.9794 27.5456C45.5519 28.203 45.4345 29.2248 44.8195 29.822C44.1095 30.5062 43.006 30.3625 42.3687 29.6672C41.7426 28.9863 41.7728 27.9389 42.5465 27.3762L42.5476 27.3751Z" fill="#CAEB0E"/>
<path d="M75.1846 24.5661C75.056 27.345 74.942 30.124 74.8391 32.9063C74.5238 41.4994 74.3382 50.097 74.27 58.6991C80.4608 55.6516 87.8781 55.4444 94.2175 58.2646C94.4713 56.2868 94.7072 54.3101 94.9197 52.3289C93.6104 50.8659 91.4905 50.2419 89.4981 50.8247C89.1761 50.9194 89.0386 50.4391 89.3573 50.3478C91.3832 49.7583 93.5422 50.3065 94.9912 51.6748C95.226 49.4441 95.4429 47.21 95.6252 44.9748C95.5156 45.0428 95.3602 45.035 95.2719 44.899C94.2477 43.2956 92.3168 42.4722 90.3781 42.8276C90.0516 42.8878 89.9118 42.412 90.2417 42.3507C92.3738 41.9574 94.5015 42.8154 95.6587 44.5625C95.8678 42.0298 96.0422 39.4927 96.1786 36.9555C94.4568 35.8368 92.3358 35.6362 90.3747 36.3694C90.0639 36.4864 89.9275 36.0061 90.2383 35.8892C92.2531 35.137 94.4109 35.3443 96.2099 36.3917C96.3195 34.376 96.4033 32.3614 96.4604 30.3424C96.4525 30.3346 96.4447 30.3268 96.438 30.3156C95.2283 28.7612 92.944 28.3501 91.2032 29.3251C90.9147 29.4877 90.6531 29.0565 90.9416 28.8938C92.7629 27.8765 95.0505 28.2175 96.4838 29.6192C96.4917 29.3507 96.4995 29.0866 96.5062 28.8181C96.5364 27.6804 96.5554 26.5416 96.5711 25.404C94.8336 23.8652 92.603 23.1888 90.2394 23.4451C89.9051 23.483 89.9096 22.9838 90.2394 22.9504C92.565 22.693 94.7989 23.3437 96.5789 24.7466C96.6169 21.1018 96.5867 17.4538 96.4883 13.8124C96.4537 12.6636 96.4168 11.5103 96.3709 10.3604C96.3027 10.3715 96.2233 10.3604 96.1551 10.308C94.345 8.96534 92.0921 8.54193 89.876 9.09014C89.5954 9.15811 89.402 8.76143 89.6748 8.63664C89.7318 8.6099 89.7922 8.58427 89.8492 8.55753C89.9208 8.52298 89.9856 8.52298 90.046 8.54193C92.281 8.07728 94.5037 8.53413 96.3474 9.83112C96.2982 8.5943 96.2379 7.35524 96.1697 6.11842C96.1428 5.60809 96.2233 4.78019 96.0523 4.26986C95.7113 3.2414 94.8615 3.10881 93.9581 2.81464C93.3812 2.62522 92.7674 2.49373 92.1446 2.37562C91.9545 2.50042 91.7164 2.57173 91.4235 2.53496C88.2325 2.14943 85.0315 2.18731 81.8628 2.74667C80.6151 2.96618 79.2946 3.21577 78.1106 3.68822C76.3541 4.39577 76.2591 5.74848 76.1495 7.36304C76.0891 8.2667 76.0276 9.16591 75.9751 10.0696C75.7358 13.8168 75.5279 17.5708 75.3411 21.3247C75.2875 22.4022 75.2349 23.483 75.1857 24.565L75.1846 24.5661ZM89.9074 14.8765C92.0999 14.3361 94.3383 14.7483 96.1406 16.0632C96.4022 16.2526 96.144 16.6827 95.879 16.4899C94.1795 15.2531 92.1189 14.8419 90.0482 15.3556C89.7218 15.4347 89.5854 14.9589 89.9074 14.8754V14.8765Z" fill="#98FFE1"/>
<path d="M67.3772 34.2033C64.8772 33.216 64.3383 31.1558 64.4859 28.8994C62.5818 28.9562 60.7191 28.9752 59.2578 30.3246C58.161 31.3452 57.2922 32.6912 56.3027 33.8177C55.7068 34.4986 55.0997 35.1749 54.4859 35.8401C53.739 45.2734 52.953 54.7023 52.1267 64.1278C52.1077 64.3317 51.8763 64.5323 51.6639 64.5401C49.4669 64.627 47.2743 64.7027 45.0784 64.7596C45.2797 66.3663 45.6699 68.0645 46.8193 68.3285C47.8591 68.5703 49.3271 68.3285 50.4116 68.3285H60.7907C60.8097 68.3285 60.8287 68.3285 60.8443 68.3319C61.0758 66.2226 61.2502 64.1122 61.3833 61.9995C61.3989 61.7767 61.5353 61.6285 61.7097 61.565C61.5465 59.5649 61.3564 55.7876 63.0715 54.3624C63.7994 53.7574 64.8884 53.8109 65.7873 53.7574C67.8435 53.6326 69.9029 53.5267 71.9602 53.4131C72.0776 53.4053 72.176 53.432 72.252 53.4777C72.3392 47.0206 72.4991 40.559 72.7306 34.1019C71.2021 35.0089 69.0432 34.8618 67.3772 34.2044V34.2033Z" fill="#46F8C5"/>
<path d="M82.9842 58.3169C82.8176 60.7783 82.6052 63.2397 82.3357 65.6933C82.1076 67.7346 82.0774 70.0032 81.5162 71.9922C81.1897 73.1455 80.4272 73.4029 79.2509 73.5912C76.8348 73.9767 74.3303 74.1093 71.8907 74.321C69.3001 74.5438 66.7051 74.7333 64.1056 74.8882C63.002 74.9528 61.2835 75.2625 60.5389 74.1884C59.7272 73.0129 60.5467 70.6573 60.7323 69.3224H47.6174C46.9532 69.3224 46.0129 69.4773 45.4014 69.1029C44.3202 68.4455 44.2665 66.2025 44.1424 64.7852C34.745 65.0348 25.3409 65.0348 15.9402 64.7852C15.5757 64.7774 15.3487 64.5623 15.3711 64.2102C15.8452 56.6489 16.6122 49.1131 17.6665 41.6131C16.8201 41.5373 15.9894 41.4315 15.1855 41.2732C13.1104 40.8688 13.9299 39.2052 14.2597 37.6586C15.6562 31.1335 16.8089 24.5661 17.7347 17.9652C17.7694 17.7078 17.9471 17.4549 18.2546 17.4705C18.8125 17.4927 19.366 17.5161 19.9239 17.5384C20.5914 17.5652 20.5958 18.5591 19.9239 18.529C19.5147 18.5134 19.1077 18.4945 18.7018 18.48C18.0075 23.3649 17.2036 28.2342 16.2544 33.0846C15.9883 34.4495 15.7121 35.8178 15.4236 37.1795C15.3018 37.75 15.029 38.472 15.0256 39.0391C14.9686 39.2854 14.916 39.5339 14.8624 39.7801C15.3588 40.1846 15.9089 40.3885 16.5205 40.3852C16.9453 40.4609 17.378 40.5211 17.8141 40.5701C18.5196 35.6774 19.3503 30.8048 20.3029 25.95C20.3331 25.7951 20.4203 25.6892 20.5265 25.6291C20.3555 25.3416 20.4583 24.907 20.8988 24.8914C32.2081 24.468 43.5241 24.7399 54.7954 25.7082C55.0984 25.7305 55.2426 26.0257 55.2236 26.2787C55.0224 28.9139 54.8177 31.5491 54.6131 34.1843C55.4439 33.2617 56.2601 32.328 57.0606 31.3831C57.9293 30.358 58.7634 28.8348 60.1107 28.3133C61.3931 27.8186 63.1004 27.901 64.5874 27.8932C64.9665 25.1488 65.9794 22.0902 68.6427 20.6082C70.1152 19.7881 71.8102 19.553 73.3319 20.0188C73.4873 16.9902 73.6539 13.9661 73.8406 10.9376C56.4468 10.9532 39.0485 10.9721 21.6513 10.9866L15.4035 10.9944C14.774 10.9944 13.3697 10.7415 12.8163 11.0133C12.0996 11.361 12.0806 12.658 11.9632 13.2965C11.2845 16.9936 10.6282 20.6873 9.98647 24.3889C8.73423 31.6628 7.55802 38.9489 6.46231 46.245C5.38449 53.4131 4.38382 60.5933 3.45805 67.7803C3.325 68.8088 3.19195 69.8328 3.06337 70.8612C2.9225 71.9844 2.54347 72.8502 3.36637 73.6859C4.46655 74.8046 7.17117 74.7712 8.71969 74.9829C12.4149 75.4854 16.1359 75.8108 19.8546 76.0826C35.0939 77.198 50.417 77.198 65.6899 77.3607C72.6621 77.432 80.2192 77.3529 86.0701 73.2279C90.4518 70.1392 93.2671 65.4549 94.0061 60.3738C90.5613 58.7136 86.7375 58.0261 82.9853 58.3169H82.9842ZM25.4829 17.534H28.5408C29.2128 17.534 29.2128 18.5245 28.5408 18.5245H25.4829C24.811 18.5245 24.811 17.534 25.4829 17.534Z" fill="#46F8C5"/>
<path d="M97.4333 2.14829C95.9999 0.498072 92.374 0.451273 90.3671 0.0267406C89.9232 -0.0668571 89.5933 0.0980531 89.3988 0.364361C87.0632 0.223964 84.7208 0.303077 82.3974 0.650725C80.1658 0.985002 77.1928 1.36385 75.4922 2.92938C73.587 4.68434 74.0332 7.86666 73.8901 10.162C73.6787 13.5494 73.4875 16.9367 73.3154 20.3263C72.6367 33.7108 72.261 47.1075 72.176 60.5075C72.1705 61.3221 73.2326 61.5638 73.8286 61.2062C80.1255 57.4311 88.1399 57.2896 94.6392 60.6903C95.2195 60.9933 96.0178 60.5521 96.0983 59.9504C97.6043 48.6607 98.4552 37.302 98.6318 25.9221C98.719 20.2784 98.6397 14.6324 98.3903 8.99317C98.3054 7.07442 98.8253 3.75282 97.431 2.14829H97.4333ZM96.1676 6.12173C96.3085 8.68341 96.4136 11.2473 96.4851 13.8123C96.6238 18.8131 96.6305 23.8184 96.5064 28.8192C96.2615 38.6636 95.4755 48.4892 94.2166 58.2623C87.8782 55.4443 80.4621 55.6516 74.2702 58.698C74.3619 47.3158 74.6582 35.9359 75.1848 24.5638C75.4509 18.8276 75.7628 13.0925 76.1497 7.36301C76.2581 5.74845 76.3565 4.39574 78.113 3.68931C79.2937 3.21463 80.613 2.96615 81.8641 2.74553C85.0305 2.18729 88.2327 2.14717 91.4225 2.53605C91.7132 2.57171 91.9536 2.50151 92.1426 2.3756C92.7642 2.49259 93.3803 2.62519 93.9561 2.8135C94.8606 3.10989 95.7092 3.24137 96.0513 4.27095C96.2213 4.78128 96.1408 5.60806 96.1687 6.1195L96.1676 6.12173Z" fill="#202504"/>
<path d="M94.1852 58.4796C93.937 64.276 90.9898 69.7592 86.0692 73.229C80.2194 77.354 72.6613 77.4331 65.6879 77.3596C50.4128 77.1991 35.0919 77.1991 19.8537 76.0826C16.1339 75.8108 12.414 75.4876 8.71994 74.9829C7.17141 74.7712 4.46679 74.8035 3.36661 73.687C2.5426 72.8502 2.92274 71.9833 3.06362 70.8623C3.19219 69.835 3.32301 68.8076 3.45494 67.7814C4.3807 60.5933 5.38138 53.4142 6.4592 46.2462C7.55602 38.95 8.73223 31.6639 9.98671 24.39C10.6251 20.6895 11.2837 16.9924 11.9623 13.2976C12.0797 12.6591 12.0976 11.3599 12.8154 11.01C13.3678 10.7403 14.7709 10.9933 15.4004 10.9922L21.6515 10.9866C39.4311 10.9688 57.2118 10.952 74.9913 10.9342C76.3319 10.9331 76.1083 8.95975 74.7767 8.96087C57.2744 8.97758 39.7721 8.99541 22.2698 9.01212C20.0471 9.01435 17.8244 9.01658 15.6028 9.01881C14.2958 9.01992 12.3145 8.67562 11.1808 9.52468C10.2316 10.2345 10.1667 11.5537 9.97553 12.5878C9.57638 14.7528 9.18505 16.92 8.80044 19.0872C7.37378 27.1199 6.04439 35.1682 4.81004 43.2299C3.57569 51.2915 2.43861 59.3665 1.39769 67.4527C1.10699 69.7147 -0.452716 74.0658 2.14009 75.6191C3.25257 76.2854 4.75973 76.3857 6.01756 76.5885C8.10835 76.9261 10.2126 77.1902 12.3201 77.4108C29.0599 79.1702 45.9785 79.0833 62.7965 79.2928C70.8265 79.3931 79.6 79.802 86.5667 75.3238C92.2968 71.6401 95.9585 65.369 96.2403 58.805C96.2939 57.5436 94.2378 57.2038 94.183 58.4774L94.1852 58.4796Z" fill="#202504"/>
<path d="M54.7981 25.7059C43.5268 24.7387 32.2097 24.4669 20.9015 24.8903C20.4599 24.907 20.3581 25.3393 20.5303 25.6268C20.4219 25.6903 20.3369 25.7962 20.3067 25.9499C17.8257 38.5957 16.1788 51.3706 15.3738 64.2113C15.3514 64.5645 15.5784 64.7774 15.9417 64.7863C27.8503 65.0994 39.7634 65.0158 51.6663 64.5378C51.8777 64.5289 52.1091 64.3317 52.127 64.1266C53.235 51.5155 54.2681 38.8987 55.2274 26.2764C55.2464 26.0257 55.0999 25.7304 54.7992 25.7048L54.7981 25.7059ZM51.2705 61.9939C51.2191 62.5834 51.3499 63.2308 50.7473 63.5851C50.4063 63.7857 48.7202 63.6609 48.3132 63.6754C46.8251 63.7266 45.3369 63.7723 43.8488 63.8113C40.7372 63.8926 37.6245 63.9472 34.5107 63.974C28.4865 64.0252 22.4635 63.9662 16.4415 63.8146C17.2588 51.1623 18.8901 38.5756 21.3353 26.1149C21.3532 26.0224 21.3443 25.941 21.3185 25.8686C32.2745 25.4708 43.235 25.7304 54.1563 26.6486C53.2585 38.4352 52.298 50.2174 51.2694 61.9939H51.2705Z" fill="#202504"/>
<path d="M53.3369 32.6388C47.8405 32.7503 42.344 32.8628 36.8476 32.9742C34.2369 33.0277 31.6262 33.0801 29.0155 33.1336C26.075 33.1937 23.0752 33.4322 20.2722 32.4182C19.6472 32.192 19.2134 33.0946 19.8418 33.3219C24.5611 35.0289 30.3706 34.0952 35.3069 33.9949C41.3534 33.8723 47.3988 33.7486 53.4454 33.6261C54.1162 33.6127 54.0055 32.6255 53.338 32.6388H53.3369Z" fill="#202504"/>
<path d="M44.9792 27.5455C44.9579 27.521 44.9345 27.4999 44.911 27.4809C44.9032 27.472 44.8965 27.4631 44.8875 27.4542C44.2726 26.8692 43.2182 26.8881 42.5474 27.3773C41.7737 27.9411 41.7424 28.9863 42.3674 29.6671C43.0069 30.3624 44.1105 30.5072 44.8193 29.8197C45.4342 29.2225 45.5505 28.2052 44.9792 27.5455ZM43.14 29.0041C42.5519 28.3233 43.5805 27.7227 44.1697 28.1773C44.6482 28.8169 43.7661 29.7284 43.14 29.0041Z" fill="#202504"/>
<path d="M50.5259 27.8118C50.3034 27.2101 49.3318 27.5689 49.5542 28.1729C49.7678 28.7534 49.3195 29.5167 48.6039 29.3205C48.3288 29.2448 48.0527 29.0219 48.0404 28.7322C48.0326 28.5573 48.1276 28.379 48.2528 28.2564C48.3188 28.1918 48.3948 28.1405 48.4798 28.1015C48.4977 28.0993 48.5055 28.0926 48.52 28.0893C48.6128 28.2163 48.766 28.3043 48.9717 28.2954C48.9907 28.2954 49.0109 28.2943 49.0299 28.2932C49.2658 28.2832 49.4436 28.0871 49.4905 27.882C49.7365 26.8057 48.1477 27.0408 47.6379 27.4497C46.9156 28.0302 46.787 29.0576 47.4254 29.7395C48.0035 30.3557 49.0276 30.5429 49.7689 30.0838C50.5572 29.5958 50.8311 28.6364 50.527 27.813L50.5259 27.8118Z" fill="#202504"/>
<path d="M31.628 39.2854C28.2179 39.0413 24.7999 38.97 21.382 39.0324C21.0891 39.038 20.9046 39.3277 20.9169 39.5773C20.9404 40.0375 20.9638 40.4977 20.9862 40.959C20.9918 41.0804 21.0354 41.1751 21.1002 41.2442C20.8587 42.3897 20.7961 43.5006 20.8945 44.6884C20.918 44.9736 21.1897 45.133 21.467 45.1307C25.3567 45.0984 29.2532 45.1218 33.1419 45.0349C33.7669 45.0204 34.6076 45.1508 35.0806 44.6449C35.6776 44.0065 35.899 41.7211 35.8789 40.9345C35.8275 38.941 33.2145 39.399 31.628 39.2854ZM34.6714 41.8738C34.6423 42.4342 34.5271 43.0493 34.1805 43.5084C33.6629 44.1959 33.4963 44.0421 32.6186 44.0499L28.8664 44.0811C26.5486 44.1001 24.232 44.119 21.9142 44.1391C21.8628 42.9947 21.9768 41.9172 22.2731 40.7929C22.3424 40.53 22.1971 40.3517 21.9947 40.2782L21.9813 40.0141C24.2342 39.9806 26.4871 40.0018 28.7389 40.1054C29.905 40.1589 31.069 40.2314 32.2329 40.3216C32.7047 40.3584 33.333 40.3149 33.7825 40.4542C34.0408 40.4787 34.2991 40.5044 34.5562 40.5289C34.7485 40.9757 34.7877 41.4247 34.6725 41.8738H34.6714Z" fill="#202504"/>
<path d="M49.0481 38.4296C45.5642 38.4597 42.0802 38.5154 38.5963 38.5578C37.9557 38.5656 38.0306 39.4659 38.6198 39.5383C38.1715 40.9646 37.9903 42.344 38.0787 43.8438C38.0954 44.1213 38.3794 44.2995 38.6511 44.2862C42.2077 44.1168 45.7665 43.9697 49.3209 43.7769C51.5894 43.6544 51.3099 42.558 51.4519 40.452C51.5727 38.6536 50.7978 38.4151 49.0492 38.4307L49.0481 38.4296ZM50.2645 41.9596C50.0241 43.1051 49.6339 42.7708 48.3929 42.8298C47.2983 42.8822 46.2037 42.9346 45.1102 42.9869C43.1066 43.0828 41.1019 43.1786 39.0984 43.2733C39.0726 42.0487 39.2415 40.9178 39.6395 39.7244C39.6619 39.6575 39.6674 39.5951 39.6641 39.5339C41.4877 39.5116 43.3124 39.4893 45.1359 39.467C46.1433 39.4547 47.362 39.2631 48.3515 39.428C49.2896 39.2319 49.9705 39.6297 50.392 40.6236C50.3495 41.0693 50.307 41.515 50.2656 41.9607L50.2645 41.9596Z" fill="#202504"/>
<path d="M33.8207 48.4312C29.7163 48.6117 25.6845 48.2618 21.6829 47.3671C21.03 47.2211 20.7516 48.1772 21.4057 48.3242C25.49 49.2379 29.628 49.6079 33.8207 49.424C34.4882 49.395 34.4927 48.4022 33.8207 48.4323V48.4312Z" fill="#202504"/>
<path d="M32.1309 53.6894L25.304 52.9729C23.6917 52.8035 22.2248 52.5673 20.7456 53.2971C20.1497 53.5913 20.6763 54.4471 21.2722 54.154C22.8945 53.354 25.2067 53.9546 26.9106 54.134C28.6504 54.3167 30.3912 54.4994 32.1309 54.6811C32.7973 54.7513 32.7917 53.7584 32.1309 53.6894Z" fill="#202504"/>
<path d="M31.1802 58.2734C29.8385 58.4484 28.527 58.2813 27.2613 57.8355C26.6307 57.6138 26.3591 58.5721 26.9841 58.7927C28.4398 59.3041 29.9235 59.4301 31.4563 59.2306C32.1182 59.1448 31.8365 58.1888 31.1791 58.2734H31.1802Z" fill="#202504"/>
<path d="M48.937 47.9398C48.3276 47.717 47.3516 47.9365 46.721 47.9554C45.6867 47.9866 44.6514 48 43.6172 47.9944C41.5465 47.9844 39.4803 47.8919 37.4153 47.7459C36.7455 47.698 36.7489 48.6908 37.4153 48.7376C37.4309 48.7376 37.4466 48.7399 37.4622 48.741C37.0072 50.6508 36.5521 52.5595 36.097 54.4694C35.7236 56.0349 34.9835 57.8177 35.0651 59.4267C35.074 59.5938 35.1568 59.7766 35.3233 59.8546C38.0559 61.1449 42.2912 60.766 45.2049 60.3839C46.2693 60.2446 47.9531 60.2345 48.71 59.3621C49.4871 58.4651 49.3339 56.6021 49.4423 55.5435C49.6324 53.6805 49.7834 51.8007 49.8079 49.9277C49.8202 49.0396 49.9287 48.3008 48.9381 47.9387L48.937 47.9398ZM48.5937 53.3016C48.4953 54.6599 48.6563 58.2668 47.1671 59.049C45.5973 59.8724 36.7355 60.4496 36.2368 58.3626C36.1082 57.8222 36.6326 56.7012 36.7556 56.1864C36.9289 55.4611 37.1011 54.7357 37.2744 54.0103C37.6467 52.4481 38.019 50.8859 38.3913 49.3237C38.473 49.2446 38.5233 49.1332 38.5143 48.985C38.511 48.9271 38.5076 48.8691 38.5043 48.8112C39.9488 48.9003 41.3934 48.9616 42.8413 48.9817C44.3294 49.0017 46.0322 48.7087 47.4969 48.9237C48.3075 48.6596 48.729 48.995 48.7637 49.931C48.7558 50.1806 48.7469 50.4313 48.7391 50.6809C48.8062 51.5322 48.6552 52.4526 48.5937 53.3039V53.3016Z" fill="#202504"/>
<path d="M65.5122 27.8676C63.8609 27.9634 61.6705 27.7105 60.1131 28.3122C58.7658 28.8336 57.9284 30.3568 57.0607 31.3819C54.4322 34.4885 51.6403 37.4613 48.7177 40.3205C48.2492 40.7785 48.986 41.4805 49.4545 41.0225C51.8282 38.7004 54.1202 36.3047 56.3027 33.8177C57.2911 32.6912 58.1598 31.3429 59.2589 30.3245C60.9785 28.7311 63.2582 28.9896 65.5111 28.8593C66.1775 28.8203 66.182 27.8286 65.5111 27.8676H65.5122Z" fill="#202504"/>
<path d="M60.7899 68.3296C58.528 68.3296 56.2661 68.3296 54.0043 68.3296C52.8068 68.3296 51.6094 68.3296 50.4119 68.3296C49.3263 68.3296 47.8583 68.5692 46.8196 68.3296C45.0016 67.9107 45.0787 63.9027 44.8093 62.3394C44.4135 60.0407 44.0177 57.7419 43.6208 55.4432C43.5123 54.8148 42.5083 55.0811 42.6156 55.7073C43.0997 58.5164 43.5839 61.3265 44.068 64.1356C44.2815 65.3768 44.1351 68.3341 45.4019 69.1051C46.0134 69.4773 46.956 69.3224 47.6179 69.3224C49.0814 69.3224 50.545 69.3224 52.0085 69.3224C54.9356 69.3224 57.8627 69.3224 60.7899 69.3224C61.4607 69.3224 61.4618 68.3307 60.7899 68.3307V68.3296Z" fill="#202504"/>
<path d="M81.9489 58.2288C81.7108 61.7187 81.381 65.2019 80.9382 68.6739C80.8331 69.4973 80.8979 70.7531 80.5513 71.5141C79.8783 72.9905 78.1978 72.7198 76.8013 72.8635C75.0303 73.0462 73.2582 73.2134 71.4838 73.3638C69.7094 73.5142 67.9339 73.6491 66.1573 73.7672C64.4209 73.8831 61.7644 74.7154 61.3608 72.5849C61.2389 71.9398 61.5777 70.9982 61.6604 70.323C61.7845 69.3168 61.8986 68.3095 61.9992 67.3011C62.1759 65.5361 62.3134 63.7678 62.4241 61.9973C62.4643 61.3599 61.4212 61.3621 61.382 61.9973C61.2322 64.3996 61.0287 66.7975 60.7537 69.1898C60.6039 70.4935 59.7005 72.9705 60.5401 74.1861C61.2848 75.2625 63.0032 74.9527 64.1068 74.887C66.7052 74.7321 69.3002 74.5427 71.893 74.3187C74.3326 74.1081 76.8349 73.9766 79.251 73.59C80.4261 73.4017 81.1887 73.1443 81.5151 71.9899C82.0764 70.0021 82.1088 67.7357 82.3335 65.6944C82.6075 63.2096 82.821 60.7203 82.991 58.2277C83.0346 57.5904 81.9914 57.5926 81.9489 58.2277V58.2288Z" fill="#202504"/>
<path d="M71.9612 53.413C69.9028 53.5278 67.8434 53.6337 65.785 53.7562C64.8861 53.8097 63.8004 53.7562 63.0714 54.3613C61.2937 55.8377 61.562 59.8323 61.723 61.7689C61.7756 62.4006 62.8187 62.4062 62.7651 61.7689C62.5895 59.6651 62.2418 55.5368 65.0124 54.7914C65.9259 54.5451 67.149 54.6722 68.1005 54.6198L71.9601 54.4047C72.6265 54.368 72.6309 53.3752 71.9601 53.413H71.9612Z" fill="#202504"/>
<path d="M75.1707 21.0015C73.308 19.4627 70.7465 19.436 68.6456 20.6071C65.9656 22.1024 64.9571 25.1878 64.5814 27.9478C64.2259 30.5596 64.5278 33.0789 67.3777 34.2043C69.4886 35.0378 72.3945 35.049 73.8055 33.1269C74.1901 32.602 73.2878 32.1062 72.9055 32.6266C71.5806 34.4305 67.9938 33.8801 66.5224 32.5608C64.9124 31.1167 65.4558 28.4147 65.875 26.6006C66.6476 23.2634 70.4904 18.4443 74.4328 21.7013C74.937 22.118 75.6772 21.4194 75.1696 20.9993L75.1707 21.0015Z" fill="#202504"/>
<path d="M24.9074 40.969C22.1715 40.7774 19.2164 40.862 16.523 40.3829C15.9125 40.3863 15.3591 40.1857 14.8626 39.7812C14.9174 39.5338 14.9711 39.2865 15.0259 39.038C15.0292 38.4697 15.3043 37.7488 15.425 37.1794C15.7124 35.8156 15.9908 34.4495 16.258 33.0823C17.205 28.2353 18.01 23.3649 18.7021 18.4788C19.1091 18.4955 19.5172 18.5123 19.9241 18.529C20.595 18.5568 20.5939 17.564 19.9241 17.5373C19.3685 17.5139 18.8117 17.4916 18.256 17.4682C17.9474 17.4559 17.7707 17.7078 17.735 17.964C16.8103 24.5649 15.6576 31.1346 14.2622 37.6597C13.9324 39.204 13.1117 40.8687 15.1869 41.2743C18.2716 41.8771 21.7645 41.7423 24.9074 41.9618C25.5771 42.0086 25.5738 41.0158 24.9074 40.9701V40.969Z" fill="#202504"/>
<path d="M28.5423 17.5328H25.4844C24.8135 17.5328 24.8124 18.5245 25.4844 18.5245H28.5423C29.2132 18.5245 29.2143 17.5328 28.5423 17.5328Z" fill="#202504"/>
<path d="M96.522 9.95701C94.6437 8.56754 92.3505 8.06278 90.0451 8.54525C89.9858 8.52631 89.9176 8.52631 89.8472 8.55862C89.789 8.58536 89.7309 8.61211 89.6716 8.63885C89.3999 8.76364 89.5934 9.16143 89.8729 9.09235C92.0889 8.54302 94.3429 8.96978 96.1531 10.3091C96.4147 10.503 96.7859 10.1542 96.522 9.95813V9.95701Z" fill="#202504"/>
<path d="M96.1406 16.062C94.3383 14.7483 92.0999 14.3338 89.9085 14.8776C89.5842 14.9578 89.7218 15.4369 90.0471 15.3556C92.12 14.8408 94.1806 15.2519 95.8779 16.4899C96.144 16.6838 96.4045 16.2537 96.1406 16.062Z" fill="#202504"/>
<path d="M97.001 25.1042C95.1629 23.4529 92.7545 22.6751 90.2389 22.9515C89.909 22.9871 89.9057 23.4841 90.2389 23.4473C92.6271 23.1855 94.88 23.8819 96.632 25.4552C96.8757 25.6747 97.2447 25.3237 97.001 25.1042Z" fill="#202504"/>
<path d="M96.8865 30.0671C95.5079 28.2988 92.9442 27.774 90.9395 28.8971C90.651 29.0587 90.9126 29.4877 91.2022 29.325C92.943 28.35 95.225 28.7634 96.437 30.3178C96.6349 30.5719 97.0877 30.3245 96.8876 30.0671H96.8865Z" fill="#202504"/>
<path d="M96.8897 36.8396C94.9711 35.4122 92.5136 35.0378 90.2372 35.8903C89.9286 36.0061 90.0628 36.4853 90.3758 36.3683C92.4666 35.5861 94.7397 35.8646 96.5219 37.1906C96.7835 37.3845 97.1547 37.0368 96.8908 36.8396H96.8897Z" fill="#202504"/>
<path d="M95.7209 44.6483C94.5715 42.8476 92.4103 41.9495 90.2412 42.3496C89.9125 42.4097 90.0511 42.8889 90.3799 42.8276C92.3164 42.4699 94.2495 43.2967 95.2714 44.8979C95.4458 45.1709 95.8964 44.9213 95.722 44.6472L95.7209 44.6483Z" fill="#202504"/>
<path d="M95.9494 52.8715C94.6547 50.6619 91.9008 49.6056 89.3584 50.3466C89.0386 50.4402 89.175 50.9182 89.497 50.8246C91.8203 50.1472 94.3159 51.1021 95.4988 53.1222C95.662 53.4008 96.1126 53.1512 95.9494 52.8715Z" fill="#202504"/>
</g>
<defs>
<clipPath id="clip0_16_13625">
<rect width="98" height="79.3508" fill="white" transform="translate(0.668579)"/>
</clipPath>
</defs>
</svg>
