<svg width="251" height="230" viewBox="0 0 251 230" fill="none" xmlns="http://www.w3.org/2000/svg">
<path d="M207.455 199.449L174.742 193.438L172.616 199.581L212.937 206.99L224.816 152.752H217.683L207.455 199.449Z" fill="url(#paint0_linear_15_3582)"/>
<path d="M242.365 40.0651L236.219 68.132H243.352L250.598 35.0454L230.813 31.4099L228.687 37.5522L242.365 40.0651Z" fill="#FB0D6A"/>
<path d="M139.91 193.57L164.857 198.154L166.983 192.012L132.66 185.705L139.91 193.57Z" fill="url(#paint1_linear_15_3582)"/>
<path d="M68.3498 8.09296L147.621 22.6574L164.058 19.1455L62.867 0.552368L53.6252 42.746L61.1103 41.1451L68.3498 8.09296Z" fill="#FB0D6A"/>
<path d="M223.054 29.9853L182.677 22.5663L166.24 26.0782L220.927 36.1276L223.054 29.9853Z" fill="#FB0D6A"/>
<path d="M55.1983 68.132L59.4088 48.9087L51.9259 50.5096L48.065 68.132H55.1983Z" fill="#FB0D6A"/>
<path d="M33.4401 167.475L36.6638 152.752H29.5306L25.2072 172.495L127.513 191.292L120.265 183.428L33.4401 167.475Z" fill="url(#paint2_linear_15_3582)"/>
<path d="M180.568 152.752L166.983 192.012L174.742 193.438L188.821 152.752H180.568Z" fill="#FB0D6A"/>
<path d="M91.9944 152.752L120.264 183.428L132.659 185.705L102.292 152.752H91.9944Z" fill="#FB0D6A"/>
<path d="M159.2 214.502L139.911 193.57L127.514 191.293L162.39 229.135L172.616 199.581L164.857 198.154L159.2 214.502Z" fill="#FB0D6A"/>
<path d="M166.982 192.012L164.856 198.154L172.616 199.581L174.742 193.438L166.982 192.012Z" fill="#FB0D6A"/>
<path d="M132.659 185.705L120.264 183.428L127.512 191.292L139.909 193.57L132.659 185.705Z" fill="#FB0D6A"/>
<path d="M215.489 51.8452L209.851 68.1321H218.106L223.58 52.3133L228.687 37.5523L220.927 36.1277L215.489 51.8452Z" fill="url(#paint3_linear_15_3582)"/>
<path d="M61.1101 41.1451L59.4087 48.9086L166.24 26.0781L147.621 22.6573L61.1101 41.1451Z" fill="url(#paint4_linear_15_3582)"/>
<g clip-path="url(#clip0_15_3582)">
<path d="M77.3547 52.3096C76.0332 52.7281 74.9826 53.8155 74.7941 55.2244L61.6874 157.611C61.3105 160.549 63.8168 163.143 67.0252 163.143H138.439V73.255L77.3547 52.3096Z" fill="#9DEE7F"/>
<path d="M77.3547 52.3096C76.0331 52.7281 74.9825 53.8155 74.7941 55.2223L72.6151 72.241L79.569 144.545C80.099 150.053 75.3594 154.795 69.3196 154.795H62.0477L61.6826 157.641C61.3081 160.569 63.805 163.143 67.0252 163.143H138.439V73.255L77.3547 52.3096Z" fill="#E855DE"/>
<path d="M138.44 164.772H67.0271C64.9965 164.772 63.0531 163.969 61.6963 162.573C60.33 161.164 59.6846 159.287 59.9248 157.421L73.0245 55.0323C73.2883 53.0775 74.7583 51.4054 76.7723 50.769C77.1634 50.646 77.5897 50.6481 77.9761 50.7841L139.065 71.7295C139.76 71.9669 140.221 72.5753 140.221 73.2549V163.143C140.221 164.042 139.425 164.772 138.443 164.772H138.44ZM77.4366 54.0786C76.9561 54.3829 76.631 54.864 76.5556 55.4206L63.4559 157.801C63.3334 158.746 63.6609 159.695 64.3511 160.407C65.0436 161.121 65.9929 161.514 67.0247 161.514H136.662V74.3855L77.4366 54.0786Z" fill="#E22A98"/>
<path d="M204.86 163.143H94.2039C91.6952 163.143 89.5657 161.415 89.2689 159.117L76.0867 56.0874C75.8983 54.6547 76.4095 53.2977 77.3541 52.3095C78.3246 51.248 79.7804 50.5813 81.4529 50.5813H191.273C193.996 50.5813 196.314 52.4821 196.639 54.9762C201.169 90.3902 205.213 122.024 209.823 158.006C210.174 160.722 207.854 163.143 204.862 163.143H204.86Z" fill="#E9ECFF"/>
<path d="M209.821 158.006C205.211 122.024 201.167 90.3902 196.637 54.9762C196.314 52.4821 193.994 50.5813 191.271 50.5813H186.691L196.06 118.054C198.632 136.588 182.863 152.983 162.466 152.983H88.4871L89.2715 159.119C89.566 161.415 91.6884 163.145 94.2113 163.145H204.863C207.854 163.145 210.174 160.724 209.824 158.008L209.821 158.006Z" fill="#D2D9FF"/>
<path d="M204.86 164.772H94.2067C90.7887 164.772 87.9078 162.424 87.5073 159.309L74.3205 56.2752C74.0802 54.4542 74.6974 52.6116 76.0165 51.2351C77.3333 49.7939 79.3262 48.9481 81.4533 48.9481H191.273C194.905 48.9481 197.972 51.4552 198.404 54.78L211.59 157.811C211.817 159.576 211.206 161.352 209.913 162.683C208.627 164.008 206.787 164.767 204.86 164.767V164.772ZM81.4533 52.2082C80.365 52.2082 79.3945 52.616 78.7184 53.356C78.0376 54.0658 77.7338 54.9806 77.8539 55.8933L91.0408 158.929C91.2316 160.401 92.5931 161.514 94.2091 161.514H204.865C205.788 161.514 206.639 161.162 207.258 160.524C207.876 159.887 208.168 159.039 208.062 158.198L194.875 55.1662C194.656 53.4811 193.108 52.2103 191.275 52.2103H81.4533V52.2082Z" fill="#E22A98"/>
<path d="M198.801 71.8677L196.637 54.946C196.319 52.4584 194.017 50.5813 191.28 50.5813H81.4437C78.2165 50.5813 75.7125 53.1596 76.087 56.096L78.1058 71.8677H198.801Z" fill="#E7FFA5"/>
<path d="M198.809 71.8764H189.655L186.691 50.5922H191.292C194.02 50.5922 196.319 52.4606 196.627 54.9569L198.809 71.8764Z" fill="#C3FF8F"/>
<path d="M198.802 73.4967H78.106C77.2038 73.4967 76.4453 72.8774 76.3393 72.0554L74.3205 56.2837C74.0826 54.4239 74.728 52.5533 76.0872 51.1531C77.4465 49.7528 79.3993 48.9524 81.444 48.9524H191.28C194.917 48.9524 197.98 51.4465 198.401 54.7584L200.568 71.68C200.627 72.1396 200.467 72.6056 200.13 72.9508C199.791 73.2982 199.311 73.4988 198.802 73.4988V73.4967ZM79.689 70.2388H196.802L194.868 55.1359C194.656 53.4681 193.113 52.2103 191.28 52.2103H81.444C80.3981 52.2103 79.4393 52.6051 78.7444 53.3193C78.0495 54.0356 77.7338 54.9547 77.854 55.9062L79.689 70.2388Z" fill="#E22A98"/>
<path d="M171.768 65.1211C170.786 65.1211 169.989 64.3918 169.989 63.4921C169.989 62.5924 170.786 61.8632 171.768 61.8632C175.528 61.8632 178.703 56.6916 178.703 50.5727C178.703 44.4539 175.528 39.3017 171.768 39.3017C168.008 39.3017 164.812 44.4647 164.812 50.5727C164.812 51.4724 164.016 52.2017 163.033 52.2017C162.051 52.2017 161.255 51.4724 161.255 50.5727C161.255 42.4258 165.872 36.0438 171.768 36.0438C177.664 36.0438 182.26 42.4258 182.26 50.5727C182.26 58.7196 177.652 65.1211 171.768 65.1211Z" fill="#E22A98"/>
<path d="M137.625 65.1211C136.643 65.1211 135.847 64.3918 135.847 63.4921C135.847 62.5924 136.643 61.8632 137.625 61.8632C141.385 61.8632 144.56 56.6916 144.56 50.5727C144.56 44.4539 141.385 39.3017 137.625 39.3017C133.866 39.3017 130.669 44.4647 130.669 50.5727C130.669 51.4724 129.873 52.2017 128.891 52.2017C127.908 52.2017 127.112 51.4724 127.112 50.5727C127.112 42.4258 131.729 36.0438 137.625 36.0438C143.522 36.0438 148.117 42.4258 148.117 50.5727C148.117 58.7196 143.51 65.1211 137.625 65.1211Z" fill="#E22A98"/>
<path d="M103.481 65.1211C102.499 65.1211 101.703 64.3918 101.703 63.4921C101.703 62.5924 102.499 61.8632 103.481 61.8632C107.241 61.8632 110.416 56.6916 110.416 50.5727C110.416 44.4539 107.241 39.3017 103.481 39.3017C99.7215 39.3017 96.5249 44.4647 96.5249 50.5727C96.5249 51.4724 95.7287 52.2017 94.7464 52.2017C93.7641 52.2017 92.9679 51.4724 92.9679 50.5727C92.9702 42.4258 97.5873 36.0438 103.481 36.0438C109.375 36.0438 113.973 42.4258 113.973 50.5727C113.973 58.7196 109.365 65.1211 103.481 65.1211Z" fill="#E22A98"/>
<path d="M120.802 147.028C119.926 147.028 119.162 146.437 119.042 145.619L110.326 87.0806C110.192 86.1896 110.875 85.3675 111.848 85.2467C112.83 85.1022 113.719 85.7473 113.85 86.6405L122.566 145.179C122.701 146.07 122.017 146.892 121.045 147.013C120.962 147.024 120.882 147.028 120.802 147.028Z" fill="#E22A98"/>
<path d="M178.861 147.028C177.985 147.028 177.222 146.437 177.101 145.619L168.386 87.0806C168.251 86.1896 168.934 85.3675 169.907 85.2467C170.878 85.1022 171.778 85.7473 171.91 86.6405L180.625 145.179C180.76 146.07 180.077 146.892 179.104 147.013C179.021 147.024 178.941 147.028 178.861 147.028Z" fill="#E22A98"/>
<path d="M149.832 147.028C148.956 147.028 148.193 146.437 148.073 145.619L139.357 87.0806C139.223 86.1896 139.906 85.3675 140.879 85.2467C141.863 85.1022 142.749 85.7473 142.881 86.6405L151.597 145.179C151.731 146.07 151.048 146.892 150.075 147.013C149.993 147.024 149.913 147.028 149.832 147.028Z" fill="#E22A98"/>
<path d="M191.867 105.601H95.3632C94.3809 105.601 93.5847 104.872 93.5847 103.972C93.5847 103.072 94.3809 102.343 95.3632 102.343H191.867C192.849 102.343 193.645 103.072 193.645 103.972C193.645 104.872 192.849 105.601 191.867 105.601Z" fill="#E22A98"/>
<path d="M195.591 129.912H99.0876C98.1053 129.912 97.3091 129.183 97.3091 128.283C97.3091 127.384 98.1053 126.654 99.0876 126.654H195.591C196.573 126.654 197.369 127.384 197.369 128.283C197.369 129.183 196.573 129.912 195.591 129.912Z" fill="#E22A98"/>
</g>
<path d="M164.058 19.1454L182.677 22.5661L229.049 12.6545L223.053 29.9851L230.813 31.4098L240.727 2.75916L164.058 19.1454Z" fill="url(#paint5_linear_15_3582)"/>
<path d="M0.979607 53.9972L14.0071 68.132H24.3043L15.2793 58.34L51.9258 50.5096L53.625 42.7461L0.979607 53.9972Z" fill="url(#paint6_linear_15_3582)"/>
<path d="M147.621 22.6576L166.24 26.0783L182.677 22.5664L164.058 19.1456L147.621 22.6576Z" fill="url(#paint7_linear_15_3582)"/>
<path d="M53.6245 42.7462L51.9253 50.5097L59.4081 48.9088L61.1096 41.1453L53.6245 42.7462Z" fill="url(#paint8_linear_15_3582)"/>
<path d="M220.927 36.1275L228.686 37.5522L230.813 31.4099L223.053 29.9852L220.927 36.1275Z" fill="url(#paint9_linear_15_3582)"/>
<defs>
<linearGradient id="paint0_linear_15_3582" x1="282.973" y1="177.02" x2="66.6737" y2="187.886" gradientUnits="userSpaceOnUse">
<stop stop-color="#E7A013"/>
<stop offset="0.03" stop-color="#E8971E"/>
<stop offset="0.24" stop-color="#F46169"/>
<stop offset="0.39" stop-color="#FC3F97"/>
<stop offset="0.46" stop-color="#FF32AA"/>
<stop offset="0.52" stop-color="#F935AB"/>
<stop offset="0.58" stop-color="#EA3FB0"/>
<stop offset="0.66" stop-color="#D150B9"/>
<stop offset="0.73" stop-color="#AE68C4"/>
<stop offset="0.82" stop-color="#8187D3"/>
<stop offset="0.9" stop-color="#4AACE6"/>
<stop offset="0.99" stop-color="#0AD8FB"/>
<stop offset="1" stop-color="#01DFFF"/>
</linearGradient>
<linearGradient id="paint1_linear_15_3582" x1="283.436" y1="186.254" x2="67.1366" y2="197.121" gradientUnits="userSpaceOnUse">
<stop stop-color="#E7A013"/>
<stop offset="0.03" stop-color="#E8971E"/>
<stop offset="0.24" stop-color="#F46169"/>
<stop offset="0.39" stop-color="#FC3F97"/>
<stop offset="0.46" stop-color="#FF32AA"/>
<stop offset="0.52" stop-color="#F935AB"/>
<stop offset="0.58" stop-color="#EA3FB0"/>
<stop offset="0.66" stop-color="#D150B9"/>
<stop offset="0.73" stop-color="#AE68C4"/>
<stop offset="0.82" stop-color="#8187D3"/>
<stop offset="0.9" stop-color="#4AACE6"/>
<stop offset="0.99" stop-color="#0AD8FB"/>
<stop offset="1" stop-color="#01DFFF"/>
</linearGradient>
<linearGradient id="paint2_linear_15_3582" x1="282.29" y1="163.436" x2="65.9905" y2="174.302" gradientUnits="userSpaceOnUse">
<stop stop-color="#E7A013"/>
<stop offset="0.03" stop-color="#E8971E"/>
<stop offset="0.24" stop-color="#F46169"/>
<stop offset="0.39" stop-color="#FC3F97"/>
<stop offset="0.46" stop-color="#FF32AA"/>
<stop offset="0.52" stop-color="#F935AB"/>
<stop offset="0.58" stop-color="#EA3FB0"/>
<stop offset="0.66" stop-color="#D150B9"/>
<stop offset="0.73" stop-color="#AE68C4"/>
<stop offset="0.82" stop-color="#8187D3"/>
<stop offset="0.9" stop-color="#4AACE6"/>
<stop offset="0.99" stop-color="#0AD8FB"/>
<stop offset="1" stop-color="#01DFFF"/>
</linearGradient>
<linearGradient id="paint3_linear_15_3582" x1="69.4934" y1="-33.0772" x2="189.135" y2="48.7381" gradientUnits="userSpaceOnUse">
<stop stop-color="#E7A013"/>
<stop offset="0.03" stop-color="#E8971E"/>
<stop offset="0.24" stop-color="#F46169"/>
<stop offset="0.39" stop-color="#FC3F97"/>
<stop offset="0.46" stop-color="#FF32AA"/>
<stop offset="0.52" stop-color="#F935AB"/>
<stop offset="0.58" stop-color="#EA3FB0"/>
<stop offset="0.66" stop-color="#D150B9"/>
<stop offset="0.73" stop-color="#AE68C4"/>
<stop offset="0.82" stop-color="#8187D3"/>
<stop offset="0.9" stop-color="#4AACE6"/>
<stop offset="0.99" stop-color="#0AD8FB"/>
<stop offset="1" stop-color="#01DFFF"/>
</linearGradient>
<linearGradient id="paint4_linear_15_3582" x1="47.0405" y1="-0.242054" x2="166.682" y2="81.5711" gradientUnits="userSpaceOnUse">
<stop stop-color="#E7A013"/>
<stop offset="0.03" stop-color="#E8971E"/>
<stop offset="0.24" stop-color="#F46169"/>
<stop offset="0.39" stop-color="#FC3F97"/>
<stop offset="0.46" stop-color="#FF32AA"/>
<stop offset="0.52" stop-color="#F935AB"/>
<stop offset="0.58" stop-color="#EA3FB0"/>
<stop offset="0.66" stop-color="#D150B9"/>
<stop offset="0.73" stop-color="#AE68C4"/>
<stop offset="0.82" stop-color="#8187D3"/>
<stop offset="0.9" stop-color="#4AACE6"/>
<stop offset="0.99" stop-color="#0AD8FB"/>
<stop offset="1" stop-color="#01DFFF"/>
</linearGradient>
<linearGradient id="paint5_linear_15_3582" x1="85.3132" y1="-56.2099" x2="204.955" y2="25.6033" gradientUnits="userSpaceOnUse">
<stop stop-color="#E7A013"/>
<stop offset="0.03" stop-color="#E8971E"/>
<stop offset="0.24" stop-color="#F46169"/>
<stop offset="0.39" stop-color="#FC3F97"/>
<stop offset="0.46" stop-color="#FF32AA"/>
<stop offset="0.52" stop-color="#F935AB"/>
<stop offset="0.58" stop-color="#EA3FB0"/>
<stop offset="0.66" stop-color="#D150B9"/>
<stop offset="0.73" stop-color="#AE68C4"/>
<stop offset="0.82" stop-color="#8187D3"/>
<stop offset="0.9" stop-color="#4AACE6"/>
<stop offset="0.99" stop-color="#0AD8FB"/>
<stop offset="1" stop-color="#01DFFF"/>
</linearGradient>
<linearGradient id="paint6_linear_15_3582" x1="15.9674" y1="45.2002" x2="135.609" y2="127.013" gradientUnits="userSpaceOnUse">
<stop stop-color="#E7A013"/>
<stop offset="0.03" stop-color="#E8971E"/>
<stop offset="0.24" stop-color="#F46169"/>
<stop offset="0.39" stop-color="#FC3F97"/>
<stop offset="0.46" stop-color="#FF32AA"/>
<stop offset="0.52" stop-color="#F935AB"/>
<stop offset="0.58" stop-color="#EA3FB0"/>
<stop offset="0.66" stop-color="#D150B9"/>
<stop offset="0.73" stop-color="#AE68C4"/>
<stop offset="0.82" stop-color="#8187D3"/>
<stop offset="0.9" stop-color="#4AACE6"/>
<stop offset="0.99" stop-color="#0AD8FB"/>
<stop offset="1" stop-color="#01DFFF"/>
</linearGradient>
<linearGradient id="paint7_linear_15_3582" x1="69.0933" y1="-32.4895" x2="188.735" y2="49.3235" gradientUnits="userSpaceOnUse">
<stop stop-color="#E7A013"/>
<stop offset="0.03" stop-color="#E8971E"/>
<stop offset="0.24" stop-color="#F46169"/>
<stop offset="0.39" stop-color="#FC3F97"/>
<stop offset="0.46" stop-color="#FF32AA"/>
<stop offset="0.52" stop-color="#F935AB"/>
<stop offset="0.58" stop-color="#EA3FB0"/>
<stop offset="0.66" stop-color="#D150B9"/>
<stop offset="0.73" stop-color="#AE68C4"/>
<stop offset="0.82" stop-color="#8187D3"/>
<stop offset="0.9" stop-color="#4AACE6"/>
<stop offset="0.99" stop-color="#0AD8FB"/>
<stop offset="1" stop-color="#01DFFF"/>
</linearGradient>
<linearGradient id="paint8_linear_15_3582" x1="27.0828" y1="28.9437" x2="146.724" y2="110.757" gradientUnits="userSpaceOnUse">
<stop stop-color="#E7A013"/>
<stop offset="0.03" stop-color="#E8971E"/>
<stop offset="0.24" stop-color="#F46169"/>
<stop offset="0.39" stop-color="#FC3F97"/>
<stop offset="0.46" stop-color="#FF32AA"/>
<stop offset="0.52" stop-color="#F935AB"/>
<stop offset="0.58" stop-color="#EA3FB0"/>
<stop offset="0.66" stop-color="#D150B9"/>
<stop offset="0.73" stop-color="#AE68C4"/>
<stop offset="0.82" stop-color="#8187D3"/>
<stop offset="0.9" stop-color="#4AACE6"/>
<stop offset="0.99" stop-color="#0AD8FB"/>
<stop offset="1" stop-color="#01DFFF"/>
</linearGradient>
<linearGradient id="paint9_linear_15_3582" x1="80.7219" y1="-49.496" x2="200.361" y2="32.3171" gradientUnits="userSpaceOnUse">
<stop stop-color="#E7A013"/>
<stop offset="0.03" stop-color="#E8971E"/>
<stop offset="0.24" stop-color="#F46169"/>
<stop offset="0.39" stop-color="#FC3F97"/>
<stop offset="0.46" stop-color="#FF32AA"/>
<stop offset="0.52" stop-color="#F935AB"/>
<stop offset="0.58" stop-color="#EA3FB0"/>
<stop offset="0.66" stop-color="#D150B9"/>
<stop offset="0.73" stop-color="#AE68C4"/>
<stop offset="0.82" stop-color="#8187D3"/>
<stop offset="0.9" stop-color="#4AACE6"/>
<stop offset="0.99" stop-color="#0AD8FB"/>
<stop offset="1" stop-color="#01DFFF"/>
</linearGradient>
<clipPath id="clip0_15_3582">
<rect width="151.762" height="128.728" fill="white" transform="translate(59.8734 36.0438)"/>
</clipPath>
</defs>
</svg>
