<svg width="30" height="27" viewBox="0 0 30 27" fill="none" xmlns="http://www.w3.org/2000/svg">
<path d="M3.31291 3.42619H7.66705L10.5698 0.523438H19.2781L22.1808 3.42619H26.535C27.3048 3.42619 28.0432 3.73202 28.5875 4.27639C29.1319 4.82077 29.4377 5.55909 29.4377 6.32895V23.7455C29.4377 24.5154 29.1319 25.2537 28.5875 25.7981C28.0432 26.3424 27.3048 26.6483 26.535 26.6483H3.31291C2.54305 26.6483 1.80473 26.3424 1.26035 25.7981C0.715982 25.2537 0.410156 24.5154 0.410156 23.7455V6.32895C0.410156 5.55909 0.715982 4.82077 1.26035 4.27639C1.80473 3.73202 2.54305 3.42619 3.31291 3.42619ZM14.9239 7.78033C12.9993 7.78033 11.1535 8.54489 9.79255 9.90583C8.43161 11.2668 7.66705 13.1126 7.66705 15.0372C7.66705 16.9619 8.43161 18.8077 9.79255 20.1686C11.1535 21.5296 12.9993 22.2941 14.9239 22.2941C16.8486 22.2941 18.6944 21.5296 20.0553 20.1686C21.4163 18.8077 22.1808 16.9619 22.1808 15.0372C22.1808 13.1126 21.4163 11.2668 20.0553 9.90583C18.6944 8.54489 16.8486 7.78033 14.9239 7.78033ZM14.9239 10.6831C16.0787 10.6831 17.1862 11.1418 18.0028 11.9584C18.8193 12.7749 19.2781 13.8824 19.2781 15.0372C19.2781 16.192 18.8193 17.2995 18.0028 18.1161C17.1862 18.9326 16.0787 19.3914 14.9239 19.3914C13.7692 19.3914 12.6617 18.9326 11.8451 18.1161C11.0285 17.2995 10.5698 16.192 10.5698 15.0372C10.5698 13.8824 11.0285 12.7749 11.8451 11.9584C12.6617 11.1418 13.7692 10.6831 14.9239 10.6831Z" fill="#1D1D1D"/>
</svg>
