<svg width="105" height="104" viewBox="0 0 105 104" fill="none" xmlns="http://www.w3.org/2000/svg">
<path d="M58.0349 70.7871C64.0587 70.7871 68.9371 68.4399 68.9371 65.5552C68.9371 60.9665 57.2152 58.5055 50.2643 61.8803C42.4112 65.0998 47.9291 70.7871 58.0349 70.7871Z" fill="#CAEB0E"/>
<path d="M84.9725 50.2236C84.2114 50.8411 83.3933 51.47 82.404 51.2061C81.7059 51.0067 81.2721 51.3029 81.1204 51.9323C80.7505 53.437 80.8395 53.9006 80.5805 54.2349C80.3025 54.5953 79.5291 54.7154 78.9244 54.4873C78.9122 54.4819 78.9001 54.4779 78.888 54.4725C79.3909 53.5149 79.569 52.1355 78.942 51.2777C77.9919 49.9763 75.9737 50.543 75.9226 52.1091C75.9024 52.7665 76.2452 53.332 76.5826 53.799C76.7851 54.0797 77.0537 54.4212 77.4006 54.7343C77.0334 55.0839 76.5637 55.3444 76.005 55.4443C75.3331 55.5632 75.507 56.5881 76.1858 56.4647C77.0604 56.3095 77.7596 55.8884 78.2766 55.335C79.2976 55.8305 80.7247 55.7443 81.4012 54.8693C81.872 54.2599 81.7421 53.7405 82.126 52.205C83.5046 52.581 84.5977 51.8662 85.6258 51.028C86.1568 50.5967 85.5087 49.7914 84.9725 50.2236ZM78.016 53.8921C77.657 53.5454 76.9423 52.6788 76.9592 52.1429C76.9771 51.5941 77.7112 51.348 78.1051 51.8878C78.4524 52.3676 78.3049 53.2983 78.016 53.8921Z" fill="#CAEB0E"/>
<path d="M96.1094 82.5361L85.6558 76.8342C86.4794 75.4246 87.0034 73.8437 87.2195 72.1633C88.5753 67.9237 87.6407 63.301 85.4435 59.4272L91.0182 55.6603C91.6404 55.2756 92.4908 54.7479 92.4759 53.7302C92.4759 52.5977 92.4624 51.4802 92.4476 50.3545C92.4476 49.6205 92.0722 48.8921 91.4569 48.5216L84.1994 44.2632C83.5663 43.9001 82.7876 43.9136 82.1599 44.3064L73.3278 50.0222C73.1979 49.9083 73.053 49.8077 72.8859 49.7444C67.2933 47.5704 60.3265 46.5092 52.6724 47.1786C52.3876 47.2042 52.1771 47.4553 52.2013 47.7414C52.227 48.0262 52.4618 48.2462 52.7642 48.2125C59.3729 47.6321 66.2419 48.3126 72.3519 50.6537C66.6451 54.3721 66.8418 54.1597 66.7204 54.3672C66.4936 54.7627 66.5841 55.1272 66.6381 55.3445C66.7326 55.7225 66.4861 55.3558 75.6219 61.2171C76.2991 61.6326 77.1312 61.6019 77.7409 61.1766L82.9702 57.6443C83.1948 57.7628 84.1642 59.2812 84.3171 59.5306C87.442 64.7328 87.9897 71.462 83.893 75.8727L78.0352 72.6777C77.4953 72.3875 76.8528 72.4145 76.3669 72.7384C66.4949 79.0097 66.8919 78.6359 66.7703 78.8986C66.6448 79.1712 66.3087 79.8974 67.0389 80.4062L67.3521 80.5817C67.4941 80.7415 69.2319 81.9528 72.481 84.3002C72.477 84.3137 72.4338 84.3798 72.3002 84.4419C63.4612 88.4557 47.9912 87.6227 42.4604 84.1355C42.4577 84.1342 42.4442 83.9655 42.4415 83.9641L47.2006 80.5885C47.9154 80.0985 47.8813 79.1891 47.1453 78.7218L40.0295 74.1395C39.4289 73.7602 38.5677 73.7602 37.9914 74.1381L33.0015 77.2762C32.7342 77.4422 32.2632 77.4328 32.0364 77.2614C26.8327 73.2717 26.5408 62.9047 32.0931 58.052C32.3077 57.8617 32.795 57.832 33.0649 57.9953L38.1507 61.0619C38.7621 61.4371 39.6435 61.4155 40.2009 61.0187L46.7951 56.4902C47.4452 56.5734 47.505 56.6562 47.9092 56.5552C48.0499 56.5183 50.1501 55.9676 50.0094 56.0045C50.9225 55.7972 51.3658 55.1542 51.3523 54.7236C51.4023 54.4031 51.5498 55.9446 49.549 38.1135C49.8482 35.674 49.4356 34.3502 48.5962 31.9374C47.5205 28.9491 46.5041 26.1282 43.1986 24.8028C39.719 23.3977 36.315 22.2437 32.2793 20.9452C31.1032 20.5508 30.7056 20.3899 29.4122 18.7195C29.9302 17.9483 30.4686 17.3901 30.2352 16.5586C30.2194 16.4979 30.1919 16.446 30.1719 16.3885C30.1829 16.2315 30.1953 16.075 30.1643 15.8959C29.886 14.4296 27.0625 10.5157 25.4578 7.58563C25.3201 7.33187 25.0002 7.24416 24.7546 7.37913C24.5035 7.51681 24.4104 7.83128 24.5481 8.08234C25.2972 9.45129 26.086 10.7363 26.8905 11.9441C24.8834 16.5088 17.312 22.0407 12.2221 24.2977C9.72885 20.7843 9.87886 21.0148 8.84126 19.528C8.67929 19.2945 8.38775 19.281 8.1502 19.4443C7.91534 19.6077 7.8897 19.9748 8.05302 20.2096C9.52125 22.3208 13.793 28.251 13.2981 27.6007C13.6511 28.0546 14.0259 28.3324 14.7161 28.4718C14.8938 28.6863 15.0677 28.9008 15.2464 29.1153C15.7838 29.7516 16.6887 29.9495 17.424 29.5678C17.9508 29.288 18.4688 28.9925 18.9793 28.6843C19.8171 30.1329 20.0775 30.8259 20.8053 32.1156C22.469 35.0405 25.3972 36.0732 28.1814 37.6577C27.7876 38.2264 27.2236 39.264 27.5863 40.1762C28.0766 41.4037 30.4936 42.9861 31.8555 43.6261C33.6948 44.4906 35.2925 44.3764 36.0656 42.5137C36.3887 42.7786 36.8193 42.9522 37.3745 43.003L38.2303 54.1716C38.2789 54.7695 38.7243 55.254 39.3195 55.3499L45.2972 56.2618L39.6057 60.1698C39.3775 60.3344 38.9524 60.3358 38.6892 60.1765L33.6007 57.1072C32.9407 56.7104 31.9554 56.7846 31.4074 57.2746C28.8374 59.5197 27.0804 63.1197 27.0297 67.6455C26.268 72.4502 27.7183 77.6186 31.0695 80.2187C31.4796 80.5299 32.1866 80.5582 32.6391 80.2612L37.6873 77.0513C38.1114 76.7968 38.776 76.7968 39.1861 77.0655C44.7419 80.631 44.7239 80.5753 44.8621 80.9769L41.8381 83.1219C41.4993 83.3675 41.3117 83.7198 41.3265 84.0897C41.3302 84.1916 41.3835 84.2808 41.4165 84.376C41.3913 84.5164 41.0487 86.5185 41.1658 86.893C41.7512 88.8746 60.3831 93.3937 72.3908 87.5179L86.6667 96.4545C87.3523 96.8762 88.2345 96.6623 88.6616 96.2521C91.2394 93.8564 93.842 91.3559 96.4387 88.9865C96.9233 88.5411 97.3822 88.1199 97.3835 87.1373C97.3962 85.9877 97.4239 84.7438 96.9329 83.6749C96.8456 83.1913 96.5545 82.7777 96.1094 82.5361ZM91.4393 53.7437C91.4461 54.1459 91.0614 54.4145 90.4729 54.7803L84.9147 58.5338C84.6349 58.1036 84.0851 57.312 83.8592 57.0451C84.067 56.9047 91.8602 51.6391 91.4299 51.9299C91.4352 52.5228 91.4417 53.8856 91.4393 53.7437ZM77.1551 60.3222C76.8649 60.522 76.4762 60.5261 76.1725 60.3385L67.653 54.9301C70.8588 52.8556 81.4359 46.0091 82.7174 45.1796C83.0089 44.9988 83.3869 44.9907 83.6784 45.1594C90.9733 49.5155 91.1013 49.3296 91.2868 49.8389C91.4823 50.3569 91.3164 50.752 90.975 50.9862L77.1551 60.3222ZM38.4082 42.9208C38.468 42.9047 38.539 42.9081 38.596 42.8878C39.1349 42.6995 39.5365 42.3346 39.8076 42.0192L40.6013 53.4163L39.2455 53.8469L38.4082 42.9208ZM50.3333 54.5346C50.2955 54.6979 50.1079 54.8491 49.8919 54.8194C49.7517 54.798 41.1941 53.4909 41.7355 53.5736C41.5485 53.4739 41.7222 53.9234 40.7911 41.2233C41.6145 41.7459 42.7677 41.7724 44.1015 40.7276C43.7447 43.0019 43.712 46.2942 45.7428 47.3843C46.3125 47.6955 46.7689 47.392 47.0278 47.2042C48.053 46.2823 48.6065 43.6003 48.9417 42.0118C48.9576 42.1551 50.4247 55.3569 50.3333 54.5346ZM12.8303 25.157C18.5876 22.5646 25.3209 17.1983 27.5413 12.9651C29.6158 16.3791 29.4291 16.3316 28.384 17.5979C25.0103 21.9176 20.4697 25.3324 15.6075 27.4226C15.1931 27.6008 14.6883 27.5171 14.251 27.127C14.1775 26.9797 14.5138 27.534 12.8303 25.157ZM28.55 39.7929C28.4137 39.4514 28.6094 38.844 29.0589 38.2083C29.062 38.2039 29.0622 38.1985 29.0652 38.194C31.1764 39.5702 32.0271 40.9402 31.577 42.2768C30.8128 41.8525 28.8686 40.5996 28.55 39.7929ZM34.6049 35.444C34.5253 35.1673 34.2364 35.0053 33.9651 35.0877C33.6898 35.166 33.5305 35.4521 33.6088 35.7275C34.8998 40.2425 35.0366 40.8775 35.3372 41.5252C35.224 41.7203 35.0556 42.8838 34.173 43.0727C33.5852 43.1944 32.9726 42.9865 32.4638 42.7597C32.491 42.7212 32.5317 42.6955 32.548 42.6489C33.0365 41.26 32.8004 39.1288 28.8983 36.868C26.1275 35.2597 23.2532 34.3236 21.7069 31.604C21.0093 30.3687 20.7092 29.6006 19.8537 28.127C22.933 26.1336 25.6858 23.6357 27.9587 20.7441C28.2453 20.3694 28.5068 19.9802 28.7818 19.5977C31.2758 22.7014 30.8153 20.9222 42.8113 25.7638C45.6862 26.9164 46.5838 29.4067 47.6528 32.3788C48.078 33.6003 48.5166 34.865 48.5963 36.1472C48.7332 38.3804 47.4643 45.4106 46.3773 46.3998C46.2382 46.4968 46.2843 46.5211 46.1222 46.4038C44.9076 45.5811 44.8387 43.1809 45.0046 41.7419C45.0905 40.9455 45.2608 40.1612 45.3299 39.3866C45.6472 35.9664 44.254 32.6323 42.7762 29.5956C42.6521 29.3365 42.3376 29.2285 42.0838 29.3567C41.826 29.4822 41.7194 29.7913 41.8449 30.0491C43.1334 32.6985 44.3239 35.4641 44.3157 38.4279C44.2595 38.6553 44.2996 38.9669 44.188 39.1544C43.4082 40.49 41.4631 41.0028 41.0418 40.0209C39.9864 37.5582 39.6037 34.6606 38.5732 32.0913C38.4666 31.8253 38.1642 31.6985 37.8997 31.8038C37.6338 31.909 37.5055 32.2114 37.6122 32.4773C38.3809 34.399 38.736 36.4895 39.6074 39.0799L39.603 39.0802L39.6905 40.3362C39.3616 41.1179 38.6364 41.9764 37.7471 41.9956C36.0679 42.119 36.2411 40.8644 34.6049 35.444ZM67.653 79.4695L76.9311 73.609C77.1092 73.4889 77.3427 73.4821 77.5412 73.5887C96.4226 83.9857 95.8589 83.3375 95.9258 83.8885C95.9262 83.8921 95.93 83.8938 95.9305 83.8974C95.931 83.9009 95.9279 83.9039 95.9285 83.9074C95.9609 84.1085 95.8921 84.3123 95.7476 84.4487C87.3562 92.2548 87.9903 91.8053 87.6628 91.8762C87.4833 91.9235 87.3105 91.8533 87.2133 91.7979C69.2144 80.5628 67.9921 79.7824 67.6139 79.595C67.6152 79.5788 67.6233 79.5424 67.653 79.4695ZM73.2807 86.8527C73.6422 86.309 73.4426 85.4162 73.3992 84.7728C73.458 84.6564 73.4279 84.7188 73.4649 84.5938C73.4789 84.5468 73.4995 84.5017 73.5068 84.4527C87.2907 93.0029 86.5964 92.7741 87.2557 92.8959C87.2212 94.2386 87.2094 95.0628 87.2223 95.5765C65.7043 82.1119 76.3621 88.7809 73.2807 86.8527ZM96.3469 87.1333C96.3469 87.6408 96.2106 87.7879 95.7382 88.2212C93.3056 90.443 90.9478 92.7035 88.2604 95.208C88.2601 94.5683 88.2746 93.6497 88.2973 92.7443C88.6649 92.5632 88.1333 92.9587 96.3078 85.3449C96.3812 86.0425 96.3469 87.2752 96.3469 87.1333Z" fill="#46F8C5"/>
<path d="M49.5284 19.8506L48.1287 21.8306C47.9627 22.0641 48.018 22.3881 48.2515 22.5528C48.491 22.7218 48.8137 22.6589 48.9736 22.4299L50.3733 20.4499C50.5393 20.2164 50.484 19.8924 50.2505 19.7278C50.0156 19.5618 49.6917 19.6157 49.5284 19.8506Z" fill="#CAEB0E"/>
<path d="M55.4526 23.5083C55.3339 23.2451 55.0261 23.1304 54.7683 23.2479L50.7164 25.0659C50.4546 25.1834 50.3385 25.4898 50.4559 25.7503C50.5719 26.0093 50.8769 26.1295 51.1403 26.0108L55.1921 24.1927C55.454 24.0766 55.5701 23.7688 55.4526 23.5083Z" fill="#CAEB0E"/>
<path d="M54.5442 29.7023C55.166 29.7023 55.2582 28.7989 54.6454 28.6752L52.4845 28.2487C52.197 28.1866 51.9311 28.3769 51.8758 28.6576C51.8204 28.9384 52.004 29.211 52.2847 29.2664C54.0732 29.6164 54.4038 29.7023 54.5442 29.7023Z" fill="#CAEB0E"/>
<path d="M80.9757 86.1628C81.3344 86.5881 81.7199 86.8938 82.2766 86.7258C82.9883 86.9429 83.6981 86.2053 84.3122 85.8105C85.2044 85.2396 86.2315 84.5324 87.0873 83.6172C88.4035 82.2045 87.2671 79.4308 84.8681 79.5417C84.0675 79.4068 83.5634 79.5893 83.0642 79.8489C82.4508 79.2282 81.7961 79.0112 80.9647 79.036C78.8471 78.6653 77.1497 80.8905 78.0602 82.5509C78.9976 84.2576 80.5616 85.6778 80.9757 86.1628ZM81.2861 80.2145C81.291 80.2168 81.2961 80.2175 81.3009 80.2199C81.7344 80.4382 81.834 80.6338 81.9232 80.7733C82.3265 81.3961 82.6763 81.629 83.3094 80.9258C83.3162 80.9183 83.3208 80.9139 83.3274 80.9065C83.3285 80.9053 83.3298 80.9041 83.3309 80.9029C83.331 80.9028 83.3309 80.9026 83.331 80.9026C83.6658 80.5232 84.5904 80.4171 85.1462 80.7037C85.1478 80.7045 85.1501 80.705 85.1517 80.7058C85.9419 81.1103 86.39 82.2612 85.7821 82.91C85.0073 83.74 84.0463 84.4014 83.2081 84.9372C82.4478 85.4289 83.167 85.0218 82.0069 85.7376C81.9451 85.7123 81.6299 85.3335 81.5749 85.2774C80.6346 84.3215 79.6134 83.2253 78.97 82.0515C78.4049 81.0242 79.8432 79.5037 81.2861 80.2145Z" fill="#CAEB0E"/>
</svg>
