<svg width="89" height="105" viewBox="0 0 89 105" fill="none" xmlns="http://www.w3.org/2000/svg">
<path d="M5.83773 77.8265C0.221941 84.67 0.282137 95.7812 1.32135 103.897C1.36095 104.204 1.62233 104.427 1.9249 104.427C2.29331 104.427 2.57489 104.104 2.52846 103.742C1.51937 95.8636 1.43698 85.1073 6.77872 78.5996C6.991 78.3398 6.95457 77.9565 6.69476 77.7426C6.43338 77.5335 6.05318 77.5683 5.83773 77.8265Z" fill="#46F8C5"/>
<path d="M10.3536 74.0182L9.92902 74.2669C9.64228 74.4412 9.55041 74.8151 9.72307 75.1034C9.90049 75.3901 10.2728 75.4804 10.5595 75.3093L10.9571 75.0749C17.1076 71.5785 23.982 73.4242 28.793 67.49L42.5275 101.524C43.2986 103.439 46.043 103.244 46.7081 101.481L59.7376 67.0607C67.4198 76.0749 80.3936 67.6638 84.7021 82.2368C86.6142 88.6352 87.5377 94.7278 87.4459 100.348C87.4411 100.684 87.7088 100.96 88.0447 100.966C88.0478 100.966 88.051 100.966 88.0542 100.966C88.3852 100.966 88.6577 100.7 88.6625 100.367C88.7654 94.0397 87.5288 87.0352 85.6843 81.3027C80.8128 66.2681 66.7682 75.0945 60.0528 65.4813C59.9229 65.2944 59.6964 65.1993 59.4778 65.2262C59.392 65.237 59.3188 65.2795 59.2473 65.3225C59.1742 64.631 58.8823 64.0069 58.6255 63.4584C58.1202 62.3857 57.995 62.1926 57.3503 61.1962C57.1618 60.8952 56.7958 60.3328 56.2224 60.4422C56.0093 60.4805 56.133 60.4631 44.4268 68.213C44.3637 68.1304 44.2942 68.0567 44.2209 68.008C44.0587 67.9005 32.7652 60.4104 32.5157 60.2394C32.2385 60.0477 31.7146 60.178 31.543 60.5578C31.0433 61.0575 30.4989 62.0849 30.1901 62.6647C29.7932 63.4191 28.9845 64.9508 29.2769 65.7486C28.961 65.543 28.6036 65.6693 28.4412 65.9138C27.0171 68.0698 24.7343 69.7236 22.1775 70.4539C18.3683 71.5385 14.0081 71.9407 10.3536 74.0182ZM58.4103 67.1329L49.6179 90.3591L47.7013 77.4036L47.9023 76.857C48.3404 77.3737 49.3356 77.5664 49.9445 76.7921L58.4103 67.1329ZM56.2921 61.7982C56.6128 62.302 56.8125 62.5924 57.0351 62.9942C57.2922 63.4579 57.9746 64.8097 58.0395 65.4559C58.0458 65.5209 58.0553 65.5795 58.0727 65.673L49.4613 75.4962L49.0146 76.0871C48.994 76.0935 48.9449 76.0903 48.8767 76.0808C48.7203 75.9181 48.6015 75.7946 48.7579 75.9572L45.3013 69.0931L56.2921 61.7982ZM43.8851 68.5149L43.8788 68.5371L43.8725 68.5339L43.8851 68.5149ZM30.5118 64.9363C30.6797 64.3455 30.9791 63.7799 31.2658 63.2334C31.5836 62.6329 31.8977 62.0434 32.2908 61.5542C33.411 62.3088 43.0885 68.7168 43.2594 68.8301C39.038 77.2451 40.0272 75.3763 39.8107 75.7529C39.8107 75.7529 39.8012 75.756 39.779 75.756C39.4048 75.7075 40.0666 76.3638 30.4183 65.3308C30.412 65.2817 30.4611 65.1138 30.5118 64.9363ZM38.1632 76.0174C38.6607 76.6129 39.0542 76.9727 39.8297 76.9727C39.8297 76.9727 39.8297 76.9727 39.8313 76.9727C40.5389 76.9421 40.7577 76.5097 40.9757 76.1141C41.1903 76.9711 41.3186 77.4396 41.4139 77.6998C41.3147 78.7121 40.3313 85.5536 39.5507 90.8973L29.6035 66.2476L38.1632 76.0174Z" fill="#46F8C5"/>
<path d="M82.135 10.144C81.748 9.92639 81.3463 9.91076 80.9655 9.91353C77.378 9.93928 74.1536 11.1507 70.9806 12.3523C70.4947 12.5365 69.7074 12.8585 69.7078 13.5911C69.7078 14.3064 70.4341 15.1658 71.0088 15.4422C71.7599 15.8034 72.4994 15.664 73.1798 15.5002C76.358 14.7357 79.3889 13.5925 82.2197 12.0905C82.5274 11.9272 82.8613 11.71 82.872 11.2822C82.8831 10.843 82.5215 10.3619 82.135 10.144Z" fill="#CAEB0E"/>
<path d="M74.2596 19.4639C73.8368 19.3404 73.1441 19.153 72.897 19.5419C72.6559 19.9213 72.905 20.7075 73.2384 21.1154C73.6739 21.6488 74.2697 21.911 74.8297 22.1336C77.4463 23.1736 80.0811 23.9458 82.6884 24.4365C82.9718 24.49 83.293 24.5264 83.445 24.3047C83.6015 24.0765 83.4955 23.6569 83.2818 23.3657C83.0684 23.0742 82.7755 22.8833 82.492 22.7114C79.8209 21.0934 77.0196 20.2694 74.2596 19.4639Z" fill="#CAEB0E"/>
<path d="M70.1503 0.00924429C69.8934 0.0581462 69.7069 0.254202 69.5368 0.451828C67.9348 2.31458 66.9481 4.80704 65.9808 7.2664C65.8327 7.64304 65.6018 8.26955 65.8814 8.77432C66.1543 9.26678 66.8081 9.48501 67.1721 9.37986C67.6473 9.24243 67.9261 8.766 68.1695 8.30323C69.3059 6.14227 70.2319 3.79635 70.9309 1.30608C71.0069 1.0352 71.0738 0.71402 70.9156 0.414023C70.753 0.105675 70.4071 -0.0396857 70.1503 0.00924429Z" fill="#CAEB0E"/>
<path d="M24.2942 27.6963C25.8962 32.339 28.7894 36.6571 30.0668 41.2883C30.5507 43.0434 30.6325 44.7517 31.4402 46.5318C32.2507 48.3177 33.1751 49.5179 34.3101 50.3183C33.5188 51.2667 33.6056 52.4989 34.3337 53.3309C34.6043 53.1059 34.1237 53.2438 45.5772 53.2077C45.9474 53.2077 46.2469 53.5074 46.2469 53.8774C46.2469 54.2473 45.9474 54.5293 45.5772 54.5293H34.686C34.4571 54.5293 34.2456 54.4238 34.1222 54.2297C33.0562 55.4417 33.443 57.1719 35.0434 58.0039C35.1176 58.4179 35.0142 58.0907 40.0897 62.5712C42.4677 64.6328 46.3531 64.6552 48.7486 62.6536C54.4815 57.8052 54.0144 58.3531 54.186 58.0136C56.0324 57.0698 56.268 54.9748 54.6355 53.7715C55.8919 52.8787 56.1453 51.2775 54.9737 50.1254C55.9927 49.3262 56.842 48.1824 57.5913 46.5317C58.1125 45.3832 58.3359 44.2474 58.5497 43.1496C59.7745 36.945 62.7709 33.3951 64.7374 27.6963C64.8467 27.3794 64.6788 27.0325 64.3603 26.9232C64.0499 26.8186 63.6982 26.9818 63.5873 27.3002C61.9925 31.9166 59.1158 36.1593 57.7925 40.9651C57.3025 42.7307 57.2175 44.4147 56.4824 46.028C55.7309 47.6838 54.9026 48.7634 53.8883 49.4288C52.6596 48.9434 52.5278 49.2489 43.3286 49.1543C43.0832 47.2934 42.558 47.2051 41.3617 34.524C41.2144 32.9573 41.0655 31.3699 40.896 29.7779C43.4125 30.5278 46.1025 30.1427 48.6108 28.4741L48.6044 29.1886C48.5252 34.5287 47.7664 39.7738 46.3502 44.7749C46.2583 45.0981 46.4453 45.4355 46.7684 45.5258C47.0963 45.6209 47.429 45.4292 47.5193 45.1076C49.2029 39.1662 49.7849 33.55 49.8337 27.541C51.5263 26.073 53.1827 23.8382 53.7259 21.5942C54.8782 16.8366 48.8095 15.764 48.6234 26.9644C46.301 28.7949 43.5051 29.4807 40.7486 28.4424C40.5078 26.345 40.2227 24.2492 39.852 22.1898C39.6429 21.0302 38.8746 19.774 37.9431 19.0643C36.2032 17.7406 33.6068 18.9431 34.3582 22.6112C34.9468 25.5353 37.0018 28.0377 39.6191 29.2852C40.3497 35.9547 40.7038 42.6891 42.1003 49.1543C37.4621 49.2665 36.6317 48.8833 35.294 49.5599C34.8146 49.1124 33.7853 48.7522 32.5491 46.028C31.8123 44.4112 31.7301 42.7346 31.239 40.9651C29.9101 36.1392 27.0459 31.9365 25.4442 27.3003C23.4371 21.4786 23.9044 15.9657 26.7559 11.7773C29.6739 7.49056 34.1902 4.33654 39.1455 3.12467C41.1681 2.63212 43.8534 2.34156 47.4987 2.70803C53.0399 3.2878 58.7473 6.5941 62.2755 11.7773C63.9611 14.2533 64.8181 17.1317 64.8213 20.3316C64.8213 20.6675 65.0937 20.9399 65.4296 20.9399C65.7654 20.9399 66.0379 20.6675 66.0379 20.3316C66.0347 16.8814 65.1064 13.7733 63.2799 11.0929C54.3567 -2.01923 34.6725 -2.01584 25.7516 11.0929C22.6768 15.6061 22.1587 21.5023 24.2942 27.6963ZM47.9692 61.719C46.0017 63.3617 42.8239 63.3316 40.8881 61.6524L37.2446 58.4936L45.7469 58.4239H51.9116L47.9692 61.719ZM51.4416 20.0084C51.6264 19.7621 52.1045 19.2771 52.3399 19.4382C52.6456 19.6457 52.7391 20.5011 52.5442 21.3058C52.1362 22.9839 51.0431 24.587 49.8734 25.8222C49.8971 25.2884 50.2784 21.5661 51.4416 20.0084ZM36.4667 19.7677C37.4898 19.7677 38.4731 21.3973 38.6544 22.4053C38.976 24.1842 39.2311 25.9949 39.4497 27.8135C35.123 25.2085 34.6225 19.7677 36.4667 19.7677Z" fill="#CAEB0E"/>
</svg>
