<svg width="280" height="261" viewBox="0 0 280 261" fill="none" xmlns="http://www.w3.org/2000/svg">
<path d="M1.16797 204.77H279.279" stroke="#263238" stroke-miterlimit="10" stroke-linecap="round"/>
<path d="M190.499 76.7471C190.499 76.7471 196.872 80.1782 197.852 83.3644C198.833 86.5507 198.833 88.2659 199.567 90.2268C200.303 92.1876 205.204 101.501 209.861 109.833C214.517 118.166 226.036 134.832 228.733 139.979C231.429 145.126 233.634 151.498 232.409 158.851C231.183 166.203 213.292 177.232 207.41 174.291C201.528 171.351 197.117 169.39 196.136 164.733C195.156 160.077 195.156 155.42 193.686 152.234C192.215 149.048 189.274 136.793 189.274 136.793C189.274 136.793 184.862 102.727 188.784 89.9818" fill="#CAEB0E"/>
<path d="M190.499 76.7471C190.499 76.7471 196.872 80.1782 197.852 83.3644C198.833 86.5507 198.833 88.2659 199.567 90.2268C200.303 92.1876 205.204 101.501 209.861 109.833C214.517 118.166 226.036 134.832 228.733 139.979C231.429 145.126 233.634 151.498 232.409 158.851C231.183 166.203 213.292 177.232 207.41 174.291C201.528 171.351 197.117 169.39 196.136 164.733C195.156 160.077 195.156 155.42 193.686 152.234C192.215 149.048 189.274 136.793 189.274 136.793C189.274 136.793 184.862 102.727 188.784 89.9818" stroke="#263238" stroke-miterlimit="10" stroke-linecap="round"/>
<path d="M79.8496 176.957C75.335 191.563 76.535 200.863 77.487 204.77H199.765C198.362 193.257 191.633 138.263 189.877 128.02C187.914 116.566 195.649 85.0043 193.686 80.4223C191.722 75.8409 174.568 64.2968 156.496 62.8939C138.425 61.4903 117.879 65.1846 117.879 65.1846C117.879 65.1846 103.152 71.0755 93.661 75.9841C84.1704 80.8934 75.0071 87.4382 73.0436 97.5839C71.8895 103.546 88.5049 148.953 79.8496 176.957Z" fill="#CAEB0E" stroke="#263238" stroke-miterlimit="10" stroke-linecap="round"/>
<path d="M112.669 91.2808C112.669 91.2808 110.484 107.889 110.484 123.186" stroke="#263238" stroke-miterlimit="10" stroke-linecap="round"/>
<path d="M117.061 136.759C117.189 138.861 117.327 140.908 117.476 142.853" stroke="#263238" stroke-miterlimit="10" stroke-linecap="round"/>
<path d="M115.728 100.896C115.728 100.896 115.986 115.606 116.701 130.152" stroke="#263238" stroke-miterlimit="10" stroke-linecap="round"/>
<path d="M171.234 84.2876C171.234 84.2876 176.479 106.577 176.479 122.748" stroke="#263238" stroke-miterlimit="10" stroke-linecap="round"/>
<path d="M183.091 140.691C183.336 144.717 183.471 147.223 183.471 147.223" stroke="#263238" stroke-miterlimit="10" stroke-linecap="round"/>
<path d="M173.419 79.9175C173.419 79.9175 179.975 98.7108 181.286 114.882C181.754 120.655 182.167 126.429 182.504 131.467" stroke="#263238" stroke-miterlimit="10" stroke-linecap="round"/>
<path d="M165.606 204.717L164.583 199.012V185.971L164.264 156.71C164.264 156.71 162.992 123.314 162.992 115.681C162.992 108.047 163.311 82.9212 161.72 75.2878C160.749 70.6267 156.46 65.8509 153.265 62.8351C148.473 61.8443 143.073 61.5262 138.534 63.2972C138.534 63.2972 130.737 65.8626 124.124 68.4624C123.65 69.7169 120.691 77.8577 120.691 85.4652C120.691 93.735 126.734 118.543 128.643 128.721C130.551 138.899 128.961 163.707 128.961 163.707L130.551 187.562L131.505 200.92L130.799 204.717H165.606Z" fill="#263238" stroke="#263238" stroke-miterlimit="10" stroke-linecap="round"/>
<path d="M139.613 93.2534C149.45 93.2534 157.425 86.3659 157.425 77.8699C157.425 69.3738 149.45 62.4863 139.613 62.4863C129.776 62.4863 121.801 69.3738 121.801 77.8699C121.801 86.3659 129.776 93.2534 139.613 93.2534Z" fill="white" stroke="#263238" stroke-miterlimit="10" stroke-linecap="round"/>
<path d="M124.77 58.4387C124.77 58.4387 113.434 63.2967 109.117 72.2028C104.798 81.1089 102.639 89.7455 102.639 89.7455C102.639 89.7455 115.594 103.78 120.722 113.766C125.849 123.751 127.199 151.819 127.469 163.424C127.739 175.029 130.707 189.063 130.707 189.063C130.707 189.063 130.707 137.785 130.707 125.37C130.707 112.955 124.23 77.8702 123.96 75.9807C123.69 74.0918 139.884 70.043 145.821 70.853C151.759 71.6624 153.918 72.2022 154.727 75.9807C155.537 79.7592 162.554 130.768 162.554 145.072C162.554 159.376 164.443 192.571 164.443 192.571C164.443 192.571 164.983 163.694 165.792 147.771C166.601 131.847 164.712 107.558 168.221 99.461C171.73 91.3642 181.985 74.3613 181.985 74.3613C181.985 74.3613 177.667 69.2337 166.872 63.8359C156.076 58.438 147.17 58.1684 138.264 57.6287C129.357 57.0895 124.77 58.4387 124.77 58.4387Z" fill="#CAEB0E" stroke="#263238" stroke-miterlimit="10" stroke-linecap="round"/>
<path d="M181.986 74.3622C181.986 74.3622 180.949 73.1336 178.63 71.2485C175.514 76.7442 168.303 89.8312 165.792 97.5722C162.553 107.558 163.363 160.726 163.363 160.726C163.363 160.726 163.264 162.698 163.123 165.695C163.68 179.148 164.443 192.572 164.443 192.572C164.443 192.572 164.983 163.695 165.792 147.772C166.602 131.848 164.713 107.559 168.221 99.4618C171.73 91.365 181.986 74.3622 181.986 74.3622Z" fill="#263238" stroke="#263238" stroke-miterlimit="10" stroke-linecap="round"/>
<path d="M130.707 184.508C129.991 176.095 128.818 161.414 128.818 155.598C128.818 147.232 127.198 134.277 126.659 128.609C126.119 122.942 125.579 116.734 122.071 107.288C119.125 99.3573 107.813 87.8164 104.258 84.3159C103.179 87.587 102.639 89.7455 102.639 89.7455C102.639 89.7455 115.594 103.78 120.722 113.766C125.849 123.751 127.199 151.819 127.469 163.424C127.739 175.029 130.707 189.063 130.707 189.063C130.707 189.063 130.707 187.36 130.707 184.508Z" fill="#263238" stroke="#263238" stroke-miterlimit="10" stroke-linecap="round"/>
<path d="M105.421 32.9753C105.421 32.9753 105.421 26.1104 110.174 20.3017C114.926 14.493 128.392 7.89251 140.273 10.0043C152.154 12.1162 159.019 22.4135 160.075 29.8066H157.171C157.171 29.8066 156.906 22.9417 150.57 18.9817C144.233 15.0212 117.831 19.2455 113.871 21.8861C109.91 24.5267 108.062 30.3347 108.326 33.7672L105.421 32.9753Z" fill="#666666" stroke="#263238" stroke-miterlimit="10" stroke-linecap="round"/>
<path d="M110.702 31.6555C110.702 31.6555 104.101 31.9198 102.253 34.0317C100.405 36.1442 102.781 48.0252 105.158 52.2495C107.534 56.4739 113.871 56.2101 115.983 54.6258C118.096 53.0414 116.775 49.0815 115.983 40.6322C115.19 32.1836 112.55 31.1273 110.702 31.6555Z" fill="#919191" stroke="#263238" stroke-miterlimit="10" stroke-linecap="round"/>
<path d="M154.44 27.0904C154.44 27.0904 160.897 25.6966 163.214 27.2797C165.532 28.8627 166.2 40.9609 164.956 45.6453C163.711 50.3297 157.509 51.6574 155.068 50.6517C152.627 49.646 152.915 45.4813 151.571 37.1021C150.226 28.7234 152.519 27.0412 154.44 27.0904Z" fill="#919191" stroke="#263238" stroke-miterlimit="10" stroke-linecap="round"/>
<path d="M114.398 46.1771C114.398 46.1771 117.566 63.3388 118.623 67.2993C119.679 71.2599 120.735 76.8042 127.864 81.821C134.992 86.8378 141.065 88.4216 147.402 85.5172C153.738 82.6129 157.963 74.428 158.491 67.2993C159.019 60.1707 155.587 37.7285 155.587 37.7285L112.814 38.2566L114.398 46.1771Z" fill="white" stroke="#263238" stroke-miterlimit="10" stroke-linecap="round"/>
<path d="M155.058 58.5866C155.058 62.8109 154.266 65.4515 154.266 65.4515C154.266 65.4515 145.818 58.0585 136.84 60.6991C136.84 60.6991 134.464 60.1709 130.503 62.5472C126.543 64.9234 122.583 68.3558 122.583 68.3558C122.583 68.3558 117.83 55.9466 116.774 53.306C115.718 50.6661 114.398 46.1774 114.398 46.1774C114.398 46.1774 117.566 63.339 118.622 67.2996C119.678 71.2602 121.262 78.1244 128.392 83.1412C135.52 88.1581 141.065 88.4218 147.401 85.5175C153.738 82.6131 157.962 74.4282 158.49 67.2996C158.888 61.9341 157.042 47.8978 156.105 41.2798C156.003 42.5687 155.058 54.5904 155.058 58.5866ZM143.441 71.7876C141.328 70.7314 142.121 67.2989 142.121 67.2989L137.896 67.5627C137.896 67.5627 138.424 70.467 138.424 71.5233C138.424 72.5795 135.52 74.1638 132.88 73.3713C130.239 72.5795 127.599 68.8826 127.599 68.8826C127.599 68.8826 127.599 68.8827 129.711 67.0346C131.824 65.1865 137.368 63.074 141.593 63.6021C145.817 64.1302 150.834 67.2983 150.834 67.2983C149.514 69.4114 145.553 72.8439 143.441 71.7876Z" fill="#263238" stroke="#263238" stroke-miterlimit="10" stroke-linecap="round"/>
<path d="M134.728 48.5532C134.728 48.5532 134.464 53.57 132.616 54.89C130.768 56.2099 125.223 55.6818 122.055 55.1543C118.887 54.6262 117.039 48.2894 117.039 46.9695C117.039 45.6495 134.728 47.4976 134.728 47.4976V48.5532Z" fill="#CAEB0E" stroke="#263238" stroke-width="2" stroke-miterlimit="10" stroke-linecap="round"/>
<path d="M138.424 47.7609C138.424 47.7609 139.681 52.6248 141.755 53.5508C143.828 54.4768 149.157 52.8568 152.157 51.7092C155.157 50.5616 155.708 43.9838 155.445 42.6903C155.183 41.3963 138.214 46.7261 138.214 46.7261L138.424 47.7609Z" fill="#CAEB0E" stroke="#263238" stroke-width="2" stroke-miterlimit="10" stroke-linecap="round"/>
<path d="M135.52 0.764016C135.52 0.764016 132.352 0.235896 125.223 1.55587C118.094 2.87585 107.533 12.3807 107.269 15.285C107.005 18.1894 110.437 32.9748 110.437 34.8229C110.437 36.671 110.173 45.1203 111.757 46.9684C113.341 48.8165 128.39 50.6646 138.16 48.8165C145.169 47.4907 157.698 43.7996 158.754 41.4234C159.81 39.0472 155.058 28.2224 155.058 28.2224C155.058 28.2224 153.738 11.0607 150.569 7.36454C147.4 3.66835 135.52 0.764016 135.52 0.764016Z" fill="#263238" stroke="#263238" stroke-miterlimit="10" stroke-linecap="round"/>
<path d="M110.438 34.8237C110.438 34.8237 134.992 46.1766 155.058 28.2231" stroke="white" stroke-miterlimit="10" stroke-linecap="round"/>
<path d="M132.865 59.2488C132.865 59.2488 134.464 62.2827 138.424 61.4908C141.542 60.8675 142.385 57.5303 142.385 57.5303" fill="white"/>
<path d="M132.865 59.2488C132.865 59.2488 134.464 62.2827 138.424 61.4908C141.542 60.8675 142.385 57.5303 142.385 57.5303" stroke="#263238" stroke-miterlimit="10" stroke-linecap="round"/>
<path d="M268.384 248.15H12.708L48.6247 204.445H232.467L268.384 248.15Z" fill="#919191" stroke="#263238" stroke-miterlimit="10" stroke-linecap="round"/>
<path d="M165.096 244.563C166.585 244.563 167.793 243.99 167.793 243.285C167.793 242.579 166.585 242.007 165.096 242.007C163.606 242.007 162.398 242.579 162.398 243.285C162.398 243.99 163.606 244.563 165.096 244.563Z" fill="#263238" stroke="#263238" stroke-miterlimit="10" stroke-linecap="round"/>
<path d="M174.751 244.563C176.241 244.563 177.449 243.99 177.449 243.285C177.449 242.579 176.241 242.007 174.751 242.007C173.261 242.007 172.054 242.579 172.054 243.285C172.054 243.99 173.261 244.563 174.751 244.563Z" fill="#263238" stroke="#263238" stroke-miterlimit="10" stroke-linecap="round"/>
<path d="M184.407 244.563C185.897 244.563 187.105 243.99 187.105 243.285C187.105 242.579 185.897 242.007 184.407 242.007C182.917 242.007 181.709 242.579 181.709 243.285C181.709 243.99 182.917 244.563 184.407 244.563Z" fill="#CAEB0E" stroke="#263238" stroke-miterlimit="10" stroke-linecap="round"/>
<path d="M196.761 243.285C196.761 243.99 195.553 244.563 194.063 244.563C192.573 244.563 191.365 243.99 191.365 243.285C191.365 242.579 192.573 242.007 194.063 242.007C195.553 242.006 196.761 242.578 196.761 243.285Z" fill="#CAEB0E" stroke="#263238" stroke-miterlimit="10" stroke-linecap="round"/>
<path d="M206.417 243.285C206.417 243.99 205.209 244.563 203.719 244.563C202.229 244.563 201.021 243.99 201.021 243.285C201.021 242.579 202.228 242.007 203.719 242.007C205.209 242.006 206.417 242.578 206.417 243.285Z" fill="#263238" stroke="#263238" stroke-miterlimit="10" stroke-linecap="round"/>
<path d="M216.073 243.285C216.073 243.99 214.865 244.563 213.375 244.563C211.885 244.563 210.677 243.99 210.677 243.285C210.677 242.579 211.885 242.007 213.375 242.007C214.865 242.006 216.073 242.578 216.073 243.285Z" fill="#263238" stroke="#263238" stroke-miterlimit="10" stroke-linecap="round"/>
<path d="M225.729 243.285C225.729 243.99 224.521 244.563 223.031 244.563C221.542 244.563 220.333 243.99 220.333 243.285C220.333 242.579 221.541 242.007 223.031 242.007C224.521 242.006 225.729 242.578 225.729 243.285Z" fill="#263238" stroke="#263238" stroke-miterlimit="10" stroke-linecap="round"/>
<path d="M58.3129 243.285C58.3129 243.99 57.105 244.563 55.6153 244.563C54.1255 244.563 52.917 243.99 52.917 243.285C52.917 242.579 54.1249 242.007 55.6153 242.007C57.1044 242.006 58.3129 242.578 58.3129 243.285Z" fill="#263238" stroke="#263238" stroke-miterlimit="10" stroke-linecap="round"/>
<path d="M67.9688 243.285C67.9688 243.99 66.7609 244.563 65.2705 244.563C63.7808 244.563 62.5723 243.99 62.5723 243.285C62.5723 242.579 63.7801 242.007 65.2705 242.007C66.7609 242.006 67.9688 242.578 67.9688 243.285Z" fill="#CAEB0E" stroke="#263238" stroke-miterlimit="10" stroke-linecap="round"/>
<path d="M77.6244 243.285C77.6244 243.99 76.4165 244.563 74.9268 244.563C73.437 244.563 72.2285 243.99 72.2285 243.285C72.2285 242.579 73.4364 242.007 74.9268 242.007C76.4165 242.006 77.6244 242.578 77.6244 243.285Z" fill="#263238" stroke="#263238" stroke-miterlimit="10" stroke-linecap="round"/>
<path d="M87.2803 243.285C87.2803 243.99 86.0725 244.563 84.5821 244.563C83.0923 244.563 81.8838 243.99 81.8838 243.285C81.8838 242.579 83.0917 242.007 84.5821 242.007C86.0725 242.006 87.2803 242.578 87.2803 243.285Z" fill="#263238" stroke="#263238" stroke-miterlimit="10" stroke-linecap="round"/>
<path d="M96.9364 243.285C96.9364 243.99 95.7286 244.563 94.2388 244.563C92.749 244.563 91.5405 243.99 91.5405 243.285C91.5405 242.579 92.7484 242.007 94.2388 242.007C95.7286 242.006 96.9364 242.578 96.9364 243.285Z" fill="#CAEB0E" stroke="#263238" stroke-miterlimit="10" stroke-linecap="round"/>
<path d="M106.592 243.285C106.592 243.99 105.384 244.563 103.895 244.563C102.405 244.563 101.196 243.99 101.196 243.285C101.196 242.579 102.404 242.007 103.895 242.007C105.384 242.006 106.592 242.578 106.592 243.285Z" fill="#263238" stroke="#263238" stroke-miterlimit="10" stroke-linecap="round"/>
<path d="M116.248 243.285C116.248 243.99 115.04 244.563 113.55 244.563C112.061 244.563 110.852 243.99 110.852 243.285C110.852 242.579 112.06 242.007 113.55 242.007C115.04 242.006 116.248 242.578 116.248 243.285Z" fill="#263238" stroke="#263238" stroke-miterlimit="10" stroke-linecap="round"/>
<path d="M214.671 221.789C219.739 230.779 208.735 239.022 189.427 239.022C170.119 239.022 153.696 230.779 152.855 221.789C152.114 213.881 163.978 208.136 179.274 208.136C194.571 208.136 210.212 213.881 214.671 221.789Z" fill="#919191" stroke="#263238" stroke-miterlimit="10" stroke-linecap="round"/>
<path d="M125.776 221.789C124.766 230.779 108.188 239.022 88.8812 239.022C69.5734 239.022 58.7239 230.779 63.9604 221.789C68.567 213.881 84.3147 208.136 99.6121 208.136C114.909 208.136 126.665 213.881 125.776 221.789Z" fill="#919191" stroke="#263238" stroke-miterlimit="10" stroke-linecap="round"/>
<path d="M209.681 219.827C214.053 227.583 204.56 234.693 187.905 234.693C171.249 234.693 157.081 227.583 156.356 219.827C155.717 213.005 165.95 208.049 179.147 208.049C192.343 208.049 205.834 213.005 209.681 219.827Z" fill="#263238" stroke="#263238" stroke-miterlimit="10" stroke-linecap="round"/>
<path d="M121.62 219.827C120.748 227.583 106.448 234.693 89.7922 234.693C73.1366 234.693 63.7769 227.583 68.2941 219.827C72.2683 213.005 85.853 208.049 99.0488 208.049C112.245 208.049 122.387 213.005 121.62 219.827Z" fill="#263238" stroke="#263238" stroke-miterlimit="10" stroke-linecap="round"/>
<path d="M32.3753 236.616H28.1802L48.1178 211.061H51.5684L32.3753 236.616Z" fill="#263238" stroke="#263238" stroke-miterlimit="10" stroke-linecap="round"/>
<path d="M46.758 236.616H42.5635L59.9487 211.061H63.3993L46.758 236.616Z" fill="#263238" stroke="#263238" stroke-miterlimit="10" stroke-linecap="round"/>
<path d="M233.136 236.616H228.941L213.256 211.061H216.708L233.136 236.616Z" fill="#263238" stroke="#263238" stroke-miterlimit="10" stroke-linecap="round"/>
<path d="M133.346 231.017H129.314L130.429 217.284H134.061L133.346 231.017Z" fill="#263238" stroke="#263238" stroke-miterlimit="10" stroke-linecap="round"/>
<path d="M147.746 231.017H143.714L143.4 217.284H147.032L147.746 231.017Z" fill="#263238" stroke="#263238" stroke-miterlimit="10" stroke-linecap="round"/>
<path d="M247.519 236.616H243.323L225.087 211.061H228.538L247.519 236.616Z" fill="#263238" stroke="#263238" stroke-miterlimit="10" stroke-linecap="round"/>
<path d="M155.503 245.552H121.134L122.349 235.972H154.566L155.503 245.552Z" fill="white" stroke="#263238" stroke-miterlimit="10" stroke-linecap="round"/>
<path d="M152.438 214.208H125.112L125.89 208.073H151.838L152.438 214.208Z" fill="white" stroke="#263238" stroke-miterlimit="10" stroke-linecap="round"/>
<path d="M261.618 259.726H19.0908L12.708 248.15H268L261.618 259.726Z" fill="#263238" stroke="#263238" stroke-miterlimit="10" stroke-linecap="round"/>
<path d="M94.459 101.908C94.2193 99.7759 94.0508 98.3613 94.0508 98.3613" stroke="#263238" stroke-miterlimit="10" stroke-linecap="round"/>
<path d="M80.7007 87.8638C80.7007 87.8638 75.1999 91.2885 68.1943 99.739C61.1888 108.19 59.7652 108.53 59.587 112.185C59.4088 115.84 58.3849 120.927 58.0143 122.521C57.6436 124.115 46.257 146.381 44.2922 147.604C42.3275 148.826 30.5332 160.531 29.9844 165.779C29.4362 171.028 35.5293 179.501 38.3462 181.837C41.163 184.172 59.3323 188.398 66.1817 184.952C73.0317 181.505 80.2355 179.146 80.5517 168.989C80.8504 159.405 80.9962 161.118 81.7375 157.93C82.4789 154.743 86.6287 141.217 86.6287 141.217C86.6287 141.217 96.162 125.397 96.0739 120C96.0253 117.033 95.4188 110.791 94.8829 105.769" fill="#CAEB0E"/>
<path d="M80.7008 87.8638C80.7008 87.8638 75.1999 91.2885 68.1943 99.739C61.1888 108.19 59.7652 108.53 59.587 112.185C59.4088 115.84 58.3849 120.927 58.0143 122.521C57.6436 124.115 46.257 146.381 44.2922 147.604C42.3275 148.826 30.5332 160.531 29.9844 165.779C29.4362 171.028 35.5293 179.501 38.3462 181.837C41.163 184.172 59.3323 188.398 66.1817 184.952C73.0317 181.505 80.2355 179.146 80.5517 168.989C80.8504 159.405 80.9962 161.118 81.7375 157.93C82.4789 154.743 86.6287 141.217 86.6287 141.217C86.6287 141.217 96.162 125.397 96.0739 120C96.0253 117.033 95.4188 110.791 94.8829 105.769" stroke="#263238" stroke-miterlimit="10" stroke-linecap="round"/>
<path d="M85.0553 114.309C80.9443 108.869 75.7092 106.411 70.9515 108.109C65.822 109.939 64.9614 110.747 64.9614 110.747" stroke="#263238" stroke-miterlimit="10" stroke-linecap="round"/>
<path d="M88.2851 119.574C87.9429 118.835 87.4485 117.921 86.7441 116.793" stroke="#263238" stroke-miterlimit="10" stroke-linecap="round"/>
<path d="M67.4678 108.642C67.4678 108.642 72.8203 105.855 76.6227 105.395C80.4258 104.936 89.2471 110.348 89.2471 110.348" stroke="#263238" stroke-miterlimit="10" stroke-linecap="round"/>
<path d="M58.0649 138.371L61.0172 136.374" stroke="#263238" stroke-miterlimit="10" stroke-linecap="round"/>
<path d="M45.8643 146.626L55.0056 140.441" stroke="#263238" stroke-miterlimit="10" stroke-linecap="round"/>
<path d="M64.7884 182.276C64.7884 182.276 67.3759 175.485 67.628 171.512C67.88 167.538 61.6832 162.401 56.5828 161.214C51.483 160.028 44.1438 162.689 41.4157 165.75C38.6876 168.811 37.3826 171.532 37.4791 172.563C37.5757 173.593 40.0219 177.523 40.7036 180.369C41.3853 183.215 50.7774 184.728 55.6328 185.521C60.4883 186.316 64.7884 182.276 64.7884 182.276Z" fill="#263238" stroke="#263238" stroke-miterlimit="10" stroke-linecap="round"/>
<path d="M69.0205 186.471C69.0205 186.471 71.052 196.092 71.459 198.931C71.8659 201.771 69.1981 206.029 68.5585 208.777C67.9189 211.525 64.9485 217.087 63.0544 218.018C61.1603 218.95 58.9603 216.608 61.8102 210.257C64.6601 203.906 65.1144 198.675 64.5293 195.947C63.9441 193.219 61.8012 189.976 63.2851 188.186C64.7684 186.397 67.2884 184.085 69.0205 186.471Z" fill="white" stroke="#263238" stroke-miterlimit="10" stroke-linecap="round"/>
<path d="M64.9175 176.35C61.3898 171.164 54.5819 169.283 48.8653 171.862C48.6754 171.947 48.5251 172.02 48.4305 172.075C45.5099 173.773 43.4752 176.481 40.7044 180.37C37.2129 185.269 31.0595 197.279 31.274 200.688C31.4885 204.098 36.5811 209.651 37.4339 213.209C38.286 216.767 40.7102 219.347 42.3036 219.718C43.8977 220.088 45.3207 219.747 45.3207 219.747C45.3207 219.747 45.1425 223.402 46.7586 225.122C48.3747 226.842 51.6361 227.264 52.0068 225.671C52.3774 224.077 55.3356 215.693 55.7062 214.099C56.0769 212.505 57.9528 205.886 57.9528 205.886L57.196 217.806C57.196 217.806 53.9929 225.797 54.4083 226.901C54.823 228.006 57.8628 229.385 61.058 225.76C64.2533 222.135 65.9589 214.804 66.5518 212.254C67.1447 209.704 69.5028 193.789 69.6071 190.453C69.7108 187.117 67.8322 180.985 65.631 177.449C65.4042 177.085 65.1677 176.717 64.9175 176.35Z" fill="white" stroke="#263238" stroke-miterlimit="10" stroke-linecap="round"/>
<path d="M45.3198 219.748C45.3198 219.748 46.7156 210.254 46.8199 207.839C46.9243 205.424 50.0463 195.934 50.0463 195.934" stroke="#263238" stroke-miterlimit="10" stroke-linecap="round"/>
<path d="M37.4333 213.209C37.4333 213.209 37.0276 206.019 37.6769 203.882C38.3262 201.746 40.4795 192.488 40.4795 192.488" stroke="#263238" stroke-miterlimit="10" stroke-linecap="round"/>
<path d="M57.9526 205.885L59.3717 197.797" stroke="#263238" stroke-miterlimit="10" stroke-linecap="round"/>
<path d="M211.245 138.497C211.245 138.497 210.234 139.161 208.703 140.231" stroke="#263238" stroke-miterlimit="10" stroke-linecap="round"/>
<path d="M205.691 142.397C200.936 145.916 194.773 150.977 194.256 153.914C193.406 158.748 195.929 158.322 195.929 158.322C195.929 158.322 190.521 169.996 188.272 174.161C186.024 178.327 191.954 188.205 199.129 192.064C206.304 195.923 223.146 197.53 227.036 194.063C230.926 190.597 237.697 158.098 236.298 153.478C234.898 148.858 227.631 143.753 223.345 142.477C219.058 141.201 213.92 140.808 213.92 140.808" fill="#CAEB0E"/>
<path d="M205.691 142.397C200.936 145.916 194.773 150.977 194.256 153.914C193.406 158.748 195.929 158.322 195.929 158.322C195.929 158.322 190.521 169.996 188.272 174.161C186.024 178.327 191.954 188.205 199.129 192.064C206.304 195.923 223.146 197.53 227.036 194.063C230.926 190.597 237.697 158.098 236.298 153.478C234.898 148.858 227.631 143.753 223.345 142.477C219.058 141.201 213.92 140.808 213.92 140.808" stroke="#263238" stroke-miterlimit="10" stroke-linecap="round"/>
<path d="M216.75 148.388C217.992 148.385 219.136 148.497 220.094 148.74" stroke="#263238" stroke-miterlimit="10" stroke-linecap="round"/>
<path d="M197.296 157.257C197.296 157.257 201.004 153.274 205.229 151.084C207.46 149.928 210.411 149.069 213.264 148.658" stroke="#263238" stroke-miterlimit="10" stroke-linecap="round"/>
<path d="M195.356 174.798C195.356 174.798 189.582 179.511 190.524 183.828C191.468 188.144 203.083 196.014 208.311 195.679C213.539 195.343 220.135 191.967 219.891 186.009C219.646 180.052 212.531 175.706 206.907 173.275C201.283 170.844 198.061 172.912 195.356 174.798Z" fill="#263238" stroke="#263238" stroke-miterlimit="10" stroke-linecap="round"/>
<path d="M217.121 196.329C217.121 196.329 217.398 191.852 210.525 185.92C203.652 179.987 196.608 182.21 193.519 184.362C190.431 186.514 183.874 193.873 183.181 197.17C182.487 200.467 185.369 206.748 184.884 210.635C184.399 214.522 179.021 216.952 182.353 219.624C185.685 222.295 190.682 218.407 191.514 216.256C192.346 214.104 193.42 205.497 193.42 205.497C193.42 205.497 199.566 219.516 201.059 223.368C202.552 227.219 205.92 231.869 209.009 231.972C212.097 232.075 212.27 228.432 212.27 228.432C212.27 228.432 215.29 231.346 218.17 230.86C221.05 230.373 219.939 227.979 219.14 225.341C218.341 222.704 217.646 219.234 217.646 219.234C217.646 219.234 221.742 222.565 223.513 224.195C225.283 225.825 229.483 228.323 230.628 225.928C231.772 223.533 228.197 220.55 228.197 220.55C228.197 220.55 227.918 216.004 226.911 212.777C225.904 209.55 221.947 205.108 219.864 201.465C217.781 197.821 217.121 196.329 217.121 196.329Z" fill="white" stroke="#263238" stroke-miterlimit="10" stroke-linecap="round"/>
<path d="M212.271 228.432C212.271 228.432 210.296 224.455 208.818 220.063C207.34 215.671 205.727 208.613 205.093 206.196" stroke="#263238" stroke-miterlimit="10" stroke-linecap="round"/>
<path d="M217.647 219.234C217.647 219.234 215.797 212.83 214.914 209.915C214.031 207 213.493 203.816 213.493 203.816" stroke="#263238" stroke-miterlimit="10" stroke-linecap="round"/>
<path d="M228.199 220.55C228.199 220.55 225.734 216.875 224.334 214.363C222.933 211.851 219.344 204.39 219.344 204.39" stroke="#263238" stroke-miterlimit="10" stroke-linecap="round"/>
</svg>
