<svg width="17" height="18" viewBox="0 0 17 18" fill="none" xmlns="http://www.w3.org/2000/svg">
<g clip-path="url(#clip0_344_13983)">
<path d="M11.0919 10.5463C11.0919 10.8147 10.9049 11.0407 10.691 11.1597L9.58312 11.776L10.0747 13.1168C10.1696 13.3768 10.0839 13.6679 9.86292 13.8344C9.63696 14.0044 9.32529 14.0022 9.10146 13.8294L7.99929 12.9773L6.89712 13.8294C6.67329 14.0022 6.36162 14.0044 6.13567 13.8344C5.91467 13.6679 5.82896 13.3768 5.92387 13.1168L6.41546 11.776L5.30763 11.1597C5.09371 11.0407 4.90671 10.8147 4.90671 10.5463C4.90671 10.3189 5.10433 10.0675 5.4245 10.0675H7.01612L7.43829 8.45033C7.50487 8.19392 7.73508 8.01542 7.99929 8.01046C8.2635 8.01542 8.49371 8.19392 8.56029 8.45033L8.98246 10.0675H10.5741C10.8942 10.0675 11.0919 10.3182 11.0919 10.5463ZM12.6042 1.91667H12.25V1.5625C12.25 0.975292 11.7747 0.5 11.1875 0.5C10.6003 0.5 10.125 0.975292 10.125 1.5625V1.91667H5.875V1.5625C5.875 0.975292 5.39971 0.5 4.8125 0.5C4.22529 0.5 3.75 0.975292 3.75 1.5625V1.91667H3.39583C1.24746 1.91667 -0.5 3.66412 -0.5 5.8125V13.6042C-0.5 15.7525 1.24746 17.5 3.39583 17.5H12.6042C14.7525 17.5 16.5 15.7525 16.5 13.6042V5.8125C16.5 3.66412 14.7525 1.91667 12.6042 1.91667ZM12.6042 15.375H3.39583C2.41975 15.375 1.625 14.5802 1.625 13.6042V6.875H14.375V13.6042C14.375 14.5802 13.5802 15.375 12.6042 15.375Z" fill="#CAEB0E"/>
</g>
<defs>
<clipPath id="clip0_344_13983">
<rect width="17" height="17" fill="white" transform="translate(0 0.5)"/>
</clipPath>
</defs>
</svg>
