<svg width="20" height="20" viewBox="0 0 20 20" fill="none" xmlns="http://www.w3.org/2000/svg">
<g clip-path="url(#clip0_813_2697)">
<path d="M17.9293 2.16948C17.8884 2.16782 17.8475 2.16755 17.8066 2.1687H16.2644V0.843386C16.2645 0.31326 15.7584 0 15.2283 0H13.8067C13.2765 0 12.891 0.31326 12.891 0.843386V2.16865H7.10785V0.843386C7.10785 0.31326 6.72232 0 6.1922 0H4.77049C4.24041 0 3.73436 0.31326 3.73436 0.843386V2.16865H2.19222C1.2078 2.14121 0.387518 2.91703 0.360075 3.90141C0.358922 3.94227 0.359199 3.98323 0.36086 4.02409V17.9518C0.36086 19.012 1.13193 20 2.19218 20H17.8067C18.8669 20 19.638 19.012 19.638 17.9518V4.02409C19.6783 3.04013 18.9133 2.20979 17.9293 2.16948ZM13.8067 0.963857H15.3006V3.61444H13.8067V0.963857ZM4.77053 0.963857H6.14405V3.61444H4.77053V0.963857ZM18.6741 17.9518C18.6741 18.4819 18.3368 19.0361 17.8067 19.0361H2.19222C1.6621 19.0361 1.32476 18.4819 1.32476 17.9518V7.71085H18.6741V17.9518ZM18.6741 4.02409V6.747H1.32472V4.02409C1.2839 3.57348 1.61611 3.17508 2.06673 3.13426C2.10842 3.13048 2.15039 3.12993 2.19218 3.13256H3.73436V3.66268C3.73436 4.19281 4.24036 4.57834 4.77049 4.57834H6.1922C6.68441 4.59186 7.09434 4.20374 7.10785 3.71153C7.10832 3.69525 7.10832 3.67896 7.10785 3.66268V3.13251H12.891V3.66264C12.8775 4.15485 13.2656 4.56478 13.7578 4.5783C13.7741 4.57876 13.7904 4.57876 13.8067 4.5783H15.2284C15.7585 4.5783 16.2645 4.19276 16.2645 3.66264V3.13251H17.8067C18.2583 3.10405 18.6474 3.44706 18.6758 3.89864C18.6785 3.94043 18.6779 3.9824 18.6741 4.02409Z" fill="#96A1AE"/>
<path d="M7.32387 14.2892L6.89013 16.6989C6.87298 16.8022 6.88995 16.9084 6.93852 17.0013C7.06189 17.2371 7.35311 17.3283 7.58893 17.2049L9.75758 16.0724L11.9262 17.2049L12.1431 17.2531C12.2477 17.2549 12.3497 17.2209 12.4322 17.1567C12.5763 17.0515 12.6504 16.8754 12.625 16.6988L12.1913 14.2892L13.9503 12.6025C14.0762 12.4665 14.1219 12.2746 14.0708 12.0965C14.0059 11.9318 13.8597 11.813 13.6853 11.7832L11.2756 11.4217L10.1913 9.22897C10.144 9.13138 10.0653 9.05255 9.96767 9.00532C9.72811 8.88933 9.43989 8.98946 9.32385 9.22897L8.23952 11.4217L5.82988 11.7832C5.65545 11.813 5.50924 11.9318 5.44435 12.0965C5.39329 12.2746 5.439 12.4665 5.56482 12.6025L7.32387 14.2892ZM8.64918 12.3374C8.80051 12.3148 8.92873 12.2141 8.98652 12.0724L9.75758 10.5302L10.5286 12.0724C10.5865 12.2141 10.7147 12.3148 10.866 12.3374L12.5768 12.5784L11.3479 13.7591C11.2334 13.8724 11.1798 14.0335 11.2033 14.1928L11.4925 15.9037L9.9744 15.0844L9.75754 15.0362L9.54067 15.0844L8.02261 15.9037L8.31175 14.1928C8.33537 14.0335 8.28163 13.8724 8.16716 13.7591L6.93824 12.5784L8.64918 12.3374Z" fill="#96A1AE"/>
</g>
<defs>
<clipPath id="clip0_813_2697">
<rect width="20" height="20" fill="white"/>
</clipPath>
</defs>
</svg>
