<svg width="20" height="20" viewBox="0 0 20 20" fill="none" xmlns="http://www.w3.org/2000/svg">
<path d="M3.32518 18.3867C2.71854 18.3843 2.13758 18.1416 1.70947 17.7118C1.28137 17.282 1.04101 16.7001 1.04102 16.0934V3.33341C1.04146 2.72576 1.28304 2.14312 1.71272 1.71345C2.14239 1.28377 2.72503 1.04219 3.33268 1.04175H16.666C17.2737 1.04219 17.8563 1.28377 18.286 1.71345C18.7157 2.14312 18.9572 2.72576 18.9577 3.33341V16.0934C18.9578 16.4507 18.8744 16.8031 18.7141 17.1224C18.5538 17.4417 18.321 17.7191 18.0344 17.9324C17.7477 18.1456 17.4152 18.2889 17.0632 18.3507C16.7113 18.4126 16.3499 18.3912 16.0077 18.2884L10.2977 16.5759C10.1032 16.5167 9.8955 16.5167 9.70102 16.5759L3.99102 18.2884C3.77501 18.3533 3.55072 18.3864 3.32518 18.3867ZM9.99935 15.2817C10.2223 15.2816 10.4442 15.3141 10.6577 15.3784L16.3677 17.0909C16.5234 17.1376 16.6878 17.1472 16.8478 17.119C17.0079 17.0907 17.1591 17.0254 17.2894 16.9282C17.4196 16.831 17.5253 16.7046 17.5979 16.5592C17.6706 16.4138 17.7082 16.2534 17.7077 16.0909V3.33341C17.7072 3.05728 17.5974 2.79259 17.4021 2.59733C17.2068 2.40208 16.9421 2.29219 16.666 2.29175H3.33268C3.05655 2.29219 2.79185 2.40208 2.5966 2.59733C2.40134 2.79259 2.29146 3.05728 2.29102 3.33341V16.0934C2.29053 16.2559 2.32812 16.4163 2.40076 16.5617C2.4734 16.7071 2.57908 16.8335 2.70934 16.9307C2.83959 17.0279 2.9908 17.0932 3.15085 17.1215C3.3109 17.1497 3.47535 17.1401 3.63102 17.0934L9.34102 15.3809C9.55442 15.3158 9.77623 15.2824 9.99935 15.2817Z" fill="#96A1AE"/>
<path d="M11.9612 13.0109C11.6193 13.0095 11.2866 12.8995 11.0112 12.6967L10.3671 12.2292C10.2604 12.1512 10.1317 12.1092 9.99958 12.1092C9.86744 12.1092 9.73873 12.1512 9.63208 12.2292L8.98791 12.6967C8.71172 12.8976 8.379 13.0059 8.03747 13.006C7.69594 13.0061 7.36315 12.8981 7.08682 12.6974C6.8105 12.4966 6.60484 12.2136 6.49934 11.8887C6.39385 11.5639 6.39393 11.214 6.49958 10.8892L6.74958 10.1326C6.79041 10.007 6.79039 9.87162 6.74951 9.746C6.70864 9.62039 6.62902 9.51096 6.52208 9.43341L5.87874 8.96591C5.6029 8.76532 5.39757 8.48263 5.29211 8.15828C5.18665 7.83393 5.18648 7.48453 5.29161 7.16008C5.39674 6.83562 5.6018 6.55272 5.87744 6.35186C6.15308 6.15099 6.48518 6.04244 6.82624 6.04175H7.62124C7.75332 6.04235 7.88215 6.00082 7.989 5.92319C8.09586 5.84556 8.17517 5.73588 8.21541 5.61008L8.46541 4.85341C8.57093 4.52875 8.77652 4.24582 9.05271 4.04517C9.32891 3.84452 9.66153 3.73645 10.0029 3.73645C10.3443 3.73645 10.6769 3.84452 10.9531 4.04517C11.2293 4.24582 11.4349 4.52875 11.5404 4.85341L11.7862 5.60925C11.8266 5.73519 11.906 5.84501 12.013 5.92278C12.12 6.00054 12.249 6.04221 12.3812 6.04175H13.1762C13.5175 6.04209 13.8498 6.15039 14.1257 6.35113C14.4016 6.55186 14.6069 6.83475 14.7123 7.15929C14.8176 7.48382 14.8176 7.83337 14.7122 8.15788C14.6068 8.4824 14.4014 8.76524 14.1254 8.96591L13.4837 9.43341C13.3766 9.51076 13.2967 9.62014 13.2557 9.74579C13.2146 9.87144 13.2145 10.0069 13.2554 10.1326L13.5012 10.8884C13.6112 11.2125 13.6139 11.5634 13.5088 11.8891C13.4038 12.2148 13.1965 12.498 12.9179 12.6967C12.6407 12.9008 12.3055 13.0109 11.9612 13.0109ZM9.99958 10.8592C10.3955 10.8591 10.7812 10.9845 11.1012 11.2176L11.7454 11.6851C11.808 11.7308 11.8834 11.7555 11.9609 11.7556C12.0384 11.7557 12.114 11.7312 12.1766 11.6856C12.2393 11.64 12.2859 11.5756 12.3096 11.5019C12.3333 11.4281 12.333 11.3487 12.3087 11.2751L12.0646 10.5192C11.9411 10.1426 11.9405 9.73646 12.0629 9.35946C12.1853 8.98245 12.4243 8.65409 12.7454 8.42175L13.3871 7.95508C13.4516 7.91042 13.5001 7.84619 13.5254 7.77186C13.5506 7.69753 13.5513 7.61704 13.5273 7.5423C13.5033 7.46756 13.4559 7.40253 13.392 7.35681C13.3282 7.31109 13.2514 7.28711 13.1729 7.28841H12.3779C11.9815 7.28931 11.595 7.16419 11.2743 6.93112C10.9536 6.69805 10.7153 6.36909 10.5937 5.99175L10.3487 5.23675C10.325 5.16277 10.2784 5.09824 10.2157 5.05246C10.1529 5.00667 10.0773 4.982 9.99958 4.982C9.9219 4.982 9.84622 5.00667 9.78347 5.05246C9.72072 5.09824 9.67412 5.16277 9.65041 5.23675L9.40458 5.99258C9.28374 6.3704 9.04578 6.69995 8.72517 6.93352C8.40455 7.16709 8.01792 7.29255 7.62124 7.29175H6.82624C6.74768 7.29026 6.67073 7.3141 6.60677 7.35976C6.54282 7.40541 6.49526 7.47044 6.47114 7.54523C6.44702 7.62001 6.44762 7.70057 6.47286 7.77499C6.49809 7.84941 6.54661 7.91372 6.61124 7.95841L7.25458 8.42675C7.57549 8.65906 7.81429 8.98733 7.93651 9.36418C8.05874 9.74103 8.05806 10.147 7.93458 10.5234L7.68958 11.2792C7.66565 11.3529 7.66565 11.4322 7.68957 11.5058C7.71349 11.5795 7.76011 11.6436 7.82274 11.6892C7.88537 11.7347 7.9608 11.7592 8.03823 11.7592C8.11565 11.7592 8.19109 11.7347 8.25374 11.6892L8.89791 11.2217C9.21749 10.9873 9.60324 10.8604 9.99958 10.8592Z" fill="#96A1AE"/>
</svg>
