<svg width="20" height="20" viewBox="0 0 20 20" fill="none" xmlns="http://www.w3.org/2000/svg">
<path d="M14.9993 0.833252H4.99935C4.11529 0.833252 3.26745 1.18444 2.64233 1.80956C2.01721 2.43468 1.66602 3.28253 1.66602 4.16659V13.2499C1.66602 14.134 2.01721 14.9818 2.64233 15.6069C3.26745 16.2321 4.11529 16.5833 4.99935 16.5833H5.66602C6.0892 16.5952 6.49769 16.7411 6.83268 16.9999L8.24935 18.4166C8.47506 18.6536 8.74656 18.8423 9.04738 18.9712C9.3482 19.1001 9.67207 19.1666 9.99935 19.1666C10.3266 19.1666 10.6505 19.1001 10.9513 18.9712C11.2521 18.8423 11.5236 18.6536 11.7493 18.4166L13.166 16.9999C13.501 16.7411 13.9095 16.5952 14.3327 16.5833H14.9993C15.8834 16.5833 16.7313 16.2321 17.3564 15.6069C17.9815 14.9818 18.3327 14.134 18.3327 13.2499V4.16659C18.3327 3.28253 17.9815 2.43468 17.3564 1.80956C16.7313 1.18444 15.8834 0.833252 14.9993 0.833252ZM16.666 13.2499C16.666 13.6919 16.4904 14.1159 16.1779 14.4284C15.8653 14.741 15.4414 14.9166 14.9993 14.9166H14.3327C13.4699 14.9312 12.6414 15.2567 11.9993 15.8333L10.5827 17.2499C10.4269 17.4026 10.2175 17.4881 9.99935 17.4881C9.78122 17.4881 9.57179 17.4026 9.41602 17.2499L7.99935 15.8333C7.35731 15.2567 6.52879 14.9312 5.66602 14.9166H4.99935C4.55732 14.9166 4.1334 14.741 3.82084 14.4284C3.50828 14.1159 3.33268 13.6919 3.33268 13.2499V4.16659C3.33268 3.72456 3.50828 3.30063 3.82084 2.98807C4.1334 2.67551 4.55732 2.49992 4.99935 2.49992H14.9993C15.4414 2.49992 15.8653 2.67551 16.1779 2.98807C16.4904 3.30063 16.666 3.72456 16.666 4.16659V13.2499Z" fill="#96A1AE"/>
<path d="M9.91667 8.33331H10.0833C10.725 8.29212 11.3283 8.01309 11.7752 7.55076C12.2221 7.08843 12.4806 6.47605 12.5 5.83331C12.5 5.17027 12.2366 4.53439 11.7678 4.06555C11.2989 3.59671 10.663 3.33331 10 3.33331C9.33696 3.33331 8.70107 3.59671 8.23223 4.06555C7.76339 4.53439 7.5 5.17027 7.5 5.83331C7.51942 6.47605 7.77785 7.08843 8.22477 7.55076C8.67169 8.01309 9.27496 8.29212 9.91667 8.33331ZM10 5.08331C10.2073 5.08227 10.4076 5.15854 10.5616 5.29722C10.7157 5.43591 10.8126 5.62704 10.8333 5.83331C10.8182 6.03563 10.7363 6.2272 10.6006 6.37801C10.4649 6.52881 10.2829 6.63033 10.0833 6.66665H9.91667C9.71706 6.63033 9.53514 6.52881 9.39942 6.37801C9.26369 6.2272 9.18183 6.03563 9.16667 5.83331C9.18739 5.62704 9.28426 5.43591 9.43835 5.29722C9.59244 5.15854 9.79269 5.08227 10 5.08331Z" fill="#96A1AE"/>
<path d="M12.7495 9.25C11.9163 8.75897 10.9667 8.5 9.99953 8.5C9.03234 8.5 8.08279 8.75897 7.24953 9.25C6.88546 9.46 6.58487 9.76442 6.37952 10.1311C6.17416 10.4978 6.07167 10.9132 6.08286 11.3333C6.09439 11.7377 6.20724 12.1327 6.41108 12.4821C6.61491 12.8316 6.90321 13.1243 7.24953 13.3333C8.06189 13.8815 9.01953 14.1743 9.99953 14.1743C10.9795 14.1743 11.9372 13.8815 12.7495 13.3333C13.107 13.137 13.4044 12.8472 13.6099 12.4949C13.8154 12.1426 13.9212 11.7411 13.9162 11.3333C13.9109 10.9163 13.8014 10.5073 13.5977 10.1434C13.3939 9.77951 13.1023 9.47239 12.7495 9.25ZM11.8329 12C11.264 12.2858 10.6362 12.4347 9.99953 12.4347C9.36288 12.4347 8.73506 12.2858 8.16619 12C7.95922 11.8284 7.8131 11.5946 7.74953 11.3333C7.75876 11.1965 7.80162 11.0641 7.8743 10.9478C7.94699 10.8315 8.04725 10.7349 8.16619 10.6667C8.72072 10.3365 9.35413 10.1622 9.99953 10.1622C10.6449 10.1622 11.2783 10.3365 11.8329 10.6667C11.9518 10.7349 12.0521 10.8315 12.1247 10.9478C12.1974 11.0641 12.2403 11.1965 12.2495 11.3333C12.186 11.5946 12.0398 11.8284 11.8329 12Z" fill="#96A1AE"/>
</svg>
