<svg width="113" height="96" viewBox="0 0 113 96" fill="none" xmlns="http://www.w3.org/2000/svg">
<path d="M39.6412 62.1977C40.1679 66.2269 41.4286 70.199 45.7809 71.4244C51.342 72.9916 57.372 72.217 63.0736 71.9999C70.3635 71.7212 79.9396 70.0676 80.3505 61.0985C80.3693 60.6597 79.9982 60.1361 79.9103 60.8371C78.8908 68.9954 70.6933 70.4237 63.8279 70.8399C60.124 71.0645 56.384 71.214 52.6741 71.2539C49.9694 71.2817 47.3368 70.9646 44.7899 70.03C41.4173 68.7918 40.3603 65.2727 39.8404 62.0594C39.7863 61.7213 39.6135 61.9835 39.6412 62.1977Z" fill="#46F8C5"/>
<path d="M77.781 54.3165C80.1641 56.88 81.6314 59.0618 85.134 60.0407C87.9619 60.8318 91.626 60.2683 94.4223 59.499C98.3238 58.4231 100.487 55.5006 100.146 51.5352C100.097 50.9469 99.7708 51.2565 99.7738 51.6787C99.8091 57.1782 94.7521 58.6726 90.3022 59.052C87.623 59.2811 85.2076 59.1827 82.6719 58.1594C80.663 57.3495 79.3392 55.1617 77.8313 53.6764C77.7344 53.5833 77.6555 54.1813 77.781 54.3165Z" fill="#46F8C5"/>
<path d="M7.43508 50.6705C6.12782 52.4413 5.87914 54.9461 7.06244 56.91C9.63489 61.1834 14.2163 61.5869 18.8038 61.6643C23.2785 61.7409 28.2544 60.9265 30.5211 56.6719C31.6803 54.4961 31.5849 51.6314 29.9073 49.8027C29.6428 49.5135 29.5985 50.5014 29.7375 50.6893C33.1168 55.2527 28.5474 58.5118 25.3258 59.6666C23.2598 60.4059 20.9435 60.475 18.776 60.5103C17.0367 60.5381 15.3042 60.3976 13.5875 60.1376C9.8956 59.5772 4.35625 56.0363 7.532 51.0709C7.5921 50.9785 7.53726 50.5322 7.43508 50.6705Z" fill="#46F8C5"/>
<path d="M7.20535 57.6493C6.02656 59.9768 4.61186 62.2375 3.85154 64.7483C3.80045 64.9174 3.91315 65.7664 4.0882 65.3471C5.08743 62.9625 6.24669 60.6793 7.36613 58.3518C7.44953 58.179 7.3218 57.4216 7.20535 57.6493Z" fill="#46F8C5"/>
<path d="M9.86341 59.2766C8.68386 61.2503 6.95136 63.2382 6.81387 65.6334C6.79885 65.8828 7.0295 66.5883 7.15121 66.0015C7.61476 63.7664 8.9363 61.9911 10.0377 60.0407C10.1391 59.8574 10.0129 59.0272 9.86341 59.2766Z" fill="#46F8C5"/>
<path d="M12.7103 60.0648C12.0281 61.2563 11.1927 62.357 10.503 63.5455C10.2077 64.0534 9.23777 65.6935 9.97329 66.2352C10.2062 66.408 10.1739 65.5793 10.1596 65.5072C10.1814 65.6071 10.1213 65.855 10.2069 65.5688C10.2836 65.3149 10.4053 65.0729 10.5195 64.8348C10.7885 64.2833 11.1025 63.7522 11.4135 63.2232C11.8929 62.4088 12.4316 61.6237 12.8748 60.7905C12.9672 60.6177 12.847 59.8266 12.7103 60.0648Z" fill="#46F8C5"/>
<path d="M15.1933 60.5163C14.9378 61.0625 11.7891 65.9234 13.161 66.248C13.3789 66.2991 13.3293 65.5936 13.303 65.5087C13.3225 65.5688 13.2391 65.8092 13.3255 65.4899C13.3856 65.2743 13.475 65.0647 13.5614 64.8558C13.7643 64.366 14.0152 63.8919 14.2579 63.4208C14.6268 62.7109 15.0505 62.0212 15.3698 61.2886C15.454 61.0963 15.3105 60.2624 15.1933 60.5163Z" fill="#46F8C5"/>
<path d="M18.8143 60.795C17.8639 62.2007 16.8992 63.8678 16.6588 65.574C16.6385 65.7265 16.773 66.6454 16.9563 66.1593C17.5672 64.5395 18.066 62.982 18.9713 61.4824C19.0667 61.3262 18.9683 60.5674 18.8143 60.795Z" fill="#46F8C5"/>
<path d="M22.5462 60.5501C21.7521 62.2037 20.5913 63.7844 20.2668 65.6213C20.2352 65.7956 20.4215 66.7393 20.5741 66.2374C21.1067 64.4824 21.9707 62.9257 22.7063 61.2525C22.7806 61.0827 22.6559 60.3209 22.5462 60.5501Z" fill="#46F8C5"/>
<path d="M25.0202 60.8491C24.3215 62.4013 23.2253 63.8821 23.0946 65.6251C23.0758 65.8934 23.2944 66.6229 23.4409 66.0143C23.8166 64.4591 24.5897 63.1293 25.2012 61.6665C25.2854 61.4659 25.1366 60.5899 25.0202 60.8491Z" fill="#46F8C5"/>
<path d="M30.3027 56.7966C29.3433 58.6087 28.3906 60.4254 27.4936 62.2713C27.0774 63.1316 26.556 63.9573 26.5357 64.9332C26.5312 65.0887 26.7002 65.674 26.8437 65.2705C27.7949 62.6042 29.193 60.0715 30.4635 57.5449C30.5536 57.3661 30.4259 56.5614 30.3027 56.7966Z" fill="#46F8C5"/>
<path d="M32.0127 59.1241C31.2125 60.8483 30.1457 62.5222 29.4853 64.2983C29.4425 64.411 29.5214 65.2743 29.6701 65.0955C30.2246 64.4245 30.5454 63.5297 30.9203 62.7476C31.3598 61.8258 31.779 60.8927 32.1877 59.9565C32.2764 59.7559 32.1299 58.8717 32.0127 59.1241Z" fill="#46F8C5"/>
<path d="M42.5565 69.1329C41.2387 71.3711 39.7481 73.6114 39.3018 76.1997C39.277 76.3492 39.4401 77.1538 39.5633 76.7263C40.3259 74.0615 41.6752 71.761 42.9697 69.3395C42.8315 69.2704 42.6932 69.2036 42.5565 69.1329Z" fill="#46F8C5"/>
<path d="M45.7645 70.5544C44.923 72.2261 43.9591 73.8459 43.0072 75.4537C42.3633 76.5393 41.7878 77.6798 41.8712 78.9697C41.8975 79.3627 42.177 79.6429 42.2251 79.087C42.3483 77.6309 43.195 76.4454 43.8689 75.1997C44.6127 73.8188 45.3791 72.4454 46.0364 71.0202C46.0673 70.9556 46.0657 70.8046 46.047 70.6566C45.9523 70.625 45.8584 70.5882 45.7645 70.5544Z" fill="#46F8C5"/>
<path d="M48.7649 71.8414C47.5967 73.8954 45.463 76.0246 45.5907 78.555C45.6125 78.9923 45.9062 79.2845 45.9693 78.6842C46.2007 76.4333 47.9062 74.6227 48.9573 72.7046C49.0707 72.4973 48.922 71.5672 48.7649 71.8414Z" fill="#46F8C5"/>
<path d="M51.5035 72.0796C50.6831 73.4372 49.9626 74.8353 49.2068 76.2275C48.7613 77.0509 48.4255 77.7421 48.5073 78.688C48.5599 79.2838 48.8642 78.9592 48.8695 78.546C48.8845 77.658 49.7665 76.4138 50.1519 75.6362C50.623 74.6813 51.1399 73.7475 51.6666 72.8203C51.7665 72.6475 51.6448 71.8429 51.5035 72.0796Z" fill="#46F8C5"/>
<path d="M55.5863 71.4688C55.1768 72.1397 50.5255 78.8646 52.367 79.2868C52.5615 79.3326 52.5082 78.6955 52.4902 78.6219C52.249 77.6678 53.5202 75.9803 53.974 75.1915C54.5465 74.1952 55.1858 73.2411 55.7598 72.2479C55.865 72.0645 55.7373 71.2178 55.5863 71.4688Z" fill="#46F8C5"/>
<path d="M59.6231 71.6213C58.4578 73.8902 56.6224 75.8353 56.0822 78.386C56.0529 78.528 56.0296 79.3386 56.3316 79.2154C56.424 79.1936 56.4976 79.1433 56.5502 79.0629C56.687 78.9277 56.726 78.3822 56.5314 78.2733C56.4481 78.235 56.3714 78.1839 56.3053 78.1208C56.3526 78.398 56.3992 78.6737 56.4465 78.951C56.992 76.5062 58.7125 74.5529 59.7778 72.3328C59.8575 72.163 59.7373 71.3989 59.6231 71.6213Z" fill="#46F8C5"/>
<path d="M63.8544 71.2621C62.6486 72.7752 61.6711 74.4056 60.8229 76.1441C60.3826 77.0479 59.7778 78.132 60.2286 79.1463C60.4285 79.5986 60.5487 78.809 60.5254 78.6504C60.3901 77.7834 61.4525 76.2222 61.8327 75.4709C62.4435 74.2673 63.1797 73.1351 63.9866 72.0563C64.1159 71.8842 63.94 71.1562 63.8544 71.2621Z" fill="#46F8C5"/>
<path d="M67.7369 70.8602C66.0585 73.1772 64.0285 75.5175 63.5987 78.4439C63.5867 78.5273 63.5957 79.4972 63.8542 79.2861C64.0157 79.1553 64.048 79.1073 64.1742 78.9322C64.2509 78.8248 64.305 78.0592 64.0713 78.1058C63.9729 78.1291 63.873 78.1456 63.7723 78.1516C63.8384 78.4408 63.906 78.7286 63.9721 79.0171C64.4184 76.2027 66.3523 73.8654 67.8887 71.5552C67.9894 71.4027 67.8939 70.6431 67.7369 70.8602Z" fill="#46F8C5"/>
<path d="M72.0322 70.0984C71.4364 70.8437 66.0924 77.8195 67.8249 78.3469C68.0623 78.4206 67.9774 77.5122 67.894 77.4018C67.9045 77.7624 67.9398 77.8157 67.9999 77.5588C68.0585 77.4018 68.1247 77.2493 68.1998 77.0983C68.3425 76.7917 68.5078 76.495 68.6708 76.1989C69.0608 75.492 69.4943 74.806 69.9285 74.1239C70.6272 73.0292 71.3432 71.9346 72.1238 70.8955C72.2613 70.7099 72.1043 70.0075 72.0322 70.0984Z" fill="#46F8C5"/>
<path d="M75.7053 68.6897C74.4476 70.2674 73.4408 71.9856 72.4904 73.761C71.8421 74.9698 70.8496 76.1749 70.7692 77.5896C70.7542 77.8526 70.9803 78.6024 71.1186 77.981C71.4176 76.6355 72.3469 75.3665 72.969 74.1494C73.8007 72.5206 74.7053 70.9361 75.7924 69.4598C75.9209 69.2855 75.7729 68.6063 75.7053 68.6897Z" fill="#46F8C5"/>
<path d="M79.8193 66.6326C78.5646 68.9294 77.2101 71.1697 75.9471 73.462C75.2326 74.7565 74.2815 75.8864 74.0366 77.38C73.9885 77.6768 74.2582 78.6655 74.3814 77.945C74.6782 76.2192 76.0703 74.5198 76.8998 73.0089C77.9268 71.1322 78.9831 69.2742 79.9696 67.3742C80.0575 67.2036 79.9388 66.414 79.8193 66.6326Z" fill="#46F8C5"/>
<path d="M82.1013 57.928C81.2839 58.8026 80.3891 59.6906 80.072 60.8822C80.0239 61.0595 80.0194 61.2503 80.06 61.4306C80.0758 61.5027 80.1937 61.7815 80.2771 61.5891C80.7602 60.4915 81.4349 59.5907 82.1877 58.6643C82.3162 58.5073 82.1952 57.8266 82.1013 57.928Z" fill="#46F8C5"/>
<path d="M84.2512 60.1038C83.1753 62.3374 81.7035 64.4223 81.0702 66.8437C81.0221 67.03 81.1656 67.9857 81.3241 67.5161C82.1197 65.1788 83.3887 63.0992 84.4202 60.8686C84.5066 60.6808 84.3669 59.8649 84.2512 60.1038Z" fill="#46F8C5"/>
<path d="M88.1695 59.1767C87.141 61.1534 85.8803 63.1608 85.5504 65.4012C85.5287 65.5492 85.6797 66.4448 85.8232 65.9767C86.4821 63.8535 87.3874 61.9152 88.3235 59.9032C88.4009 59.7357 88.2867 58.9506 88.1695 59.1767Z" fill="#46F8C5"/>
<path d="M91.7229 60.0805C90.8161 61.7649 89.1827 63.4261 89.2796 65.4659C89.2902 65.6845 89.4908 66.1435 89.5644 65.6785C89.8596 63.8205 91.0467 62.4133 91.8739 60.7762C91.958 60.6102 91.8416 59.8619 91.7229 60.0805Z" fill="#46F8C5"/>
<path d="M95.744 57.9701C94.4368 60.0519 92.8808 62.4193 92.5698 64.9121C92.5607 64.9827 92.6434 65.6972 92.7606 65.4433C93.2685 64.3486 93.569 63.1646 94.0844 62.0609C94.6186 60.9182 95.2594 59.8228 95.907 58.7417C96.0107 58.5659 95.892 57.7342 95.744 57.9701Z" fill="#46F8C5"/>
<path d="M101.524 53.3744C100.488 55.3909 99.5329 57.4404 98.6403 59.5261C97.9627 61.109 97.1407 62.5192 96.8853 64.245C96.8665 64.3757 97.0025 65.1563 97.1159 64.7514C98.1505 61.0302 100.03 57.3788 101.619 53.859C101.667 53.7515 101.596 53.2339 101.524 53.3744Z" fill="#46F8C5"/>
<path d="M102.723 58.8672C101.762 60.7928 100.767 62.7687 99.9379 64.7514C99.8733 64.9054 99.9011 65.8768 100.123 65.5831C101.385 63.9077 101.998 61.6199 102.905 59.7372C103.005 59.5306 102.854 58.6072 102.723 58.8672Z" fill="#46F8C5"/>
<path d="M26.3306 13.6058C31.6897 16.2879 31.613 23.3299 32.7528 28.5304C33.5364 32.1111 34.7843 35.7939 36.6798 38.9442C38.534 42.0245 41.8946 46.5676 45.558 47.5593C46.6301 47.8501 46.2935 45.5233 45.9742 45.0537C44.8803 43.4482 43.5234 42.4054 42.0441 41.1665C39.5964 39.1177 37.8211 36.6121 36.3094 33.824C34.4064 30.314 33.432 26.3433 32.6559 22.4546C32.1495 19.9265 30.5237 10.6817 26.3066 12.614C26.1045 12.7072 26.1413 13.5103 26.3306 13.6058Z" fill="#46F8C5"/>
<path d="M47.3025 48.2212C51.1356 49.4188 55.9251 49.0814 59.9251 49.2159C64.1233 49.3579 68.4696 48.1724 72.1781 50.4616C76.344 53.034 78.2666 57.9025 78.9841 62.5057C79.6212 66.592 80.2282 72.7595 79.0089 76.7556C78.4882 78.4581 80.3146 81.413 81.3109 78.8029C82.9164 74.5986 81.5881 69.5845 81.1418 65.2637C80.6618 60.6237 79.7654 56.336 77.2163 52.3669C74.4943 48.1273 70.2727 46.2152 65.3682 46.4045C59.33 46.6367 53.2933 46.1919 47.2581 46.4308C46.7405 46.4511 46.8449 48.0784 47.3025 48.2212Z" fill="#46F8C5"/>
<path d="M25.5942 13.0565C20.154 19.852 23.6326 32.3274 26.0435 39.6203C28.06 45.7186 31.2012 51.3331 35.0839 56.4254C38.1252 60.4156 38.7097 63.9227 38.4046 68.8467C38.2446 71.4237 37.9989 73.9691 37.9629 76.5535C37.9306 78.9104 40.4009 78.8443 40.3686 76.4949C40.3099 72.32 40.8366 67.9196 40.2205 63.7859C39.5076 59.0039 37.2326 55.1354 34.5212 51.2061C30.543 45.4406 27.3748 39.2905 25.4838 32.5212C23.909 26.8865 22.8046 20.0414 25.8662 14.7409C26.0563 14.4096 25.7933 12.8071 25.5942 13.0565Z" fill="#46F8C5"/>
<path d="M39.0086 79.7466C41.5871 80.8427 44.5495 80.6361 47.321 80.7105C51.1977 80.8135 55.0835 80.7548 58.9587 80.6797C66.1239 80.54 73.2845 80.4889 80.4489 80.6639C81.3896 80.6857 81.3708 77.4942 80.37 77.4078C73.2785 76.7932 65.9909 77.2523 58.8775 77.3432C55.4862 77.3875 52.097 77.4987 48.7027 77.5137C45.5329 77.5288 41.9409 76.776 38.9665 77.9923C38.5714 78.1531 38.63 79.5851 39.0086 79.7466Z" fill="#46F8C5"/>
<path d="M68.1786 27.4853C68.8758 19.6117 56.021 17.8724 50.9497 20.7108C44.6967 24.2074 43.1693 33.2906 46.3773 39.2522C50.3525 46.6375 61.516 46.5406 66.7767 40.6842C71.6661 35.2402 71.1951 25.9046 65.0449 21.5598C64.38 21.0902 64.238 24.1833 64.8158 24.7355C67.3409 27.151 69.4205 30.0728 68.3123 33.7662C67.4746 36.5603 65.2192 38.4032 62.7625 39.7413C58.5484 42.0365 53.3419 41.6781 49.5072 38.8811C43.3338 34.3808 46.653 26.1871 52.0166 22.7694C54.2277 21.3592 57.1142 21.5222 59.5739 21.9152C61.22 22.1781 67.6332 24.3276 67.5407 27.0097C67.5152 27.743 68.0659 28.7663 68.1786 27.4853Z" fill="#46F8C5"/>
<path d="M75.498 51.9529C78.7294 50.276 81.2515 48.1175 84.8427 47.0409C88.2386 46.0229 91.908 46.4294 95.1318 47.787C98.0153 49.0018 99.7365 51.5653 101.088 54.2579C103.016 58.0978 102.503 61.7912 103.276 65.8017C103.807 68.5545 105.386 66.5072 105.059 64.6575C104.292 60.3315 104.572 56.7072 102.609 52.6472C101.252 49.8403 99.587 47.3407 97.0258 45.515C90.3535 40.7533 79.7519 44.2311 75.2028 50.3241C75.0112 50.5796 74.9946 52.2136 75.498 51.9529Z" fill="#46F8C5"/>
<path d="M81.8901 67.6056C85.1019 68.5597 89.1138 67.7731 92.4451 67.71C96.0416 67.6424 100.366 68.4553 103.878 67.6897C105.09 67.4252 104.983 63.9798 103.79 64.1105C100.507 64.4689 97.134 64.0947 93.8275 64.2863C89.8584 64.5169 85.9268 65.0744 81.9697 65.3254C81.286 65.3689 81.3063 67.432 81.8901 67.6056Z" fill="#46F8C5"/>
<path d="M98.3804 30.102C96.3775 24.7235 90.4287 22.9835 85.1883 24.2674C79.8503 25.5747 78.217 30.4469 79.226 35.389C80.4942 41.5857 89.4302 41.8584 94.0762 39.8472C97.1461 38.5174 98.7305 36.2124 99.1137 32.9698C99.445 30.1614 98.1205 26.8159 95.3482 25.879C94.6803 25.6528 94.9861 28.3883 95.2866 28.7347C96.2828 29.8789 98.2182 31.2891 97.3677 33.1441C96.7486 34.4896 95.385 35.2965 94.1499 35.9584C92.5992 36.7901 90.621 36.9667 88.8998 37.0809C85.4776 37.3085 77.8969 35.6324 80.7572 30.5821C84.0982 24.6829 95.4248 25.4567 97.9109 31.5874C98.3061 32.5611 98.536 30.5198 98.3804 30.102Z" fill="#46F8C5"/>
<path d="M3.28788 65.5996C3.66654 61.6079 3.99786 57.6974 5.99106 54.1174C8.03385 50.4458 12.1953 48.6224 16.0968 47.7404C20.0194 46.8524 24.2056 47.4895 27.5422 49.7359C31.7186 52.5457 33.098 59.9799 32.4564 64.6034C32.1672 66.6897 34.4196 68.5244 34.6577 65.689C35.089 60.5546 33.8629 54.7816 31.3911 50.2768C28.6804 45.34 23.7007 43.5804 18.2914 43.9065C6.7619 44.603 1.28716 55.1009 2.59443 65.6161C2.68308 66.3216 3.22252 66.2938 3.28788 65.5996Z" fill="#46F8C5"/>
<path d="M23.1419 26.3433C18.5184 20.5342 7.03475 26.7588 6.62529 33.1816C5.99119 43.1191 19.9804 42.4009 26.1907 39.7014C26.7887 39.44 26.6663 37.1335 25.9946 36.996C23.8226 36.5497 4.84395 40.0305 8.18349 32.5483C10.2834 27.8436 18.6777 25.0676 23.0615 27.8181C23.356 28.0014 23.3192 26.5664 23.1419 26.3433Z" fill="#46F8C5"/>
<path d="M2.89663 67.0391C8.5667 68.0383 14.8055 67.3885 20.5537 67.3366C24.6386 67.2983 30.0802 66.236 34.008 67.5628C35.1335 67.9429 35.3153 64.387 34.1207 64.1C30.2793 63.1767 25.8617 64.411 21.9557 64.5343C15.7191 64.7296 8.99044 64.1173 2.8523 65.2194C2.33466 65.3119 2.38499 66.9482 2.89663 67.0391Z" fill="#46F8C5"/>
<path d="M1.88841 19.9542C1.88841 20.4005 1.52628 20.7626 1.08001 20.7626C0.633734 20.7626 0.271606 20.4005 0.271606 19.9542C0.271606 19.5079 0.632983 19.1458 1.08001 19.1458C1.52703 19.1458 1.88841 19.5079 1.88841 19.9542Z" fill="#CAEB0E"/>
<path d="M15.6656 10.6922C15.6656 11.3759 15.1111 11.9303 14.4282 11.9303C13.7445 11.9303 13.1901 11.3759 13.1901 10.6922C13.1901 10.0085 13.7445 9.45404 14.4282 9.45404C15.1111 9.45404 15.6656 10.0085 15.6656 10.6922Z" fill="#CAEB0E"/>
<path d="M23.3367 7.46533C23.3367 8.31205 22.65 8.99874 21.8032 8.99874C20.9565 8.99874 20.2698 8.31205 20.2698 7.46533C20.2698 6.61862 20.9565 5.93268 21.8032 5.93268C22.65 5.93268 23.3367 6.61937 23.3367 7.46533Z" fill="#CAEB0E"/>
<path d="M30.0293 4.18515C30.0293 4.89287 29.4561 5.46612 28.7484 5.46612C28.0407 5.46612 27.4674 4.89212 27.4674 4.18515C27.4674 3.47742 28.0407 2.90418 28.7484 2.90418C29.4561 2.90342 30.0293 3.47742 30.0293 4.18515Z" fill="#CAEB0E"/>
<path d="M39.2377 7.76285C39.2377 8.50288 38.6382 9.10242 37.8982 9.10242C37.1581 9.10242 36.5586 8.50288 36.5586 7.76285C36.5586 7.02282 37.1581 6.42328 37.8982 6.42328C38.6382 6.42328 39.2377 7.02282 39.2377 7.76285Z" fill="#CAEB0E"/>
<path d="M47.8306 6.0078C47.8306 6.66293 47.2986 7.19486 46.6435 7.19486C45.9876 7.19486 45.4557 6.66293 45.4557 6.0078C45.4557 5.35191 45.9876 4.82074 46.6435 4.82074C47.2994 4.82074 47.8306 5.35191 47.8306 6.0078Z" fill="#CAEB0E"/>
<path d="M41.5933 9.65988C41.5933 10.1535 41.1929 10.5547 40.6992 10.5547C40.2049 10.5547 39.8044 10.1542 39.8044 9.65988C39.8044 9.16552 40.2049 8.76508 40.6992 8.76508C41.1929 8.76508 41.5933 9.16552 41.5933 9.65988Z" fill="#CAEB0E"/>
<path d="M48.7989 10.3278C48.7989 11.1332 48.146 11.7861 47.3406 11.7861C46.5352 11.7861 45.8823 11.1332 45.8823 10.3278C45.8823 9.52239 46.5352 8.86951 47.3406 8.86951C48.146 8.86876 48.7989 9.52164 48.7989 10.3278Z" fill="#CAEB0E"/>
<path d="M54.7733 9.91535C54.7733 10.448 54.3413 10.88 53.8087 10.88C53.276 10.88 52.844 10.448 52.844 9.91535C52.844 9.38268 53.276 8.95068 53.8087 8.95068C54.3413 8.95068 54.7733 9.38268 54.7733 9.91535Z" fill="#CAEB0E"/>
<path d="M65.6842 2.068C65.6842 2.8486 65.0509 3.48195 64.2703 3.48195C63.4889 3.48195 62.8563 2.8486 62.8563 2.068C62.8563 1.2874 63.4889 0.654053 64.2703 0.654053C65.0516 0.654053 65.6842 1.28665 65.6842 2.068Z" fill="#CAEB0E"/>
<path d="M69.7835 2.06951C69.7835 2.76972 69.2163 3.33696 68.5161 3.33696C67.8158 3.33696 67.2479 2.76972 67.2479 2.06951C67.2479 1.36929 67.8151 0.802063 68.5161 0.802063C69.2163 0.802063 69.7835 1.36929 69.7835 2.06951Z" fill="#CAEB0E"/>
<path d="M83.0041 7.72232C83.0041 8.60134 82.2918 9.31358 81.4121 9.31358C80.533 9.31358 79.8208 8.60059 79.8208 7.72232C79.8208 6.84329 80.533 6.13031 81.4121 6.13031C82.2918 6.13031 83.0041 6.84254 83.0041 7.72232Z" fill="#CAEB0E"/>
<path d="M94.2089 13.735C94.2089 14.4532 93.6267 15.0362 92.9084 15.0362C92.1902 15.0362 91.6072 14.454 91.6072 13.735C91.6072 13.0167 92.1894 12.4337 92.9084 12.4337C93.6259 12.4345 94.2089 13.0167 94.2089 13.735Z" fill="#CAEB0E"/>
<path d="M112.669 24.7829C112.669 25.4756 112.107 26.0375 111.414 26.0375C110.721 26.0375 110.159 25.4756 110.159 24.7829C110.159 24.0902 110.721 23.5282 111.414 23.5282C112.107 23.5289 112.669 24.0902 112.669 24.7829Z" fill="#CAEB0E"/>
<path d="M107.803 84.298C107.803 84.7841 107.41 85.1778 106.923 85.1778C106.437 85.1778 106.044 84.7841 106.044 84.298C106.044 83.8119 106.437 83.4182 106.923 83.4182C107.41 83.4182 107.803 83.8119 107.803 84.298Z" fill="#CAEB0E"/>
<path d="M98.1481 76.3913C98.1481 76.9315 97.7101 77.3695 97.1699 77.3695C96.6297 77.3695 96.1917 76.9315 96.1917 76.3913C96.1917 75.8511 96.6297 75.4124 97.1699 75.4124C97.7101 75.4124 98.1481 75.8504 98.1481 76.3913Z" fill="#CAEB0E"/>
<path d="M92.4805 85.1319C92.4805 85.9554 91.8133 86.6225 90.9899 86.6225C90.1665 86.6225 89.4993 85.9554 89.4993 85.1319C89.4993 84.3085 90.1672 83.6414 90.9899 83.6414C91.8133 83.6414 92.4805 84.3093 92.4805 85.1319Z" fill="#CAEB0E"/>
<path d="M82.4378 93.6862C82.4378 94.5405 81.7451 95.2339 80.8901 95.2339C80.0351 95.2339 79.3424 94.5412 79.3424 93.6862C79.3424 92.8312 80.0351 92.1385 80.8901 92.1385C81.7451 92.1385 82.4378 92.8312 82.4378 93.6862Z" fill="#CAEB0E"/>
<path d="M73.1394 88.1244C73.1394 88.6863 72.6841 89.1416 72.1221 89.1416C71.5602 89.1416 71.1049 88.6863 71.1049 88.1244C71.1049 87.5624 71.5602 87.1071 72.1221 87.1071C72.6841 87.1071 73.1394 87.5624 73.1394 88.1244Z" fill="#CAEB0E"/>
<path d="M56.8056 88.1972C56.8056 88.7975 56.3187 89.2844 55.7184 89.2844C55.1181 89.2844 54.6313 88.7975 54.6313 88.1972C54.6313 87.5969 55.1181 87.1101 55.7184 87.1101C56.3187 87.1101 56.8056 87.5969 56.8056 88.1972Z" fill="#CAEB0E"/>
<path d="M45.627 92.9199C45.627 93.6329 45.0493 94.2114 44.3363 94.2114C43.6233 94.2114 43.0455 93.6336 43.0455 92.9199C43.0455 92.2069 43.6233 91.6292 44.3363 91.6292C45.0493 91.6292 45.627 92.2069 45.627 92.9199Z" fill="#CAEB0E"/>
<path d="M26.5275 79.2688C26.5275 80.0291 25.9114 80.6459 25.1511 80.6459C24.3908 80.6459 23.774 80.0291 23.774 79.2688C23.774 78.5085 24.3901 77.8924 25.1511 77.8924C25.9114 77.8916 26.5275 78.5085 26.5275 79.2688Z" fill="#CAEB0E"/>
<path d="M16.1723 83.8675C16.1723 84.2311 15.877 84.5256 15.5134 84.5256C15.1497 84.5256 14.8552 84.2311 14.8552 83.8675C14.8552 83.5039 15.1497 83.2094 15.5134 83.2094C15.877 83.2094 16.1723 83.5046 16.1723 83.8675Z" fill="#CAEB0E"/>
<path d="M6.44437 82.8442C6.44437 83.3055 6.07023 83.6797 5.60893 83.6797C5.14763 83.6797 4.77423 83.3055 4.77423 82.8442C4.77423 82.3829 5.14838 82.0088 5.60893 82.0088C6.07098 82.0088 6.44437 82.3829 6.44437 82.8442Z" fill="#CAEB0E"/>
</svg>
