<svg width="20" height="20" viewBox="0 0 20 20" fill="none" xmlns="http://www.w3.org/2000/svg">
<g clip-path="url(#clip0_813_2687)">
<path d="M11.5167 14.3342C11.6542 15.0108 11.2167 15.6708 10.54 15.8083C10.4558 15.8258 10.3725 15.8333 10.29 15.8333C9.7075 15.8333 9.18667 15.425 9.06583 14.8325C8.66667 12.8642 7.13583 11.3333 5.1675 10.9333C4.49083 10.7958 4.05417 10.1367 4.19083 9.45917C4.32833 8.7825 4.98667 8.34333 5.665 8.48333C8.61917 9.08333 10.9167 11.38 11.5167 14.3342ZM5.41667 13.3333C4.72667 13.3333 4.16667 13.8933 4.16667 14.5833C4.16667 15.2733 4.72667 15.8333 5.41667 15.8333C6.10667 15.8333 6.66667 15.2733 6.66667 14.5833C6.66667 13.8933 6.10667 13.3333 5.41667 13.3333ZM20 4.58333V15.4167C20 17.9433 17.9442 20 15.4167 20H4.58333C2.05583 20 0 17.9433 0 15.4167V4.58333C0 2.05667 2.05583 0 4.58333 0H15.4167C17.9442 0 20 2.05667 20 4.58333ZM17.5 4.58333C17.5 3.43417 16.565 2.5 15.4167 2.5H4.58333C3.435 2.5 2.5 3.43417 2.5 4.58333V15.4167C2.5 16.5658 3.435 17.5 4.58333 17.5H15.4167C16.565 17.5 17.5 16.5658 17.5 15.4167V4.58333ZM5.565 4.25C4.87917 4.165 4.2575 4.65667 4.17583 5.34333C4.09333 6.02833 4.58333 6.65 5.26833 6.7325C9.47917 7.23583 12.7692 10.5292 13.2692 14.74C13.345 15.3758 13.9592 15.8333 14.5842 15.8333C15.4175 15.8333 15.8342 15.13 15.7525 14.445C15.1158 9.0825 10.9258 4.89083 5.565 4.25Z" fill="#96A1AE"/>
</g>
<defs>
<clipPath id="clip0_813_2687">
<rect width="20" height="20" fill="white"/>
</clipPath>
</defs>
</svg>
