<svg width="20" height="20" viewBox="0 0 20 20" fill="none" xmlns="http://www.w3.org/2000/svg">
<g clip-path="url(#clip0_813_2705)">
<path d="M18.9371 5.2524L10.1871 0.877402C10.0698 0.818861 9.93148 0.818861 9.8144 0.877402L1.0644 5.2524C0.923151 5.32303 0.833984 5.46719 0.833984 5.62511V14.3751C0.833984 14.533 0.923151 14.6772 1.06419 14.7478L9.81419 19.1228C9.87294 19.1522 9.93669 19.1668 10.0007 19.1668C10.0646 19.1668 10.1284 19.1522 10.1871 19.1228L18.9371 14.7478C19.0782 14.6772 19.1673 14.533 19.1673 14.3751V5.62511C19.1673 5.46719 19.0782 5.32303 18.9371 5.2524ZM10.0007 1.71594L17.819 5.62511L16.1465 6.46136L8.32836 2.55219L10.0007 1.71594ZM12.8132 8.12803L4.99482 4.21886L7.39648 3.01803L15.2148 6.92719L12.8132 8.12803ZM13.1257 8.90344L15.6257 7.65344V10.7528L14.8261 10.1818C14.7354 10.117 14.6221 10.0914 14.5123 10.1103C14.4025 10.1297 14.3048 10.192 14.2413 10.2837L13.1257 11.8955V8.90344ZM4.06315 4.68469L11.8813 8.59386L10.0007 9.53428L2.18232 5.62511L4.06315 4.68469ZM1.66732 6.29928L9.58398 10.2576V18.0757L1.66732 14.1174V6.29928ZM10.4173 18.0759V10.2576L12.2923 9.32011V13.2293C12.2923 13.4116 12.4107 13.5726 12.5846 13.627C12.6259 13.6399 12.6675 13.6459 12.709 13.6459C12.8432 13.6459 12.9723 13.5809 13.0517 13.4666L14.6861 11.1059L15.8004 11.9018C15.9275 11.9924 16.0946 12.0047 16.2332 11.933C16.3717 11.8618 16.459 11.7187 16.459 11.5626V7.23678L18.334 6.29928V14.1174L10.4173 18.0759Z" fill="#96A1AE"/>
</g>
<defs>
<clipPath id="clip0_813_2705">
<rect width="20" height="20" fill="white"/>
</clipPath>
</defs>
</svg>
