<svg width="37" height="45" viewBox="0 0 37 45" fill="none" xmlns="http://www.w3.org/2000/svg">
<circle cx="29.3482" cy="7.8084" r="5.03062" stroke="#020C12" stroke-width="4"/>
<path d="M34.3789 37.9369C34.3789 40.7152 32.1266 42.9675 29.3482 42.9675C26.5699 42.9675 24.3176 40.7152 24.3176 37.9369C24.3176 35.1585 26.5699 32.9062 29.3482 32.9062C32.1266 32.9062 34.3789 35.1585 34.3789 37.9369Z" stroke="#020C12" stroke-width="4"/>
<path d="M12.2834 22.8709C12.2834 25.6492 10.0311 27.9015 7.25279 27.9015C4.47445 27.9015 2.22217 25.6492 2.22217 22.8709C2.22217 20.0926 4.47445 17.8403 7.25279 17.8403C10.0311 17.8403 12.2834 20.0926 12.2834 22.8709Z" stroke="#020C12" stroke-width="4"/>
<path d="M11.1588 20.9786L26.3399 10.8194" stroke="#020C12" stroke-width="4"/>
<path d="M10.2699 24.8825L26.3399 35.9307" stroke="#020C12" stroke-width="4"/>
</svg>
