<svg width="20" height="18" viewBox="0 0 20 18" fill="none" xmlns="http://www.w3.org/2000/svg">
<path d="M9.04908 1.13359C9.34843 0.212284 10.6518 0.212283 10.9512 1.13359L12.4233 5.66439C12.5572 6.07642 12.9412 6.35538 13.3744 6.35538H18.1384C19.1071 6.35538 19.5099 7.59499 18.7261 8.16439L14.872 10.9646C14.5215 11.2192 14.3749 11.6706 14.5087 12.0826L15.9809 16.6134C16.2802 17.5347 15.2258 18.3009 14.442 17.7314L10.5879 14.9313C10.2374 14.6766 9.76284 14.6766 9.41235 14.9313L5.55822 17.7314C4.77451 18.3009 3.72003 17.5347 4.01938 16.6134L5.49152 12.0826C5.6254 11.6706 5.47874 11.2192 5.12825 10.9646L1.27413 8.1644C0.490412 7.59499 0.893187 6.35538 1.86191 6.35538H6.62588C7.0591 6.35538 7.44306 6.07642 7.57693 5.66439L9.04908 1.13359Z" fill="black"/>
</svg>
