<svg width="32" height="32" viewBox="0 0 32 32" fill="none" xmlns="http://www.w3.org/2000/svg">
<rect width="32" height="32" rx="16" fill="white" fill-opacity="0.05"/>
<rect x="0.5" y="0.5" width="31" height="31" rx="15.5" stroke="white" stroke-opacity="0.08"/>
<path d="M23.9454 13.3155L22.4481 11.7275C22.3273 11.6011 22.1662 11.5273 21.9967 11.5207C21.8271 11.514 21.6613 11.575 21.532 11.6915C21.3324 11.8717 21.0763 11.9658 20.8144 11.9551C20.5524 11.9445 20.3039 11.8298 20.1179 11.634C19.9333 11.4367 19.8253 11.1731 19.8152 10.8954C19.8051 10.6177 19.8938 10.3461 20.0636 10.1345C20.1735 9.99735 20.231 9.82153 20.2247 9.64168C20.2184 9.46183 20.1488 9.291 20.0297 9.16288L18.531 7.57307C18.4044 7.439 18.2328 7.36371 18.0538 7.36371C17.8749 7.36371 17.7033 7.439 17.5766 7.57307L15.1898 10.1042C15.0424 10.2611 14.9313 10.452 14.8651 10.662C14.8522 10.7024 14.8307 10.7391 14.8023 10.7692C14.7738 10.7994 14.7393 10.8221 14.7012 10.8358C14.5031 10.906 14.3231 11.024 14.1753 11.1806L8.05457 17.6722C7.92817 17.8065 7.85718 17.9886 7.85718 18.1783C7.85718 18.3681 7.92817 18.5501 8.05457 18.6845L9.55354 20.2725C9.67434 20.3989 9.83541 20.4727 10.005 20.4793C10.1746 20.486 10.3403 20.425 10.4696 20.3085C10.6687 20.1268 10.9252 20.0317 11.1877 20.0421C11.4501 20.0526 11.6992 20.1679 11.8849 20.3648C12.0706 20.5618 12.1793 20.8259 12.1891 21.1043C12.199 21.3827 12.1093 21.6547 11.938 21.8659C11.8281 22.003 11.7706 22.1788 11.7769 22.3587C11.7832 22.5385 11.8528 22.7094 11.972 22.8375L13.4692 24.4255C13.5959 24.5596 13.7675 24.6349 13.9464 24.6349C14.1254 24.6349 14.297 24.5596 14.4236 24.4255L20.5444 17.9338C20.6919 17.7772 20.8031 17.5864 20.8694 17.3764C20.8822 17.3359 20.9037 17.2991 20.9322 17.2689C20.9607 17.2387 20.9954 17.2159 21.0336 17.2023C21.2315 17.132 21.4114 17.0142 21.5592 16.8579L23.9457 14.3263C24.0716 14.192 24.1423 14.0103 24.1423 13.8209C24.1422 13.6314 24.0714 13.4497 23.9454 13.3155ZM16.1971 12.2486C16.1467 12.3021 16.0868 12.3445 16.021 12.3734C15.9551 12.4024 15.8845 12.4173 15.8132 12.4173C15.7419 12.4173 15.6713 12.4024 15.6054 12.3734C15.5395 12.3445 15.4797 12.3021 15.4293 12.2486L15.0388 11.8344C14.9394 11.7259 14.8844 11.5803 14.8854 11.429C14.8865 11.2778 14.9437 11.1331 15.0445 11.0261C15.1454 10.9192 15.2818 10.8587 15.4244 10.8576C15.567 10.8565 15.7043 10.915 15.8066 11.0204L16.1971 11.4342C16.2475 11.4877 16.2875 11.5512 16.3148 11.621C16.3421 11.6909 16.3561 11.7658 16.3561 11.8414C16.3561 11.917 16.3421 11.9919 16.3148 12.0618C16.2875 12.1316 16.2475 12.1951 16.1971 12.2486ZM17.6899 13.8319C17.5882 13.9398 17.4501 14.0004 17.3062 14.0004C17.1623 14.0004 17.0243 13.9398 16.9225 13.8319L16.5493 13.4361C16.4989 13.3826 16.4589 13.3191 16.4316 13.2493C16.4043 13.1794 16.3903 13.1045 16.3903 13.0289C16.3903 12.9533 16.4043 12.8784 16.4316 12.8086C16.4589 12.7387 16.4989 12.6752 16.5493 12.6217C16.6511 12.5138 16.7892 12.4531 16.9332 12.4531C17.0045 12.4531 17.0751 12.468 17.1409 12.4969C17.2068 12.5259 17.2667 12.5683 17.3171 12.6217L17.6903 13.0176C17.7409 13.071 17.781 13.1346 17.8084 13.2045C17.8359 13.2745 17.85 13.3495 17.85 13.4252C17.85 13.501 17.836 13.576 17.8086 13.6459C17.7813 13.7159 17.7412 13.7795 17.6906 13.833L17.6899 13.8319ZM19.1828 15.4152C19.1324 15.4687 19.0725 15.5111 19.0067 15.5401C18.9408 15.569 18.8702 15.5839 18.7989 15.5839C18.7276 15.5839 18.657 15.569 18.5911 15.5401C18.5253 15.5111 18.4654 15.4687 18.415 15.4152L18.0418 15.0194C17.9425 14.9109 17.8874 14.7653 17.8885 14.614C17.8895 14.4628 17.9467 14.3181 18.0475 14.2112C18.1484 14.1042 18.2849 14.0437 18.4275 14.0426C18.5701 14.0416 18.7073 14.1 18.8096 14.2054L19.1828 14.6013C19.2335 14.6546 19.2738 14.7181 19.3014 14.788C19.329 14.858 19.3432 14.933 19.3434 15.0088C19.3435 15.0846 19.3296 15.1597 19.3023 15.2297C19.2751 15.2998 19.235 15.3634 19.1845 15.417L19.1828 15.4152ZM20.6903 17.018C20.6398 17.0715 20.58 17.1139 20.5141 17.1429C20.4483 17.1718 20.3777 17.1867 20.3064 17.1867C20.2351 17.1867 20.1645 17.1718 20.0986 17.1429C20.0327 17.1139 19.9729 17.0715 19.9225 17.018L19.5343 16.6042C19.4828 16.5509 19.4419 16.4873 19.4138 16.417C19.3857 16.3467 19.371 16.2713 19.3707 16.195C19.3703 16.1187 19.3843 16.043 19.4118 15.9725C19.4392 15.902 19.4796 15.8379 19.5306 15.7841C19.5816 15.7303 19.6422 15.6877 19.7088 15.659C19.7755 15.6302 19.8468 15.6157 19.9188 15.6165C19.9907 15.6172 20.0618 15.6331 20.1279 15.6632C20.194 15.6934 20.2538 15.7371 20.3038 15.792L20.6923 16.2055C20.7427 16.259 20.7827 16.3225 20.8099 16.3923C20.8372 16.4622 20.8512 16.5371 20.8512 16.6127C20.8511 16.6883 20.8371 16.7632 20.8097 16.8331C20.7824 16.9029 20.7424 16.9664 20.692 17.0198L20.6903 17.018Z" fill="#96A1AE"/>
</svg>
