<svg width="50" height="50" viewBox="0 0 50 50" fill="none" xmlns="http://www.w3.org/2000/svg">
<path d="M43.75 24.9996C43.7562 28.722 42.649 32.3612 40.5708 35.4496C38.857 38.0057 36.5397 40.1002 33.824 41.5478C31.1082 42.9955 28.0775 43.7517 25 43.7496C21.9225 43.7517 18.8918 42.9955 16.1761 41.5478C13.4603 40.1002 11.143 38.0057 9.42917 35.4496C7.79735 33.0171 6.75813 30.2361 6.3948 27.3296C6.03148 24.4232 6.35416 21.472 7.33697 18.7127C8.31979 15.9533 9.93541 13.4627 12.0543 11.4403C14.1732 9.41793 16.7365 7.92012 19.5386 7.06693C22.3407 6.21375 25.3037 6.02892 28.1901 6.52728C31.0765 7.02563 33.806 8.1933 36.1598 9.93668C38.5136 11.6801 40.4262 13.9507 41.7443 16.5664C43.0624 19.1822 43.7493 22.0704 43.75 24.9996Z" stroke="#CAEB0E" stroke-width="1.875"/>
<path d="M27.6068 18.7497C27.6068 20.1872 26.4401 21.3538 25.0026 21.3538V24.4788C26.5221 24.4788 27.9793 23.8752 29.0537 22.8008C30.1282 21.7264 30.7318 20.2691 30.7318 18.7497H27.6068ZM25.0026 21.3538C23.5651 21.3538 22.3984 20.1872 22.3984 18.7497H19.2734C19.2734 20.2691 19.877 21.7264 20.9515 22.8008C22.0259 23.8752 23.4831 24.4788 25.0026 24.4788V21.3538ZM22.3984 18.7497C22.3984 17.3122 23.5651 16.1455 25.0026 16.1455V13.0205C23.4831 13.0205 22.0259 13.6241 20.9515 14.6985C19.877 15.773 19.2734 17.2302 19.2734 18.7497H22.3984ZM25.0026 16.1455C26.4401 16.1455 27.6068 17.3122 27.6068 18.7497H30.7318C30.7318 17.2302 30.1282 15.773 29.0537 14.6985C27.9793 13.6241 26.5221 13.0205 25.0026 13.0205V16.1455ZM10.7651 37.1997L9.26719 36.7538L9.02344 37.5705L9.57969 38.2163L10.7651 37.1997ZM39.2401 37.1997L40.4276 38.2184L40.9818 37.5726L40.738 36.7538L39.2401 37.1997ZM18.7526 32.8122H31.2526V29.6872H18.7526V32.8122ZM18.7526 29.6872C16.6216 29.6873 14.5474 30.375 12.8385 31.6482C11.1296 32.9213 9.87708 34.7119 9.26719 36.7538L12.263 37.6455C12.6808 36.2489 13.5379 35.0243 14.707 34.1536C15.8761 33.2829 17.2949 32.8124 18.7526 32.8122V29.6872ZM25.0026 42.1872C22.5222 42.19 20.0708 41.6547 17.8174 40.6181C15.564 39.5815 13.5623 38.0683 11.9505 36.183L9.57969 38.2163C11.4848 40.4434 13.8502 42.2329 16.5128 43.4576C19.1754 44.6822 22.0719 45.315 25.0026 45.3122V42.1872ZM31.2526 32.8122C34.3151 32.8122 36.9089 34.8497 37.7422 37.6455L40.738 36.7538C40.1281 34.7119 38.8756 32.9213 37.1667 31.6482C35.4578 30.375 33.3836 29.6873 31.2526 29.6872V32.8122ZM38.0547 36.183C36.4429 38.0683 34.4412 39.5815 32.1878 40.6181C29.9345 41.6547 27.483 42.19 25.0026 42.1872V45.3122C27.9333 45.315 30.8298 44.6822 33.4924 43.4576C36.155 42.2329 38.5225 40.4455 40.4276 38.2184L38.0547 36.183Z" fill="#CAEB0E"/>
</svg>
