<svg width="125" height="91" viewBox="0 0 125 91" fill="none" xmlns="http://www.w3.org/2000/svg">
<g clip-path="url(#clip0_16_12942)">
<path d="M15.4191 71.3313C14.9071 71.9373 14.3952 72.5375 13.8794 73.1378C19.0632 73.1889 24.2525 73.3783 29.4382 73.5317C30.2306 72.53 31.0174 71.5226 31.8004 70.519C32.5458 69.5627 33.3062 68.6159 34.0704 67.671C30.5336 67.6407 26.9969 67.6142 23.4601 67.601C21.8545 67.5953 20.2396 67.5385 18.6265 67.5139C17.5461 68.7769 16.4901 70.0645 15.421 71.3313H15.4191Z" fill="#46F8C5"/>
<path d="M36.3533 66.5216C37.8591 66.5292 39.363 66.5349 40.8688 66.5481C43.4381 66.5728 46.0092 66.5879 48.5785 66.5917C49.0378 65.2075 49.4782 63.8176 49.8114 62.3879C49.9394 61.8369 50.0674 61.284 50.1973 60.7329C47.1838 60.6818 44.1703 60.6023 41.1681 60.4584C39.6227 62.5243 37.9965 64.5277 36.3552 66.5178L36.3533 66.5216Z" fill="#46F8C5"/>
<path d="M32.2501 63.1056C32.0713 63.3044 31.8642 63.3536 31.6722 63.3139C31.5235 63.3593 31.3504 63.3252 31.2826 63.1624C30.7631 61.9297 29.534 60.928 28.6926 59.8657C28.6286 59.8941 28.5552 59.9092 28.4724 59.9092C27.567 59.9073 26.6598 59.8979 25.7544 59.8884C24.3446 61.6153 22.7033 63.0999 21.1485 64.7095C20.5707 65.3059 20.0135 65.9232 19.462 66.5481C21.3575 66.5311 23.2529 66.514 25.1483 66.5065C28.4347 66.4951 31.7193 66.5008 35.0057 66.514C36.647 64.4917 38.2921 62.4731 39.8544 60.394C38.2018 60.3031 36.5529 60.1914 34.9097 60.0474C34.074 61.0643 33.1856 62.0641 32.2501 63.1056ZM34.7949 62.9087C34.0608 64.0543 32.9616 64.8515 32.0242 65.8134C31.8642 65.9782 31.6402 65.8191 31.6327 65.6392C30.6671 64.7947 29.9067 63.7343 28.8959 62.9371C28.7811 62.8462 28.8959 62.6511 29.0182 62.7401C30.0535 63.4938 30.9683 64.4008 31.9113 65.2681C32.7865 64.433 33.7916 63.7096 34.4994 62.7231C34.6293 62.5413 34.9172 62.7174 34.7949 62.9087ZM35.497 60.8465C34.1719 61.9372 33.2985 63.4483 32.028 64.5883C31.8567 64.7435 31.6384 64.5655 31.6722 64.3856C30.2775 63.1643 29.0446 61.8047 28.0903 60.2065C28.0357 60.1175 28.1769 60.0115 28.239 60.0986C29.2987 61.5604 30.5711 62.8765 31.9433 64.0429C33.0331 62.8821 34.0251 61.6002 35.2956 60.6345C35.4424 60.5227 35.64 60.7253 35.4932 60.8465H35.497Z" fill="#46F8C5"/>
<path d="M60.9941 66.5387C60.8774 64.647 60.7456 62.761 60.548 60.8769C57.5194 60.8276 54.4833 60.7992 51.4454 60.7538C51.1706 61.8824 50.9089 63.0166 50.5946 64.1395C50.365 64.9632 50.1033 65.7794 49.8285 66.5898C51.9988 66.5898 54.1671 66.5822 56.3374 66.5614C57.8883 66.5463 59.4412 66.533 60.9922 66.5368L60.9941 66.5387Z" fill="#46F8C5"/>
<path d="M32.5719 71.142C31.9244 71.9486 31.2751 72.761 30.6219 73.5676C33.9272 73.6623 37.2286 73.7362 40.5245 73.7437C42.4575 73.7475 44.3887 73.757 46.3218 73.7702C46.7284 72.3936 47.1368 71.0189 47.5697 69.6498C47.7674 69.0249 47.9744 68.4057 48.1815 67.7865C45.1906 67.7752 42.1997 67.7486 39.2088 67.7183C37.9383 67.7051 36.6677 67.6956 35.3953 67.6843C34.4467 68.8337 33.4999 69.9831 32.5701 71.142H32.5719Z" fill="#46F8C5"/>
<path d="M7.36679 80.3827C12.7463 80.4111 18.1314 80.5417 23.5071 80.6137C24.3259 79.5609 25.2332 78.5724 26.1178 77.5593C26.9178 76.6409 27.6933 75.6998 28.4612 74.7512C23.2662 74.6508 18.0693 74.4955 12.878 74.2948C11.0786 76.3626 9.24716 78.3925 7.36867 80.3827H7.36679Z" fill="#46F8C5"/>
<path d="M69.4042 66.7431C69.3044 66.5841 69.2028 66.425 69.1068 66.2641C68.0377 64.4936 66.978 62.7136 65.939 60.9223C65.8561 60.9658 65.7601 60.9942 65.6416 60.9904C64.2995 60.9507 62.9556 60.9204 61.6098 60.8958C61.7924 62.7742 61.9166 64.6583 62.0258 66.5443C62.7824 66.55 63.5391 66.5614 64.2939 66.5822C66.0105 66.6276 67.7102 66.5254 69.4023 66.7431H69.4042Z" fill="#46F8C5"/>
<path d="M62.4097 73.9918C66.4754 73.8631 70.5881 73.3082 74.5785 74.1925C73.1592 72.1323 71.6365 70.1232 70.27 68.0819C70.2154 68.0838 70.157 68.0819 70.0968 68.0687C67.5407 67.5063 64.7154 67.743 62.0972 67.7411C62.1443 68.5553 62.1895 69.3715 62.2422 70.1857C62.3212 71.4506 62.3589 72.7212 62.4116 73.9899L62.4097 73.9918Z" fill="#46F8C5"/>
<path d="M62.0879 80.0683C61.9599 78.9379 61.7547 77.8131 61.6531 76.6637C61.606 76.124 61.5627 75.5824 61.5232 75.0409C60.4014 75.0882 59.2908 75.1147 58.1972 75.0863C54.4685 74.9916 50.7397 74.9405 47.011 74.9083C46.4858 76.5046 45.955 78.1009 45.445 79.701C45.3715 79.9301 45.2963 80.1725 45.2153 80.4187C50.5967 80.2842 55.9762 80.1327 61.3613 80.0683C61.6041 80.0665 61.845 80.0683 62.0879 80.0683Z" fill="#46F8C5"/>
<path d="M44.3609 80.4414C44.7034 79.4453 44.9312 78.4001 45.2418 77.3889C45.4959 76.5614 45.7424 75.732 45.989 74.9007C43.8828 74.8856 41.7746 74.8761 39.6684 74.8723C36.3255 74.8685 32.9807 74.8326 29.636 74.7739C28.8228 75.7566 27.9947 76.7261 27.1326 77.6597C26.214 78.6557 25.2315 79.612 24.3186 80.6231C25.4818 80.6383 26.647 80.6497 27.8102 80.6553C33.3327 80.6856 38.8496 80.5739 44.3646 80.4395L44.3609 80.4414Z" fill="#46F8C5"/>
<path d="M96.4578 79.5646C96.1416 78.6993 95.7765 77.851 95.4809 76.961C95.2777 76.3531 95.1101 75.7377 94.9426 75.1185C91.5696 75.1507 88.1891 75.1545 84.8293 74.9897C84.69 75.2094 84.5545 75.4291 84.4152 75.6468C83.3592 77.3018 82.2299 78.8886 81.2379 80.572C85.6593 80.4793 90.0676 80.0608 94.4796 79.7086C95.1384 79.6555 95.799 79.6082 96.4578 79.5646Z" fill="#46F8C5"/>
<path d="M62.5886 50.7708C63.3773 50.1421 64.2092 49.5949 65.107 49.237C65.4684 49.0931 65.7489 49.5684 65.4007 49.7804C64.6666 50.2273 63.972 50.7026 63.2888 51.1912C63.1664 51.2802 63.0384 51.3635 62.9161 51.4544C63.0384 51.7043 63.1646 51.9524 63.2869 52.2004C63.7895 51.8369 64.2977 51.5036 64.7965 51.1987C64.868 51.1533 64.9433 51.1041 65.0148 51.0605C65.1917 50.9545 65.3724 51.0529 65.459 51.2006C65.5324 51.3256 65.5381 51.4884 65.4044 51.6002C64.8492 52.0698 64.2262 52.4599 63.6182 52.8632C63.6521 52.9295 63.6859 52.9938 63.7198 53.0601C66.1686 57.9172 68.8659 62.6417 71.6573 67.3075C73.8445 70.964 76.7582 74.4501 78.4842 78.4058C81.6916 71.443 86.7417 65.6544 91.3796 59.6252C93.0021 57.5157 94.5832 55.3211 96.0513 53.045C96.5294 52.3046 96.9962 51.5547 97.448 50.7954C99.6389 47.1181 101.485 43.2381 102.684 39.1631C105.845 28.4246 102.914 15.1316 93.2392 8.63095C82.6139 1.49213 67.4128 5.10888 60.5012 15.7906C53.7966 26.1561 56.8383 38.4227 61.67 48.8488C61.9693 49.4926 62.2761 50.1326 62.5829 50.7708H62.5886ZM68.721 59.2976C69.2744 57.9569 69.9332 56.6504 70.5374 55.3305C70.5938 55.2075 70.8084 55.3059 70.7538 55.4309C70.1665 56.7545 69.6583 58.1368 68.9826 59.4188C68.9054 59.5646 68.657 59.451 68.721 59.2976ZM69.4758 60.358C70.0894 59.0382 70.6992 57.6786 71.4183 56.4156C71.5124 56.2508 71.7589 56.4061 71.6667 56.5727C70.9609 57.8452 70.5374 59.3071 69.7261 60.5171C69.6169 60.6818 69.3948 60.5284 69.4739 60.358H69.4758ZM69.9896 62.0319C70.5148 60.4016 71.5726 59.0098 72.0413 57.3434C72.0733 57.2317 72.2389 57.2847 72.2126 57.3964C71.8154 59.042 70.9891 60.6401 70.24 62.1474C70.1684 62.2914 69.9426 62.1796 69.9896 62.0319ZM71.247 62.8613C71.1811 62.9939 70.9816 62.8897 71.0192 62.7553C71.3994 61.3786 72.382 60.3012 72.5947 58.8412C72.6041 58.7731 72.7001 58.7731 72.702 58.845C72.749 60.2141 71.8399 61.6778 71.247 62.8594V62.8613ZM71.8455 64.0656C72.2446 62.7818 72.9241 61.6267 73.1857 60.2917C73.2064 60.1838 73.3909 60.2141 73.3777 60.3239C73.2064 61.6494 72.6587 62.9352 72.1316 64.1546C72.0563 64.327 71.7891 64.255 71.8474 64.0656H71.8455ZM72.7283 65.3211C73.0991 64.1073 73.6299 62.939 74.0873 61.7555C74.1569 61.5756 74.443 61.6608 74.3753 61.8445C73.933 63.0355 73.4906 64.2285 73.0502 65.4214C72.9749 65.6259 72.6624 65.5332 72.7283 65.3211ZM73.3645 66.8965C73.4304 65.9687 73.8802 65.0352 74.2567 64.1982C74.3452 64.0031 74.6689 64.0978 74.5786 64.2985C74.1965 65.1677 73.9687 66.0539 73.6676 66.9458C73.613 67.1086 73.3513 67.0764 73.3645 66.8946V66.8965ZM74.315 68.5402C74.4656 67.3188 74.8722 66.1259 75.1225 64.9215C75.1639 64.7208 75.4613 64.8174 75.4218 65.0143C75.1903 66.2054 74.9456 67.423 74.6181 68.5913C74.571 68.7579 74.2925 68.7182 74.315 68.5402ZM75.1677 69.8543C75.2091 68.8659 75.514 67.8282 75.787 66.8814C75.8472 66.6693 76.1709 66.7697 76.1126 66.9818C75.8491 67.9399 75.7644 68.9624 75.4613 69.9036C75.4086 70.0645 75.1602 70.0266 75.1677 69.8543ZM76.1634 71.2764C76.122 71.4639 75.8265 71.409 75.8359 71.2215C75.8848 70.2482 76.2218 69.2938 76.4646 68.3565C76.521 68.1349 76.8542 68.241 76.7996 68.4606C76.5719 69.398 76.3705 70.3353 76.1615 71.2764H76.1634ZM77.1685 72.1569C77.1064 72.3255 76.8655 72.2857 76.8617 72.1058C76.8429 71.3332 77.1667 70.555 77.1949 69.7729C77.2043 69.5438 77.5563 69.5532 77.5488 69.7843C77.5281 70.5398 77.4264 71.4487 77.1685 72.1588V72.1569ZM78.1661 72.8348C78.1473 73.0734 77.8142 73.0583 77.801 72.8235C77.7803 72.4447 77.8066 72.0603 77.816 71.6816C77.8217 71.4449 78.1812 71.4563 78.1812 71.693C78.1812 72.0717 78.1963 72.4561 78.1661 72.8348ZM87.2725 47.9153C86.8923 48.1425 86.5723 47.5403 86.9469 47.3131C91.0972 44.7738 95.4283 40.9942 97.128 36.2583C97.2334 35.9667 97.6701 36.0993 97.5854 36.4004C96.168 41.4392 91.564 45.3419 87.2725 47.9153ZM97.719 32.5753C96.3657 40.1118 90.5175 46.2962 83.1391 48.0705C82.6967 48.1766 82.5311 47.4835 82.9734 47.3832C90.5175 45.6922 95.1008 39.538 97.416 32.4806C97.4818 32.2799 97.7548 32.3765 97.719 32.5753ZM85.4185 13.3422C89.5331 14.2151 93.7606 16.6635 95.752 20.5378C97.7962 24.5143 97.8338 29.2313 96.3807 33.4237C93.0924 42.9067 83.6153 49.1953 73.6337 45.7944C73.3005 45.6808 71.7909 44.8742 71.6705 44.6337C68.6212 43.4388 66.9893 41.3085 65.604 38.9794C63.0855 34.7492 62.8239 29.3657 64.5875 24.7832C67.7817 16.4893 76.6716 11.4884 85.4185 13.346V13.3422ZM79.9769 12.509C76.0712 13.1112 72.4987 13.9709 69.3139 16.4836C66.6091 18.6177 64.4238 21.2858 63.5768 24.6942C63.5203 24.9196 63.2003 24.8078 63.2417 24.5901C64.6986 16.6162 72.5815 12.7665 79.7962 11.7573C80.2818 11.6891 80.47 12.4333 79.9787 12.5109L79.9769 12.509ZM76.9973 11.0244C77.4697 10.9335 77.6485 11.6531 77.1742 11.7573C71.3147 13.0411 66.6825 15.9212 63.3773 20.9961C63.3189 21.0869 63.1589 21.0226 63.2003 20.9146C65.348 15.3437 71.4465 12.0924 76.9973 11.0225V11.0244Z" fill="#CAEB0E"/>
<path d="M83.3028 74.2891C83.7093 74.2626 84.114 74.2323 84.5206 74.2096C85.8739 72.1209 87.2536 70.0513 88.703 68.027C88.3642 68.0156 88.0253 68.0005 87.6865 67.9854C86.1356 70.0285 84.6486 72.1134 83.3028 74.2872V74.2891Z" fill="#46F8C5"/>
<path d="M94.6318 73.9918C94.4963 73.5071 94.357 73.0242 94.1914 72.547C93.6832 71.0719 93.0338 69.5892 92.6404 68.0668C91.5035 68.0763 90.3647 68.0668 89.2279 68.0403C87.8877 70.0551 86.6266 72.1191 85.3429 74.1698C88.4298 74.0221 91.5317 73.9956 94.6299 73.9899L94.6318 73.9918Z" fill="#46F8C5"/>
<path d="M61.4555 74.0126C61.3727 72.7307 61.3012 71.4487 61.2184 70.1686C61.1657 69.3601 61.1167 68.5515 61.0678 67.743C58.9484 67.7373 56.8308 67.7562 54.7133 67.7752C52.9496 67.7903 51.1841 67.7922 49.4204 67.7903C48.899 69.2768 48.3532 70.7594 47.877 72.2592C47.7151 72.7685 47.5457 73.2741 47.38 73.7816C51.5586 73.8157 55.7391 73.8763 59.9159 74.0051C60.4278 74.0202 60.9417 74.0221 61.4555 74.0145V74.0126Z" fill="#46F8C5"/>
<path d="M94.1295 59.7047C93.5272 60.5 92.9136 61.2915 92.2981 62.0774C92.9512 63.6812 93.0961 65.3343 93.4914 67.0083C96.616 66.8947 99.7424 66.8227 102.859 66.8057C103.27 66.8038 103.682 66.7905 104.094 66.7716C102.948 64.6261 101.839 62.4637 100.945 60.2065C98.6281 60.2576 96.3242 60.1705 94.1295 59.7028V59.7047Z" fill="#46F8C5"/>
<path d="M104.646 67.7979C103.759 67.849 102.876 67.8869 102.003 67.8945C99.2663 67.9172 96.5201 68.0138 93.7757 68.0535C94.1974 69.4813 94.7507 70.8674 95.21 72.2857C95.3926 72.85 95.5469 73.42 95.6956 73.9918C97.5045 73.9918 99.3114 73.9918 101.113 73.9786C103.362 73.9596 105.611 73.9464 107.861 73.9331C107.064 72.4202 106.308 70.8863 105.498 69.3772C105.216 68.8507 104.932 68.3262 104.65 67.7998L104.646 67.7979Z" fill="#46F8C5"/>
<path d="M97.3426 79.5116C101.779 79.2408 106.219 79.1518 110.663 79.1386C110.142 78.1539 109.664 77.1408 109.126 76.23C108.894 75.8361 108.676 75.4366 108.455 75.037C106.001 75.0465 103.545 75.056 101.09 75.0655C99.3924 75.0711 97.687 75.092 95.9798 75.109C96.1794 75.8835 96.3864 76.6542 96.6537 77.4097C96.9022 78.1141 97.1487 78.8072 97.3426 79.5097V79.5116Z" fill="#46F8C5"/>
<path d="M80.1406 80.2899C80.0897 80.411 80.022 80.5076 79.9486 80.5947C80.0822 80.5947 80.2177 80.589 80.3514 80.5871C81.4676 78.6368 82.804 76.8246 84.0406 74.9443C83.6736 74.9234 83.3065 74.9007 82.9395 74.8742C81.8948 76.6087 80.9462 78.4038 80.1406 80.2899Z" fill="#46F8C5"/>
<path d="M62.8764 80.0683C67.8587 80.0873 72.7996 80.4584 77.7801 80.5777C77.9664 80.5815 78.1509 80.5796 78.3353 80.5834C78.1377 80.3467 77.9344 80.0608 77.9325 79.8884C77.1213 78.1236 76.0954 76.4402 74.9849 74.7928C74.9303 75.0901 74.663 75.3684 74.2828 75.2832C70.4938 74.4368 66.4282 74.8004 62.4529 74.9992C62.5037 75.9877 62.5714 76.9723 62.6881 77.9513C62.7728 78.6652 62.8462 79.3696 62.8745 80.0683H62.8764Z" fill="#46F8C5"/>
<path d="M88.2533 67.2487C89.6405 67.173 91.0296 67.1067 92.4187 67.0499C92.1646 65.7017 91.9839 64.3515 91.5284 63.0601C90.431 64.4538 89.3318 65.8437 88.2533 67.2487Z" fill="#46F8C5"/>
<path d="M60.0736 53.0469C53.1977 53.0374 46.3105 53.1737 39.4215 53.257C39.0883 53.7872 38.7627 54.3231 38.4634 54.8761C37.5317 56.5935 36.4758 58.0933 35.3182 59.5418C37.1026 59.3998 38.8963 59.3033 40.6958 59.2502C41.2586 58.4795 41.812 57.7032 42.3428 56.9098C42.7437 56.3133 43.6999 56.8927 43.2952 57.493C42.9018 58.0743 42.499 58.6481 42.0905 59.2162C44.9064 59.1612 47.7335 59.1915 50.5626 59.2654C50.8355 58.2163 51.1404 57.1768 51.5263 56.158C51.8049 55.4195 52.9869 55.7641 52.7027 56.5064C52.3507 57.4229 52.0703 58.3584 51.818 59.2995C54.6866 59.3847 57.5551 59.504 60.4086 59.6119C60.2976 58.7068 60.1734 57.8035 60.019 56.9022C59.9004 56.2129 60.9545 55.9384 61.0693 56.6314C61.2368 57.6369 61.3705 58.6443 61.4853 59.6536C62.7558 59.7009 64.0226 59.7426 65.2837 59.7785C64.1882 57.8622 63.121 55.9289 62.1102 53.9671C61.5531 54.4027 61.0091 54.8514 60.4538 55.2945C60.2976 55.4195 60.019 55.2339 60.1639 55.054C60.6364 54.4689 61.2011 53.9028 61.809 53.3707C61.7545 53.2646 61.7018 53.1567 61.6491 53.0506C61.5926 53.0506 61.5361 53.0506 61.4796 53.0506C61.2745 53.0506 61.0674 53.0506 60.8623 53.0506C60.4293 53.3972 59.9964 53.7418 59.5616 54.0997C59.3583 54.2663 59.0798 53.9785 59.2793 53.7986C59.5428 53.5581 59.8082 53.3063 60.0774 53.0506L60.0736 53.0469Z" fill="#46F8C5"/>
<path d="M122.324 67.8017C118.009 63.3555 113.108 58.3678 110.96 52.3708C106.906 52.6568 102.842 52.848 98.7728 52.9711C97.5249 55.0389 96.1358 57.0177 94.6883 58.9567C96.6195 58.9795 98.5451 58.9586 100.469 58.9208C100.235 58.2599 100.017 57.5952 99.8288 56.9155C99.7723 56.7128 100.06 56.6522 100.134 56.8359C100.409 57.5384 100.706 58.2258 101.013 58.9094C103.789 58.8507 106.565 58.7655 109.359 58.7465C110.078 58.7409 110.057 59.8638 109.34 59.8676C106.848 59.8789 104.224 60.1042 101.604 60.1895C102.673 62.4125 103.874 64.5655 105.076 66.7204C108.562 66.5008 112.126 65.9857 115.519 66.8132C116.219 66.9836 115.896 68.0119 115.207 67.8793C112.088 67.2753 108.847 67.5347 105.641 67.7373C105.982 68.3527 106.323 68.9681 106.658 69.5892C107.435 71.0283 108.163 72.4902 108.945 73.9255C112.575 73.9047 116.206 73.8914 119.839 73.8952C120.552 73.8952 120.532 75.0049 119.82 75.0068C116.404 75.0105 112.99 75.0219 109.573 75.0352C109.711 75.2738 109.842 75.5142 109.985 75.749C110.62 76.7924 111.173 78.0062 111.807 79.1405C116.984 79.1405 122.16 79.2276 127.332 79.2332C128.078 79.2332 128.057 80.3959 127.312 80.394C122.382 80.3921 117.447 80.305 112.511 80.2842C112.76 80.6496 113.021 80.9981 113.311 81.3105C113.752 81.7858 113.037 82.4845 112.59 82.0111C112.107 81.498 111.693 80.9053 111.312 80.2804C106.737 80.2728 102.161 80.3315 97.5927 80.5815C97.6585 80.9375 97.7056 81.2972 97.7301 81.6665C97.7545 82.049 97.1221 82.1247 97.0619 81.746C97.0016 81.3635 96.9113 80.9924 96.8078 80.6288C95.7462 80.6913 94.6846 80.7614 93.6249 80.8485C89.3107 81.1969 84.9665 81.6267 80.6279 81.6646C80.4961 81.9108 80.3681 82.1569 80.2439 82.4088C80.0256 82.8519 79.3818 82.4429 79.5964 82.0017C79.651 81.888 79.7131 81.7782 79.7696 81.6665C78.8266 81.6627 77.8835 81.6457 76.9405 81.5983C72.2443 81.3541 67.5801 81.1193 62.8839 81.1193C62.8594 81.7574 62.7803 82.3936 62.6147 83.0375C62.5469 83.3063 62.0933 83.2457 62.1291 82.9617C62.2062 82.3406 62.2081 81.729 62.1761 81.1211C61.6227 81.1249 61.0712 81.1287 60.5179 81.1382C55.2833 81.2348 50.0488 81.3408 44.8161 81.4336C44.53 82.0187 44.1441 82.5338 43.5569 82.8008C43.4063 82.8689 43.1917 82.708 43.3122 82.5451C43.5681 82.1967 43.7752 81.8293 43.9559 81.4487C37.1158 81.568 30.2738 81.657 23.4337 81.6684C22.8633 82.3785 22.3401 83.1227 21.9128 83.9388C21.7942 84.1641 21.4855 83.9596 21.5834 83.7381C21.909 83.0015 22.3081 82.3217 22.7485 81.6703C17.273 81.6741 11.7976 81.6229 6.32396 81.4904C5.33765 82.5205 4.33817 83.5393 3.31987 84.5466C3.10906 84.7549 2.80226 84.4311 3.00366 84.2172C3.84691 83.3139 4.67322 82.3936 5.49388 81.4677C1.58067 81.3673 -2.33066 81.2253 -6.24198 81.0303C-6.49797 81.017 -6.48856 80.6459 -6.23446 80.6326C-2.01256 80.4262 2.21687 80.3694 6.45007 80.3826C8.20809 78.3641 9.92847 76.3095 11.6394 74.2512C8.75018 74.1357 5.8628 74.0088 2.97919 73.8706C2.61215 73.8536 2.62532 73.3158 2.9886 73.3006C6.17714 73.1586 9.37132 73.117 12.5712 73.134C13.2789 72.2819 13.9885 71.4317 14.6981 70.5833C15.547 69.5722 16.3808 68.5364 17.2279 67.512C16.5973 67.512 15.9686 67.5233 15.3418 67.5479C13.5142 67.6199 11.6865 67.7695 9.95482 67.0783C9.58402 66.9306 9.7346 66.3644 10.1318 66.4724C12.5185 67.1181 15.1837 66.5973 17.6307 66.5689C17.7605 66.5689 17.8923 66.5689 18.0222 66.5671C18.7901 65.6638 19.5769 64.7776 20.4051 63.9407C21.7377 62.5943 23.1212 61.3029 24.3691 59.8846C23.381 59.8732 22.3928 59.86 21.4046 59.8467C19.6936 59.8259 17.8659 59.9433 16.1964 59.5248C16.0533 59.4888 16.0627 59.2749 16.202 59.2408C18.1144 58.7617 20.247 58.9359 22.2083 58.9113C23.2078 58.898 24.2091 58.8848 25.2086 58.8753C25.346 58.7011 25.4853 58.5269 25.619 58.3451C26.0123 57.8092 26.8876 58.3129 26.5488 58.8639C27.0099 58.8602 27.4711 58.8564 27.9323 58.8526C27.4899 58.241 27.0645 57.6199 26.673 56.9742C25.9164 55.7301 25.1446 54.4992 24.3654 53.2741C20.023 53.2059 15.6863 53.0582 11.3552 52.7761C10.3106 55.944 8.16292 58.7939 6.10938 61.3275C3.50998 64.5333 0.566135 67.4343 -2.34948 70.3429C-5.17098 73.1567 -7.81931 76.1315 -10.6483 78.9359C-12.1316 80.4054 -13.6336 81.8596 -15.0886 83.3575C-16.3102 84.6167 -17.4094 86.2262 -18.7703 87.3132C-9.91991 87.2488 -1.06766 87.1238 7.7827 86.978C7.80529 86.9553 7.82788 86.9307 7.85046 86.906C8.48667 86.2603 9.42591 85.0617 10.4103 85.0655C10.7115 85.0655 10.9185 85.4253 10.7491 85.6847C10.431 86.1732 9.86071 86.3891 9.42027 86.7621C9.34497 86.8246 9.27533 86.8909 9.2038 86.9553C9.81742 86.9458 10.4292 86.9363 11.0428 86.925C11.871 86.0937 12.7575 85.2776 13.789 84.736C14.4704 84.3781 15.0124 85.3666 14.3687 85.7756C13.8134 86.1278 13.2902 86.5027 12.7801 86.8928C28.6513 86.6144 44.5206 86.2736 60.3899 86.0426C73.7595 85.8475 87.1348 87.3264 100.486 86.5898C112.775 85.9119 126.361 86.8265 138.673 86.836C133.911 81.1628 127.477 73.1113 122.331 67.8092L122.324 67.8017ZM110.424 53.6433C108.207 53.7929 105.971 53.7115 103.763 53.9368C103.64 53.9501 103.625 53.7551 103.738 53.7267C104.785 53.4578 105.861 53.4672 106.934 53.4502C108.105 53.4294 109.263 53.2703 110.432 53.2211C110.704 53.2097 110.691 53.6282 110.424 53.6452V53.6433ZM13.2544 53.4881C12.6897 54.9783 11.9011 56.3871 11.1519 57.7903C10.4555 59.095 9.74401 60.4299 8.79159 61.5661C8.73512 61.6324 8.63536 61.5453 8.67677 61.4733C10.1788 58.8318 11.6639 56.1694 12.8723 53.3744C12.9721 53.1434 13.3485 53.2419 13.2544 53.4881ZM6.25431 62.8083C7.05239 61.2915 8.15539 60.0134 9.11722 58.6083C10.1788 57.0594 10.9336 55.3419 11.5999 53.5884C11.6959 53.3366 12.0987 53.4502 12.0046 53.7077C11.406 55.3646 10.6889 57.0764 9.6706 58.5193C8.61843 60.0077 7.36296 61.3445 6.40112 62.8973C6.34278 62.992 6.20161 62.9049 6.25431 62.8064V62.8083ZM-6.95912 76.9079C-8.19012 78.7712 -9.97262 80.2387 -11.5744 81.7688C-12.3894 82.547 -13.1423 83.3859 -13.9536 84.166C-14.8119 84.9935 -15.706 85.7756 -16.4156 86.7413C-16.5699 86.9515 -16.9219 86.7413 -16.7638 86.5273C-15.482 84.7739 -13.6976 83.2344 -12.124 81.7441C-10.4432 80.1535 -8.49316 78.6955 -7.14547 76.7924C-7.06453 76.6769 -6.87819 76.7867 -6.95724 76.9079H-6.95912ZM124.328 83.9956C125.751 83.7097 127.329 83.8612 128.774 83.865C130.594 83.8706 132.396 83.7267 134.214 83.6642C134.468 83.6548 134.457 84.0429 134.206 84.0581C132.529 84.1585 130.856 84.2475 129.177 84.2266C128.354 84.2172 127.534 84.1944 126.711 84.1812C125.949 84.1679 125.124 84.024 124.37 84.1622C124.26 84.1831 124.217 84.0164 124.326 83.9937L124.328 83.9956ZM121.812 84.7985C124.027 84.9897 126.374 84.6678 128.601 84.6319C130.771 84.5978 132.936 84.4349 135.106 84.416C135.371 84.4141 135.364 84.8288 135.098 84.8307C132.791 84.8382 130.485 84.9973 128.176 85.0181C126.118 85.0371 123.807 85.3855 121.783 84.9878C121.676 84.967 121.704 84.789 121.812 84.7985ZM136.719 86.2887C133.421 86.1297 130.135 85.9384 126.832 85.9952C125.237 86.0217 123.645 86.0312 122.051 86.035C120.848 86.0369 119.464 86.2471 118.296 85.9498C118.179 85.9195 118.205 85.7207 118.328 85.7377C119.777 85.9309 121.377 85.6828 122.843 85.6695C124.309 85.6563 125.774 85.6373 127.24 85.6127C130.41 85.5597 133.563 85.7415 136.725 85.8911C136.979 85.9024 136.973 86.3001 136.717 86.2887H136.719Z" fill="#46F8C5"/>
<path d="M17.3901 31.9864C17.6197 31.9107 17.7138 32.2439 17.5331 32.3614C17.1492 32.6113 16.7727 32.8499 16.4057 33.1074C16.4283 33.4255 16.4584 33.7456 16.4979 34.0618C16.8913 33.7153 17.2941 33.3782 17.7044 33.0582C17.7684 33.0071 17.8625 32.9654 17.9453 33.0014C18.0338 33.0411 18.0846 33.0828 18.111 33.1794C18.1336 33.2608 18.1035 33.3612 18.0413 33.418C17.5764 33.8327 17.0607 34.1943 16.5713 34.5844C17.0588 37.7732 18.35 40.856 19.8841 43.7001C21.3579 46.4345 23.0576 49.0438 24.7177 51.6759C25.0546 52.2099 25.3897 52.7458 25.7209 53.2836C25.7981 53.4104 25.8791 53.5354 25.9562 53.6623C27.0141 55.393 27.9062 57.2033 29.0732 58.8753C29.7716 59.8732 30.7597 60.8484 31.4223 61.9278C33.8353 59.1385 35.8644 56.4459 37.6281 53.276C37.694 53.1586 37.7599 53.0469 37.8257 52.9295C38.1081 52.4087 38.4149 51.905 38.7273 51.407C40.1729 49.1006 41.8556 46.9741 43.0885 44.5238C43.1544 44.3932 43.2203 44.2606 43.2862 44.1281C42.6481 44.3515 42.0081 44.5788 41.3794 44.823C41.21 44.8893 41.1009 44.5996 41.2646 44.5238C42.0288 44.1716 42.8081 43.8289 43.5948 43.5051C43.7323 43.2267 43.8678 42.9465 44.0033 42.6625C43.1808 42.99 42.3582 43.3214 41.5394 43.6642C41.3248 43.7551 41.1479 43.4388 41.3644 43.3404C42.3356 42.9048 43.3106 42.4807 44.2875 42.0584C46.71 36.8794 48.7183 31.0472 47.7264 25.4365C46.5236 18.6291 40.6868 13.3233 33.4043 12.9142C29.8939 12.7173 26.4004 13.5599 23.6843 15.7773C21.1282 17.8641 19.229 20.6363 18.0508 23.6433C16.9383 26.4761 16.2645 29.5172 16.3793 32.5583C16.6937 32.3178 17.0287 32.1076 17.3938 31.9883L17.3901 31.9864ZM38.2831 40.9753C37.9933 41.1514 37.7429 40.6856 38.0328 40.5113C40.1635 39.2294 42.5144 38.1387 43.7661 35.8588C43.8264 35.749 44.0127 35.8323 43.9656 35.9516C42.9681 38.4928 40.4684 39.6422 38.2831 40.9753ZM44.1351 34.3894C42.4485 37.8584 39.0737 39.788 35.3788 40.5227C35.0532 40.5871 34.9327 40.0929 35.2565 40.019C38.8327 39.2048 42.0213 37.5005 43.9111 34.2493C43.9976 34.0997 44.2066 34.2398 44.1332 34.3894H44.1351ZM32.8208 17.0138C33.122 17.0138 33.105 17.4797 32.8058 17.4816C30.2967 17.5005 28.1152 18.078 25.9958 19.4376C24.2584 20.553 22.3141 21.9296 21.8171 24.0656C21.7908 24.1754 21.6346 24.1205 21.6534 24.0144C22.0185 21.8955 23.7841 20.4166 25.4894 19.2994C27.7688 17.8073 30.0803 17.012 32.8208 17.012V17.0138ZM21.5028 21.9618C23.6806 18.8696 27.1797 16.6484 30.9386 16.1788C31.2247 16.1428 31.3338 16.5878 31.0458 16.62C27.4187 17.046 23.8763 19.1536 21.6327 22.0432C21.5725 22.1208 21.4445 22.0432 21.5028 21.9618ZM21.4972 26.2981C23.0726 20.4109 28.9791 17.438 34.7746 18.2049C40.8148 19.0059 45.4884 24.0296 44.4381 30.3882C44.4136 30.5321 44.3854 30.6761 44.3553 30.8181C44.359 30.9203 44.3402 31.0283 44.295 31.14C44.2856 31.1646 44.2762 31.1892 44.2668 31.2119C44.1426 31.7156 43.9845 32.208 43.7906 32.6889C43.5403 33.5922 43.2918 34.5049 42.7535 35.2661C41.9686 36.3758 40.939 37.2449 39.6892 37.794C36.9712 38.9851 33.9483 39.983 30.9386 39.7388C27.6051 39.468 24.5991 37.9228 22.8486 34.9707C21.3296 32.4068 20.716 29.218 21.499 26.2981H21.4972Z" fill="#CAEB0E"/>
<path d="M39.6872 37.7941C40.9371 37.2468 41.9666 36.3758 42.7515 35.2662C43.2918 34.5049 43.5383 33.5922 43.7887 32.689C43.9825 32.2099 44.1407 31.7157 44.2649 31.212C44.2743 31.1874 44.2837 31.1628 44.2931 31.14C44.3402 31.0302 44.3571 30.9223 44.3533 30.8181C44.3835 30.6742 44.4117 30.5322 44.4362 30.3883C45.4846 24.0296 40.8128 19.0059 34.7727 18.205C28.9772 17.4362 23.0707 20.4091 21.4952 26.2981C20.7141 29.2161 21.3258 32.4068 22.8448 34.9708C24.5953 37.9228 27.5994 39.468 30.9347 39.7388C33.9445 39.9831 36.9674 38.9851 39.6854 37.7941H39.6872ZM24.9398 35.268C22.7733 32.8727 22.2237 29.3487 23.0425 26.2962C23.8481 23.2854 26.2498 21.1911 29.1014 20.2065C34.895 18.2031 42.1605 20.9696 43.0772 27.546C43.2296 28.6348 43.1769 29.7255 42.9454 30.7689C42.7195 31.3521 42.5483 31.9524 42.3563 32.5394C41.7201 33.9482 40.7244 35.1923 39.42 36.1088C39.1075 36.3285 38.7838 36.5254 38.4506 36.7034C37.4812 37.0935 36.4516 37.3699 35.5425 37.6161C31.7347 38.6538 27.7067 38.3262 24.9416 35.268H24.9398Z" fill="black"/>
<path d="M43.9124 34.2493C42.0226 37.4987 38.8341 39.2048 35.2578 40.019C34.9322 40.0929 35.0545 40.5871 35.3801 40.5227C39.075 39.788 42.4499 37.8585 44.1364 34.3894C44.2098 34.2398 44.0009 34.0997 43.9143 34.2493H43.9124Z" fill="black"/>
<path d="M43.7659 35.8589C42.5142 38.1387 40.1633 39.2294 38.0325 40.5114C37.7427 40.6856 37.993 41.1514 38.2829 40.9753C40.4682 39.6422 42.9678 38.4909 43.9654 35.9516C44.0125 35.8342 43.8261 35.749 43.7659 35.8589Z" fill="black"/>
<path d="M21.6532 24.0164C21.6344 24.1224 21.7925 24.1773 21.817 24.0675C22.3139 21.9316 24.2601 20.5549 25.9956 19.4396C28.115 18.0781 30.2965 17.5025 32.8056 17.4835C33.1048 17.4816 33.1199 17.0158 32.8206 17.0158C30.0801 17.0158 27.7668 17.8111 25.4892 19.3033C23.7839 20.4186 22.0184 21.8994 21.6532 24.0183V24.0164Z" fill="black"/>
<path d="M21.6322 22.0433C23.8759 19.1537 27.4164 17.0461 31.0454 16.62C31.3334 16.586 31.2261 16.1429 30.9381 16.1788C27.1793 16.6484 23.6783 18.8696 21.5024 21.9618C21.444 22.0452 21.5739 22.1209 21.6322 22.0433Z" fill="black"/>
<path d="M31.9451 64.0429C30.5729 62.8784 29.2986 61.5605 28.2408 60.0986C28.1787 60.0134 28.0375 60.1176 28.0921 60.2066C29.0464 61.8028 30.2793 63.1643 31.674 64.3857C31.6402 64.5656 31.8566 64.7436 32.0298 64.5883C33.3003 63.4465 34.1737 61.9354 35.4988 60.8466C35.6456 60.7254 35.4461 60.5247 35.3011 60.6345C34.0306 61.6002 33.0387 62.8822 31.9488 64.0429H31.9451Z" fill="black"/>
<path d="M34.4996 62.7232C33.7899 63.7116 32.7848 64.435 31.9115 65.2681C30.9684 64.4028 30.0555 63.4957 29.0184 62.7402C28.8961 62.6512 28.7813 62.8462 28.8961 62.9371C29.9069 63.7343 30.6673 64.7928 31.6329 65.6393C31.6404 65.8192 31.8644 65.9782 32.0244 65.8135C32.9618 64.8515 34.061 64.0543 34.7951 62.9087C34.9174 62.7175 34.6294 62.5414 34.4996 62.7232Z" fill="black"/>
<path d="M45.1509 16.3644C46.6323 18.0289 48.3131 19.7691 48.7009 22.0754C48.7573 22.4068 49.2618 22.2818 49.2053 21.9524C48.81 19.61 47.084 17.6729 45.4954 16.0387C43.9407 14.4367 42.4405 12.9124 40.1046 12.6208C40.0161 12.6094 39.9973 12.7476 40.0801 12.7723C42.1807 13.3915 43.728 14.7681 45.1509 16.3663V16.3644Z" fill="black"/>
<path d="M46.1901 16.264C46.7811 16.9022 47.4135 17.4759 47.9086 18.2012C48.2436 18.6916 48.3923 19.2938 48.6784 19.8107C48.8441 20.1099 49.3109 19.8543 49.1433 19.557C48.7744 18.9037 48.541 18.2163 48.1081 17.5933C47.6771 16.9741 47.0653 16.4685 46.5458 15.9288C45.2565 14.5882 44.0481 13.7323 42.4369 12.8158C42.3164 12.7476 42.211 12.9199 42.3239 12.9976C43.7582 13.9841 45.0061 14.984 46.192 16.264H46.1901Z" fill="black"/>
<path d="M141.483 86.8512C139.104 83.7098 136.239 80.9508 133.519 78.1142C130.958 75.4424 127.21 70.0797 124.573 67.4798C119.916 62.8898 114.923 58.2808 112.107 52.2876C112.214 52.28 112.321 52.2725 112.429 52.2649C113.639 52.1721 113.75 50.3183 112.487 50.3296C108.353 50.3675 104.218 50.5209 100.083 50.6875C102.528 46.2338 104.595 41.6154 105.641 36.6049C106.737 31.3673 106.204 25.9611 104.627 20.8863C101.442 10.6439 92.6668 3.49183 82.0207 2.83665C71.0754 2.16253 60.595 9.17826 56.4785 19.2805C52.379 29.343 55.6805 40.2293 59.9701 49.5836C60.2167 50.1213 60.4764 50.6516 60.7343 51.1836C54.0467 51.1685 47.3552 51.2499 40.6657 51.3673C41.7179 49.826 42.7927 48.3035 43.6792 46.6371C44.2439 45.5749 44.7935 44.4955 45.3168 43.401C45.712 43.2552 46.1054 43.1075 46.4951 42.9503C46.7492 42.8481 46.5816 42.4182 46.3219 42.4997C46.0922 42.5716 45.8607 42.6493 45.6311 42.7269C45.7666 42.4334 45.9003 42.138 46.032 41.8426C46.3671 41.7082 46.7021 41.5737 47.0353 41.4355C47.2931 41.3294 47.1011 40.9962 46.8753 41.0189C46.7002 41.0378 46.5214 41.0814 46.3407 41.1401C48.0178 37.226 49.2413 33.1264 49.3994 28.8999C49.629 22.795 46.6607 16.9704 41.1287 13.81C35.6495 10.6818 28.4856 10.7367 23.3301 14.3762C17.4029 18.561 14.5833 26.5519 15.2044 33.5885C14.7546 34.0145 14.3047 34.4822 13.9866 34.9878C13.917 35.0995 14.06 35.198 14.1523 35.1261C14.5494 34.8193 14.8957 34.433 15.2534 34.0713C15.291 34.4084 15.3343 34.7417 15.3889 35.0711C15.0011 35.429 14.4421 36.0047 14.6736 36.3777C14.7376 36.48 14.9108 36.4535 14.9108 36.3209C14.9108 36.0558 15.1611 35.7566 15.4604 35.482C15.5207 35.8077 15.5846 36.1315 15.6599 36.4497C16.842 41.4449 19.6673 45.9555 22.4455 50.2653C22.7542 50.7424 23.0553 51.2196 23.3621 51.6968C23.1156 51.7006 22.8709 51.7044 22.6243 51.7101C21.1674 49.9585 20.2696 47.779 19.1948 45.785C18.5868 44.6565 17.9262 43.5658 17.4462 42.3747C17.1752 41.7025 16.874 41.0321 16.298 40.5815C16.17 40.4811 16.0025 40.6913 16.1192 40.8011C16.7818 41.4298 17.0058 42.4069 17.3314 43.2344C17.8452 44.5429 18.6565 45.7775 19.3096 47.0216C20.1491 48.6197 20.887 50.2937 21.9862 51.7233C18.5285 51.7858 15.0708 51.8407 11.6131 51.8767C11.6394 51.7744 11.6677 51.6741 11.6921 51.5718C11.8126 51.0511 11.1256 50.858 10.9167 51.3313C7.5813 58.9398 1.44891 64.3782 -4.40114 70.0475C-7.11535 72.6777 -9.66958 75.4613 -12.397 78.0801C-13.8971 79.5192 -15.401 80.9546 -16.8654 82.4297C-17.7313 83.3026 -18.806 84.2456 -19.5589 85.306C-19.6305 85.2682 -19.7284 85.272 -19.7735 85.3553C-20.1669 86.0767 -20.7824 86.6353 -21.2078 87.336C-21.4468 87.4079 -21.4374 87.8037 -21.1495 87.8131C-11.932 88.1256 -2.71652 88.2847 6.499 88.3509C5.99644 88.9039 5.48823 89.453 4.93861 89.9586C4.55463 90.3127 5.10425 90.8713 5.49388 90.538C6.28443 89.862 6.9978 89.1046 7.72247 88.3585C8.34549 88.3623 8.9704 88.368 9.59343 88.3699C8.90452 89.0516 8.20809 89.7427 7.61142 90.4774C7.40813 90.7255 7.64341 91.0739 7.94834 90.9319C8.9704 90.4509 9.80424 89.4719 10.6193 88.7107C10.7416 88.5952 10.8677 88.4892 10.9901 88.3755C27.1436 88.4418 43.299 88.2468 59.4657 88.0972C72.841 87.9722 86.2201 89.453 99.5784 88.7391C113.029 88.0214 127.773 88.8035 141.25 88.9531C142.548 88.9682 142.663 87.0368 141.485 86.8493L141.483 86.8512ZM60.5066 15.7907C67.4182 5.10706 82.6174 1.49031 93.2446 8.63102C102.919 15.1317 105.85 28.4247 102.69 39.1632C101.491 43.2363 99.6424 47.1162 97.4534 50.7955C97.0016 51.5548 96.5348 52.3047 96.0567 53.045C94.5867 55.3211 93.0056 57.5177 91.385 59.6253C86.7471 65.6544 81.697 71.4431 78.4896 78.4058C76.7655 74.4501 73.8518 70.964 71.6627 67.3075C68.8713 62.6417 66.174 57.9153 63.7252 53.0602C63.6913 52.9939 63.6575 52.9295 63.6236 52.8633C64.2316 52.4599 64.8546 52.0699 65.4098 51.6002C65.5435 51.4866 65.5378 51.3257 65.4644 51.2007C65.3778 51.053 65.1971 50.9545 65.0202 51.0606C64.9487 51.1041 64.8753 51.1534 64.8019 51.1988C64.3031 51.5037 63.7967 51.8369 63.2923 52.2005C63.1681 51.9524 63.042 51.7044 62.9215 51.4544C63.0438 51.3654 63.17 51.2802 63.2942 51.1912C63.9756 50.7027 64.672 50.2274 65.4061 49.7805C65.7524 49.5684 65.4738 49.0931 65.1124 49.237C64.2127 49.5949 63.3808 50.1422 62.594 50.7708C62.2853 50.1327 61.9785 49.4927 61.6811 48.8489C56.8493 38.4228 53.8057 26.1561 60.5122 15.7907H60.5066ZM88.2529 67.2488C89.3314 65.8457 90.4307 64.4539 91.528 63.0602C91.9835 64.3516 92.1661 65.7018 92.4183 67.05C91.0273 67.1068 89.6401 67.1712 88.2529 67.2488ZM92.6404 68.0687C93.0338 69.5912 93.6813 71.0739 94.1914 72.549C94.3552 73.0262 94.4963 73.509 94.6319 73.9938C91.5337 73.9976 88.4317 74.026 85.3448 74.1737C86.6285 72.1229 87.8896 70.0589 89.2298 68.0441C90.3667 68.0706 91.5035 68.0782 92.6423 68.0706L92.6404 68.0687ZM88.7028 68.029C87.2553 70.0532 85.8737 72.121 84.5204 74.2115C84.1138 74.2343 83.7072 74.2627 83.3026 74.2911C84.6484 72.1172 86.1335 70.0324 87.6863 67.9892C88.0251 68.0044 88.3639 68.0214 88.7028 68.0309V68.029ZM84.0404 74.9444C82.8038 76.8247 81.4674 78.6368 80.3512 80.5872C80.2175 80.5872 80.082 80.5929 79.9484 80.5948C80.0218 80.5096 80.0895 80.4111 80.1404 80.2899C80.946 78.4039 81.8965 76.6088 82.9393 74.8743C83.3063 74.9008 83.6734 74.9235 84.0404 74.9444ZM84.415 75.6488C84.5543 75.431 84.6898 75.2113 84.8291 74.9917C88.1889 75.1564 91.5694 75.1526 94.9424 75.1205C95.1081 75.7378 95.2775 76.3551 95.4807 76.9629C95.7781 77.8529 96.1433 78.7012 96.4576 79.5666C95.7989 79.6101 95.1382 79.6575 94.4794 79.7105C90.0674 80.0627 85.6591 80.4812 81.2377 80.574C82.2297 78.8925 83.359 77.3038 84.415 75.6488ZM95.9777 75.1091C97.6849 75.092 99.3902 75.0712 101.088 75.0655C103.542 75.058 105.999 75.0466 108.453 75.0371C108.673 75.4367 108.892 75.8381 109.123 76.2301C109.66 77.1409 110.14 78.154 110.661 79.1386C106.217 79.1519 101.777 79.2409 97.3404 79.5117C97.1447 78.8073 96.9 78.1161 96.6515 77.4117C96.3842 76.6562 96.1753 75.8836 95.9777 75.111V75.1091ZM101.109 73.9786C99.3074 73.9938 97.5004 73.9919 95.6916 73.9919C95.5429 73.42 95.3885 72.85 95.2059 72.2858C94.7467 70.8675 94.1952 69.4814 93.7717 68.0536C96.516 68.0138 99.2622 67.9173 101.999 67.8945C102.874 67.887 103.757 67.8491 104.642 67.798C104.926 68.3244 105.208 68.8489 105.491 69.3753C106.3 70.8845 107.057 72.4183 107.853 73.9313C105.604 73.9445 103.354 73.9578 101.105 73.9767L101.109 73.9786ZM102.859 66.8076C99.7422 66.8247 96.6158 66.8966 93.4912 67.0102C93.0941 65.3363 92.9491 63.6832 92.2979 62.0793C92.9134 61.2916 93.527 60.502 94.1293 59.7067C96.3259 60.1744 98.6279 60.2615 100.945 60.2104C101.839 62.4675 102.948 64.63 104.094 66.7754C103.682 66.7925 103.268 66.8057 102.859 66.8095V66.8076ZM47.8747 72.2574C48.351 70.7576 48.8968 69.2768 49.4182 67.7885C51.1819 67.7923 52.9474 67.7885 54.7111 67.7733C56.8305 67.7544 58.9481 67.7374 61.0656 67.7412C61.1145 68.5497 61.1635 69.3583 61.2162 70.1668C61.299 71.4469 61.3705 72.7289 61.4533 74.0108C60.9395 74.0165 60.4256 74.0165 59.9137 74.0013C55.7369 73.8726 51.5564 73.812 47.3778 73.7779C47.5435 73.2704 47.7129 72.7648 47.8747 72.2555V72.2574ZM46.3219 73.7703C44.3888 73.7571 42.4576 73.7476 40.5245 73.7438C37.2287 73.7362 33.9272 73.6624 30.622 73.5677C31.2751 72.761 31.9245 71.9506 32.572 71.142C33.5018 69.9813 34.4486 68.8319 35.3973 67.6843C36.6678 67.6957 37.9383 67.7052 39.2107 67.7184C42.2016 67.7487 45.1925 67.7752 48.1834 67.7866C47.9764 68.4058 47.7693 69.0269 47.5717 69.6499C47.1388 71.0171 46.7303 72.3937 46.3238 73.7703H46.3219ZM56.3392 66.5652C54.169 66.5861 52.0006 66.5936 49.8304 66.5936C50.1033 65.7813 50.365 64.9671 50.5965 64.1433C50.9108 63.0204 51.1725 61.8862 51.4473 60.7576C54.4852 60.8031 57.5213 60.8315 60.5499 60.8807C60.7475 62.7629 60.8792 64.6508 60.9959 66.5425C59.445 66.5387 57.8921 66.5539 56.3411 66.5671L56.3392 66.5652ZM49.8116 62.3899C49.4784 63.8176 49.038 65.2075 48.5787 66.5936C46.0094 66.5899 43.4401 66.5728 40.869 66.5501C39.3632 66.5368 37.8593 66.5312 36.3535 66.5236C37.9948 64.5315 39.6229 62.5281 41.1664 60.4641C44.1686 60.608 47.1821 60.6876 50.1956 60.7387C50.0657 61.2897 49.9396 61.8407 49.8097 62.3937L49.8116 62.3899ZM35.0039 66.5141C31.7193 66.499 28.4329 66.4933 25.1465 66.5065C23.2511 66.5141 21.3556 66.5293 19.4602 66.5482C20.0117 65.9233 20.5689 65.3079 21.1467 64.7095C22.7015 63.1 24.3447 61.6154 25.7526 59.8885C26.658 59.8979 27.5652 59.9074 28.4706 59.9093C28.5534 59.9093 28.6287 59.8941 28.6908 59.8657C29.5322 60.928 30.7613 61.9297 31.2808 63.1625C31.3485 63.3234 31.5198 63.3575 31.6704 63.314C31.8605 63.3556 32.0694 63.3045 32.2483 63.1057C33.1856 62.0642 34.0722 61.0644 34.9079 60.0475C36.5511 60.1895 38.2 60.3032 39.8526 60.394C38.2884 62.4732 36.6433 64.4918 35.0039 66.5141ZM23.4581 67.601C26.9949 67.6143 30.5316 67.6408 34.0684 67.6711C33.3042 68.616 32.5438 69.5628 31.7984 70.519C31.0154 71.5226 30.2305 72.53 29.4362 73.5317C24.2506 73.3765 19.0612 73.189 13.8774 73.1379C14.3932 72.5395 14.907 71.9373 15.4171 71.3314C16.4881 70.0646 17.5422 68.7769 18.6226 67.5139C20.2357 67.5385 21.8507 67.5954 23.4562 67.601H23.4581ZM28.4593 74.7512C27.6913 75.6999 26.9158 76.6429 26.1159 77.5594C25.2312 78.5744 24.324 79.5628 23.5052 80.6137C18.1295 80.5418 12.7462 80.4111 7.36484 80.3827C9.24145 78.3907 11.0729 76.3608 12.8742 74.2949C18.0673 74.4956 23.2624 74.6527 28.4574 74.7512H28.4593ZM27.1304 77.6598C27.9925 76.7262 28.8207 75.7567 29.6338 74.7739C32.9786 74.8326 36.3252 74.8686 39.6662 74.8724C41.7744 74.8743 43.8806 74.8857 45.9868 74.9008C45.7421 75.7302 45.4937 76.5615 45.2396 77.389C44.929 78.4001 44.7013 79.4454 44.3587 80.4414C38.8437 80.5778 33.3268 80.6876 27.8043 80.6573C26.641 80.6516 25.4778 80.6384 24.3127 80.6251C25.2256 79.6139 26.2081 78.6558 27.1266 77.6616L27.1304 77.6598ZM45.4429 79.701C45.953 78.0991 46.4838 76.5047 47.0089 74.9084C50.7377 74.9387 54.4664 74.9898 58.1952 75.0864C59.2887 75.1148 60.4012 75.0864 61.5211 75.0409C61.5606 75.5825 61.602 76.1241 61.651 76.6637C61.7526 77.8131 61.9578 78.9379 62.0858 80.0684C61.843 80.0684 61.602 80.0665 61.3592 80.0684C55.9741 80.1328 50.5927 80.2843 45.2132 80.4187C45.2942 80.1725 45.3695 79.9302 45.4429 79.701ZM62.0274 66.5425C61.9183 64.6565 61.7959 62.7743 61.6115 60.894C62.9573 60.9186 64.3031 60.9489 65.6432 60.9886C65.7599 60.9924 65.8578 60.964 65.9406 60.9205C66.9796 62.7118 68.0375 64.4918 69.1085 66.2623C69.2045 66.4213 69.3061 66.5804 69.4059 66.7413C67.7137 66.5217 66.014 66.6258 64.2974 66.5804C63.5408 66.5596 62.7841 66.5501 62.0293 66.5425H62.0274ZM70.0967 68.0687C70.1569 68.082 70.2152 68.0839 70.2698 68.082C71.6363 70.1233 73.1591 72.1324 74.5783 74.1926C70.5879 73.3083 66.4752 73.8631 62.4095 73.9919C62.3568 72.7232 62.3192 71.4507 62.2401 70.1877C62.1893 69.3715 62.1422 68.5573 62.0952 67.743C64.7134 67.7449 67.5387 67.5082 70.0948 68.0706L70.0967 68.0687ZM74.2847 75.2814C74.6649 75.3666 74.9322 75.0883 74.9868 74.791C76.0954 76.4365 77.1231 78.1199 77.9344 79.8866C77.9344 80.0589 78.1395 80.3449 78.3372 80.5816C78.1527 80.5778 77.9664 80.5816 77.7819 80.5759C72.8015 80.4566 67.8605 80.0854 62.8782 80.0665C62.8481 79.3659 62.7747 78.6634 62.6919 77.9495C62.577 76.9705 62.5074 75.9839 62.4566 74.9974C66.43 74.7985 70.4957 74.435 74.2866 75.2814H74.2847ZM60.0736 53.0469C59.8045 53.3026 59.5391 53.5563 59.2756 53.7949C59.076 53.9767 59.3546 54.2645 59.5579 54.096C59.9946 53.7381 60.4256 53.3935 60.8585 53.0469C61.0637 53.0469 61.2708 53.0469 61.4759 53.0469C61.5324 53.0469 61.5889 53.0469 61.6453 53.0469C61.698 53.153 61.7526 53.2609 61.8053 53.367C61.1955 53.8991 60.6327 54.4633 60.1602 55.0504C60.0153 55.2283 60.2939 55.4139 60.4501 55.2908C61.0054 54.8477 61.5493 54.399 62.1065 53.9634C63.1173 55.9252 64.1845 57.8585 65.28 59.7748C64.017 59.7389 62.7502 59.6972 61.4816 59.6499C61.3668 58.6406 61.2331 57.6332 61.0656 56.6277C60.9508 55.9347 59.8967 56.2092 60.0153 56.8985C60.1696 57.7998 60.2939 58.7031 60.4049 59.6082C57.5514 59.5003 54.6847 59.381 51.8143 59.2958C52.0665 58.3528 52.347 57.4192 52.699 56.5027C52.9832 55.7604 51.8011 55.4158 51.5226 56.1543C51.1386 57.1731 50.8318 58.2126 50.5588 59.2617C47.7317 59.1897 44.9027 59.1575 42.0868 59.2125C42.4971 58.6444 42.8999 58.0687 43.2915 57.4893C43.6961 56.889 42.74 56.3096 42.339 56.9061C41.8082 57.6995 41.2548 58.4758 40.6921 59.2465C38.8926 59.3014 37.0988 59.3961 35.3145 59.5382C36.4739 58.0896 37.5299 56.5898 38.4597 54.8724C38.7609 54.3175 39.0846 53.7817 39.4178 53.2533C46.3068 53.1719 53.1959 53.0356 60.0699 53.0432L60.0736 53.0469ZM19.8818 43.6983C18.3497 40.8541 17.0566 37.7733 16.5691 34.5826C17.0585 34.1925 17.5742 33.8308 18.0391 33.4161C18.1031 33.3593 18.1332 33.259 18.1088 33.1776C18.0805 33.081 18.0316 33.0393 17.9431 32.9996C17.8603 32.9617 17.7662 33.0052 17.7022 33.0564C17.2919 33.3764 16.8891 33.7134 16.4957 34.06C16.4561 33.7437 16.426 33.4237 16.4034 33.1056C16.7705 32.8481 17.1469 32.6095 17.5309 32.3595C17.7116 32.2421 17.6175 31.9107 17.3879 31.9846C17.0227 32.1039 16.6877 32.3141 16.3733 32.5546C16.2585 29.5135 16.9323 26.4724 18.0448 23.6396C19.2249 20.6326 21.1241 17.8603 23.6783 15.7736C26.3944 13.5562 29.8879 12.7136 33.3983 12.9105C40.6808 13.3195 46.5176 18.6254 47.7204 25.4328C48.7123 31.0435 46.704 36.8757 44.2815 42.0547C43.3046 42.4769 42.3296 42.9011 41.3584 43.3366C41.1419 43.4332 41.3188 43.7513 41.5334 43.6604C42.3503 43.3177 43.1729 42.9863 43.9973 42.6587C43.8618 42.9409 43.7263 43.223 43.5889 43.5014C42.8002 43.8252 42.0228 44.1679 41.2586 44.5201C41.0949 44.5959 41.204 44.8856 41.3734 44.8193C42.004 44.575 42.6421 44.3478 43.2802 44.1244C43.2143 44.2569 43.1484 44.3895 43.0825 44.5201C41.8496 46.9704 40.1669 49.095 38.7213 51.4033C38.4089 51.9013 38.104 52.405 37.8197 52.9258C37.7557 53.0432 37.688 53.1568 37.6221 53.2723C35.8584 56.4421 33.8294 59.1329 31.4163 61.9241C30.7537 60.8447 29.7637 59.8714 29.0672 58.8716C27.9002 57.2015 27.0081 55.3893 25.9502 53.6586C25.8731 53.5317 25.794 53.4067 25.715 53.2799C25.3837 52.7421 25.0486 52.2062 24.7117 51.6722C23.0516 49.0401 21.3538 46.4308 19.8781 43.6964L19.8818 43.6983ZM100.48 86.5823C87.1273 87.3189 73.752 85.84 60.3842 86.0351C44.5168 86.2661 28.6456 86.6069 12.7744 86.8853C13.2845 86.4952 13.8097 86.1203 14.3631 85.7681C15.0068 85.3591 14.4647 84.3706 13.7833 84.7285C12.7519 85.2701 11.8672 86.0862 11.0371 86.9175C10.4235 86.9288 9.81177 86.9364 9.19815 86.9478C9.27156 86.8834 9.34121 86.8171 9.41462 86.7546C9.85695 86.3835 10.4254 86.1676 10.7435 85.6772C10.9129 85.4178 10.7058 85.058 10.4047 85.058C9.42026 85.0542 8.48102 86.2528 7.84482 86.8986C7.82223 86.9213 7.79964 86.9459 7.77705 86.9705C-1.07519 87.1182 -9.92556 87.2413 -18.7759 87.3057C-17.4151 86.2188 -16.3158 84.6092 -15.0942 83.35C-13.6393 81.8503 -12.1372 80.3979 -10.654 78.9285C-7.82497 76.1241 -5.17663 73.1492 -2.35513 70.3354C0.560484 67.4268 3.50433 64.5258 6.10373 61.32C8.15727 58.7864 10.3068 55.9384 11.3496 52.7686C15.6806 53.0507 20.0192 53.1984 24.3597 53.2666C25.139 54.4936 25.9088 55.7245 26.6674 56.9667C27.0589 57.6105 27.4843 58.2335 27.9266 58.8451C27.4655 58.847 27.0043 58.8508 26.5431 58.8565C26.882 58.3054 26.0067 57.8017 25.6133 58.3376C25.4797 58.5175 25.3423 58.6917 25.203 58.8678C24.2035 58.8792 23.204 58.8924 22.2027 58.9038C20.2414 58.9284 18.1088 58.7561 16.1964 59.2333C16.059 59.2674 16.0477 59.4832 16.1907 59.5173C17.8603 59.9339 19.6861 59.8165 21.3989 59.8392C22.3871 59.8525 23.3753 59.8638 24.3635 59.8771C23.1156 61.2973 21.7302 62.5868 20.3995 63.9332C19.5713 64.7701 18.7845 65.6563 18.0165 66.5596C17.8867 66.5596 17.7549 66.5596 17.625 66.5615C15.1781 66.5899 12.5128 67.1106 10.1261 66.4649C9.72895 66.3569 9.57837 66.9231 9.94918 67.0708C11.6809 67.762 13.5085 67.6124 15.3362 67.5404C15.963 67.5158 16.5935 67.5063 17.2222 67.5045C16.3733 68.5289 15.5395 69.5647 14.6925 70.5759C13.981 71.4223 13.2732 72.2744 12.5655 73.1265C9.36756 73.1095 6.17149 73.1511 2.98295 73.2931C2.61967 73.3102 2.60461 73.8461 2.97354 73.8631C5.85904 74.0014 8.74641 74.1282 11.6338 74.2437C9.92094 76.302 8.20244 78.3566 6.44442 80.3752C2.21311 80.3619 -2.01821 80.4187 -6.24011 80.6251C-6.49233 80.6384 -6.50362 81.0095 -6.24764 81.0228C-2.33631 81.2197 1.5769 81.3598 5.48823 81.4602C4.66757 82.3861 3.84126 83.3064 2.99801 84.2097C2.79849 84.4236 3.10341 84.7493 3.31422 84.5391C4.33064 83.5318 5.33012 82.513 6.31831 81.4829C11.7938 81.6154 17.2674 81.6666 22.7429 81.6628C22.3024 82.3142 21.9034 82.994 21.5778 83.7306C21.4799 83.9521 21.7886 84.1566 21.9071 83.9313C22.3344 83.1171 22.8577 82.371 23.428 81.6609C30.2681 81.6514 37.1101 81.5605 43.9502 81.4412C43.7695 81.8219 43.5625 82.1892 43.3065 82.5376C43.1879 82.7005 43.4025 82.8614 43.5512 82.7933C44.1385 82.5244 44.5243 82.0112 44.8104 81.4261C50.045 81.3333 55.2795 81.2273 60.5122 81.1307C61.0656 81.1212 61.619 81.1174 62.1705 81.1136C62.2025 81.7215 62.1987 82.3331 62.1234 82.9542C62.0877 83.2364 62.5413 83.297 62.609 83.03C62.7728 82.3861 62.8537 81.7499 62.8782 81.1118C67.5726 81.1118 72.2387 81.3447 76.9349 81.5908C77.8779 81.6401 78.8209 81.6571 79.7639 81.659C79.7074 81.7707 79.6453 81.8806 79.5907 81.9942C79.3762 82.4354 80.0199 82.8444 80.2382 82.4013C80.3606 82.1494 80.4905 81.9033 80.6222 81.6571C84.9608 81.6192 89.3051 81.1894 93.6192 80.841C94.6789 80.7558 95.7405 80.6857 96.8021 80.6213C96.9056 80.9849 96.996 81.356 97.0562 81.7385C97.1164 82.1172 97.7489 82.0434 97.7244 81.659C97.6999 81.2897 97.6529 80.9281 97.587 80.574C102.155 80.324 106.729 80.2653 111.307 80.2729C111.687 80.8978 112.101 81.4905 112.585 82.0036C113.031 82.4751 113.746 81.7783 113.306 81.303C113.016 80.9906 112.754 80.6403 112.506 80.2767C117.441 80.2975 122.376 80.3846 127.306 80.3865C128.049 80.3865 128.072 79.2257 127.327 79.2257C122.154 79.2201 116.976 79.133 111.802 79.133C111.167 77.9987 110.612 76.7849 109.98 75.7415C109.837 75.5067 109.705 75.2663 109.568 75.0277C112.984 75.0144 116.4 75.0031 119.815 74.9993C120.526 74.9993 120.547 73.8896 119.833 73.8877C116.202 73.8858 112.57 73.8991 108.939 73.918C108.158 72.4846 107.431 71.0208 106.652 69.5817C106.317 68.9625 105.976 68.3452 105.636 67.7298C108.841 67.5272 112.08 67.2678 115.201 67.8718C115.89 68.0044 116.214 66.9761 115.514 66.8057C112.12 65.9782 108.557 66.4933 105.071 66.7129C103.868 64.5561 102.667 62.405 101.598 60.182C104.218 60.0968 106.844 59.8714 109.334 59.8601C110.051 59.8563 110.074 58.7334 109.353 58.7391C106.56 58.758 103.783 58.8432 101.007 58.9019C100.7 58.2183 100.403 57.5291 100.128 56.8284C100.057 56.6447 99.7685 56.7053 99.8231 56.908C100.011 57.5878 100.23 58.2543 100.463 58.9133C98.5394 58.9511 96.6139 58.9739 94.6827 58.9492C96.1301 57.0102 97.5173 55.0333 98.7672 52.9636C102.837 52.8405 106.9 52.6493 110.955 52.3634C113.102 58.3622 118.004 63.3499 122.318 67.7942C127.466 73.0981 133.899 81.1496 138.66 86.8209C126.348 86.8133 112.762 85.8987 100.472 86.5748L100.48 86.5823Z" fill="black"/>
<path d="M64.5871 24.7814C62.8215 29.3639 63.085 34.7492 65.6035 38.9776C66.9907 41.3067 68.6207 43.437 71.67 44.6318C71.7923 44.8742 73.3 45.679 73.6332 45.7926C83.6148 49.1935 93.0919 42.9049 96.3802 33.4218C97.8333 29.2294 97.7957 24.5125 95.7516 20.536C93.7601 16.6617 89.5326 14.2152 85.418 13.3403C76.6711 11.4827 67.7812 16.4856 64.5871 24.7776V24.7814ZM84.7648 15.4725C88.4334 16.158 91.8496 18.3792 93.7037 21.6608C95.5897 25.001 95.1831 29.1972 94.0914 32.7136C92.9113 36.514 90.4624 39.9622 87.1402 42.138C83.2496 44.6867 78.6607 44.7208 74.3202 43.5544C73.9607 43.4578 73.5052 43.3215 72.5339 42.742C70.0607 41.4676 68.8052 40.3504 67.3182 38.0384C64.9259 34.3137 65.1856 29.4207 66.5917 25.4044C69.1628 18.0648 77.3657 14.0921 84.7648 15.4725Z" fill="black"/>
<path d="M70.5371 55.3306C69.9329 56.6504 69.2741 57.957 68.7208 59.2977C68.6568 59.451 68.9052 59.5628 68.9824 59.4189C69.6562 58.1369 70.1644 56.7546 70.7536 55.431C70.8082 55.306 70.5936 55.2075 70.5371 55.3306Z" fill="black"/>
<path d="M71.4182 56.4137C70.6992 57.6767 70.0893 59.0363 69.4757 60.3561C69.3966 60.5266 69.6188 60.6781 69.7279 60.5152C70.5373 59.3052 70.9608 57.8434 71.6685 56.5709C71.7608 56.4042 71.5142 56.249 71.4201 56.4137H71.4182Z" fill="black"/>
<path d="M72.0412 57.3435C71.5726 59.0098 70.5147 60.4035 69.9896 62.032C69.9425 62.1797 70.1684 62.2895 70.2399 62.1475C70.9909 60.6402 71.8154 59.042 72.2125 57.3965C72.2389 57.2848 72.0732 57.2317 72.0412 57.3435Z" fill="black"/>
<path d="M72.5943 58.8432C72.3797 60.3032 71.3972 61.3787 71.0188 62.7572C70.9812 62.8917 71.1807 62.9958 71.2466 62.8633C71.8395 61.6817 72.7486 60.2161 72.7016 58.8489C72.6997 58.7769 72.6037 58.7769 72.5943 58.8451V58.8432Z" fill="black"/>
<path d="M73.1834 60.2918C72.9218 61.6267 72.2423 62.7818 71.8433 64.0657C71.7849 64.255 72.0522 64.3251 72.1275 64.1547C72.6545 62.9371 73.2041 61.6495 73.3735 60.324C73.3867 60.2141 73.2022 60.1838 73.1815 60.2918H73.1834Z" fill="black"/>
<path d="M74.089 61.7555C73.6316 62.939 73.1008 64.1055 72.73 65.3211C72.666 65.5313 72.9766 65.6241 73.0518 65.4215C73.4904 64.2285 73.9346 63.0375 74.3769 61.8445C74.4447 61.6608 74.1586 61.5756 74.089 61.7555Z" fill="black"/>
<path d="M74.2564 64.1982C73.88 65.0333 73.4301 65.9687 73.3642 66.8966C73.351 67.0765 73.6127 67.1106 73.6673 66.9477C73.9684 66.0539 74.1962 65.1696 74.5783 64.3005C74.6667 64.0998 74.343 64.0051 74.2564 64.2001V64.1982Z" fill="black"/>
<path d="M75.1223 64.9197C74.8739 66.124 74.4654 67.317 74.3148 68.5384C74.2922 68.7164 74.5727 68.7561 74.6179 68.5895C74.9454 67.4211 75.1901 66.2036 75.4216 65.0125C75.4592 64.8156 75.1637 64.719 75.1223 64.9197Z" fill="black"/>
<path d="M75.7868 66.8815C75.5157 67.8283 75.2108 68.8659 75.1675 69.8544C75.16 70.0267 75.4103 70.0646 75.4611 69.9036C75.7642 68.9625 75.847 67.94 76.1124 66.9818C76.1708 66.7678 75.847 66.6675 75.7868 66.8815Z" fill="black"/>
<path d="M76.4662 68.3566C76.2234 69.2939 75.8865 70.2483 75.8376 71.2216C75.8282 71.409 76.1218 71.4639 76.1651 71.2765C76.374 70.3354 76.5754 69.398 76.8032 68.4607C76.8577 68.2411 76.5246 68.135 76.4681 68.3566H76.4662Z" fill="black"/>
<path d="M77.1967 69.773C77.1666 70.555 76.8428 71.3333 76.8635 72.1059C76.8673 72.2857 77.1082 72.3274 77.1703 72.157C77.4301 71.4469 77.5317 70.538 77.5505 69.7824C77.5562 69.5533 77.2042 69.5419 77.1967 69.7711V69.773Z" fill="black"/>
<path d="M77.8139 71.6817C77.8063 72.0604 77.7781 72.4448 77.7988 72.8235C77.812 73.0583 78.1451 73.0735 78.164 72.8349C78.1941 72.4581 78.1771 72.0718 78.179 71.693C78.179 71.4563 77.8195 71.445 77.8139 71.6817Z" fill="black"/>
<path d="M82.9732 47.3813C82.5308 47.4798 82.6984 48.1747 83.1388 48.0687C90.5172 46.2963 96.3673 40.1099 97.7188 32.5735C97.7545 32.3765 97.4816 32.2781 97.4157 32.4788C95.1005 39.5362 90.5172 45.6903 82.9732 47.3813Z" fill="black"/>
<path d="M97.1278 36.2584C95.4282 40.9942 91.0971 44.7719 86.9467 47.3131C86.5722 47.5423 86.894 48.1425 87.2723 47.9153C91.5639 45.3419 96.1698 41.4392 97.5852 36.4004C97.6699 36.0993 97.2314 35.9668 97.1278 36.2584Z" fill="black"/>
<path d="M63.2415 24.5902C63.202 24.8079 63.522 24.9196 63.5766 24.6943C64.4236 21.2858 66.6089 18.6178 69.3137 16.4837C72.4985 13.9709 76.0729 13.1112 79.9767 12.5091C80.4698 12.4333 80.2797 11.6873 79.7941 11.7554C72.5794 12.7666 64.6965 16.6163 63.2396 24.5883L63.2415 24.5902Z" fill="black"/>
<path d="M63.3769 20.9961C66.6822 15.9213 71.3163 13.0412 77.1739 11.7573C77.6482 11.6532 77.4694 10.9336 76.9969 11.0245C71.4462 12.0925 65.3477 15.3457 63.2 20.9166C63.1586 21.0245 63.3186 21.0889 63.3769 20.998V20.9961Z" fill="black"/>
<path d="M67.7854 5.39296C69.214 5.01613 70.5203 4.34202 71.8567 3.72281C73.946 2.75709 76.2348 2.31967 78.5124 2.11137C82.5818 1.73834 86.3576 3.09225 90.2068 4.18106C90.6473 4.30604 90.8543 3.63382 90.4157 3.49937C86.4781 2.29316 82.6834 1.21003 78.5312 1.46566C74.5408 1.71183 71.2017 3.41795 67.7101 5.19981C67.6047 5.25472 67.6706 5.42515 67.7854 5.39485V5.39296Z" fill="black"/>
<path d="M69.8332 3.10366C72.3686 2.6795 74.616 1.34073 77.1777 0.903313C80.4585 0.344705 84.5185 0.660934 87.5546 2.10195C87.9668 2.29699 88.3508 1.69294 87.9348 1.49222C85.3599 0.246239 82.0885 -0.0908195 79.2651 0.020902C75.7209 0.162921 73.0462 1.81602 69.7466 2.74766C69.5188 2.81205 69.6016 3.14342 69.8332 3.10366Z" fill="black"/>
<path d="M72.8051 89.1406C71.1807 88.8471 69.4998 89.08 67.8585 89.0819C65.7673 89.0819 63.6761 89.0894 61.585 89.0819C57.3122 89.0667 53.0376 88.9815 48.7649 88.9891C44.6484 88.9948 40.5319 88.9645 36.4154 88.9929C34.3732 89.008 32.3291 89.0478 30.2868 89.0535C29.1104 89.0572 27.8606 88.5441 26.7256 89.0232C26.6239 89.0667 26.6936 89.2315 26.7971 89.2012C28.1034 88.813 29.741 89.381 31.0943 89.3792C33.0029 89.3754 34.9096 89.3451 36.8182 89.3394C40.7992 89.3261 44.7802 89.328 48.7612 89.3375C52.7497 89.347 56.7363 89.4189 60.7248 89.4473C62.6823 89.4625 64.6417 89.4587 66.5993 89.4587C68.5869 89.4587 70.7402 89.1519 72.6997 89.5079C72.9406 89.5515 73.0498 89.1841 72.807 89.1387L72.8051 89.1406Z" fill="black"/>
<path d="M66.4865 89.8336C61.0242 89.8279 55.5675 89.6726 50.1052 89.7881C47.4644 89.8449 44.8255 89.8961 42.1847 89.9055C40.8181 89.9112 39.4516 89.9131 38.0832 89.9093C36.7939 89.9055 35.3464 90.0665 34.0797 89.809C34.0063 89.7938 33.9724 89.9017 34.0458 89.9226C35.0791 90.2066 36.1953 90.1555 37.2569 90.1877C38.6234 90.2274 39.9899 90.2464 41.3565 90.2558C44.1309 90.2748 46.9035 90.2369 49.6779 90.1801C55.2795 90.0627 60.8755 90.2218 66.4771 90.2255C66.7293 90.2255 66.7368 89.8317 66.4846 89.8317L66.4865 89.8336Z" fill="black"/>
<path d="M122.843 85.6696C121.375 85.6829 119.777 85.9309 118.328 85.7378C118.205 85.7207 118.179 85.9214 118.296 85.9498C119.465 86.2471 120.85 86.0388 122.051 86.0351C123.645 86.0313 125.239 86.0218 126.832 85.9953C130.135 85.9385 133.422 86.1297 136.719 86.2888C136.973 86.3002 136.981 85.9025 136.727 85.8911C133.563 85.7434 130.41 85.5598 127.242 85.6128C125.776 85.6374 124.311 85.6563 122.845 85.6696H122.843Z" fill="black"/>
<path d="M121.812 84.7986C121.705 84.7891 121.676 84.9671 121.784 84.9879C123.807 85.3837 126.12 85.0353 128.176 85.0182C130.485 84.9974 132.789 84.8402 135.099 84.8307C135.364 84.8307 135.372 84.4142 135.106 84.4161C132.938 84.435 130.771 84.5978 128.601 84.6319C126.374 84.666 124.027 84.9898 121.812 84.7986Z" fill="black"/>
<path d="M124.328 83.9957C124.219 84.0184 124.262 84.1831 124.372 84.1642C125.126 84.026 125.949 84.1699 126.713 84.1831C127.536 84.1964 128.356 84.2191 129.179 84.2286C130.86 84.2494 132.533 84.1604 134.208 84.0601C134.459 84.0449 134.47 83.6567 134.216 83.6662C132.399 83.7287 130.596 83.8726 128.776 83.8669C127.33 83.8631 125.753 83.7097 124.33 83.9976L124.328 83.9957Z" fill="black"/>
<path d="M110.432 53.2192C109.263 53.2685 108.105 53.4294 106.935 53.4483C105.862 53.4673 104.785 53.4559 103.738 53.7248C103.626 53.7532 103.641 53.9482 103.763 53.935C105.971 53.7097 108.207 53.793 110.424 53.6415C110.691 53.6226 110.705 53.206 110.432 53.2173V53.2192Z" fill="black"/>
<path d="M104.397 44.9519C105.02 43.0867 105.771 40.9185 105.792 38.9379C105.792 38.8848 105.709 38.8697 105.699 38.9227C105.315 40.9242 104.675 42.9125 104.037 44.8458C103.712 45.8305 103.277 46.7527 102.767 47.654C102.366 48.3603 101.865 49.0193 101.592 49.79C101.57 49.8525 101.592 49.9377 101.639 49.9831C101.647 49.9888 101.652 49.9964 101.66 50.0021C101.754 50.0892 101.959 50.0778 101.984 49.9225C101.987 49.9017 101.989 49.8809 101.993 49.8619C102.001 49.8127 101.987 49.7673 101.965 49.7275C102.014 49.3961 103.173 47.7354 103.292 47.5253C103.753 46.7053 104.097 45.8475 104.395 44.9557L104.397 44.9519Z" fill="black"/>
<path d="M103.435 49.6252C103.957 48.5837 104.57 47.6104 104.997 46.5216C105.583 45.0219 105.965 43.4464 106.215 41.8577C106.23 41.763 106.093 41.7157 106.068 41.8142C105.756 43.1188 105.376 44.4046 104.917 45.6657C104.433 46.995 103.71 48.1558 103.085 49.4112C102.968 49.646 103.315 49.8619 103.435 49.6252Z" fill="black"/>
<path d="M104.755 49.7218C105.201 49.362 105.359 48.5591 105.568 48.0497C106.091 46.7772 106.477 45.4214 106.588 44.0467C106.596 43.9501 106.438 43.9236 106.419 44.0202C106.076 45.91 105.395 47.8092 104.473 49.4945C104.369 49.6839 104.595 49.8505 104.755 49.7218Z" fill="black"/>
<path d="M106.183 49.4642C106.895 48.4625 107.333 46.9344 107.375 45.7149C107.38 45.5616 107.154 45.5616 107.141 45.7112C107.024 47.0518 106.279 48.0914 105.865 49.3241C105.797 49.5248 106.072 49.6214 106.183 49.4661V49.4642Z" fill="black"/>
<path d="M74.6669 42.9257C76.216 43.4238 77.8818 43.6756 79.5043 43.7476C80.9103 43.81 82.4274 43.8555 83.7902 43.4503C84.0443 43.3745 83.9464 42.9825 83.6866 43.0488C81.0778 43.7097 78.0888 43.3272 75.512 42.7193C74.153 42.3993 72.8825 41.8369 71.6647 41.159C70.6257 40.5815 69.5057 39.9168 68.8771 38.8716C68.8432 38.8148 68.7415 38.8489 68.766 38.917C69.5377 41.0719 72.7074 42.2971 74.6669 42.9276V42.9257Z" fill="black"/>
<path d="M75.6758 42.2403C77.5637 42.6871 79.4704 43.0394 81.4129 42.8027C81.6821 42.7705 81.5748 42.3596 81.3075 42.3917C79.4384 42.6152 77.607 42.2592 75.7868 41.8634C74.3526 41.5529 72.9503 41.1193 71.7569 40.2331C71.6704 40.1687 71.5631 40.3069 71.6402 40.3808C72.7545 41.4412 74.2133 41.8937 75.6777 42.2403H75.6758Z" fill="black"/>
<path d="M59.5036 50.7121C59.7313 50.7519 59.9308 50.4186 59.6824 50.305C59.0556 50.021 58.7431 48.6708 58.489 48.0744C57.8189 46.4989 56.9682 44.9935 56.4825 43.3461C56.4637 43.2836 56.3677 43.3082 56.3847 43.3707C56.827 45.1488 57.5667 46.7867 58.2048 48.4966C58.4231 49.0799 58.7827 50.5834 59.5054 50.7121H59.5036Z" fill="black"/>
<path d="M56.5559 45.5673C56.3582 47.2242 57.2485 49.4056 58.2292 50.714C58.3704 50.9034 58.6998 50.6572 58.5605 50.466C57.5572 49.1083 56.8213 47.2526 56.6726 45.5692C56.6669 45.4953 56.5672 45.4934 56.5577 45.5673H56.5559Z" fill="black"/>
<path d="M42.4181 50.7311C44.5469 50.6478 46.7341 50.6175 48.846 50.3296C48.9081 50.3221 48.8893 50.2312 48.8347 50.2255C46.7247 50.0248 44.5394 50.2596 42.4256 50.3334C42.1715 50.3429 42.164 50.7405 42.4181 50.7311Z" fill="black"/>
<path d="M42.9942 49.7786C44.5075 49.79 46.0189 49.6536 47.5342 49.646C47.6998 49.646 47.7036 49.3942 47.5379 49.3885C46.0265 49.3298 44.5113 49.3753 42.9998 49.4018C42.7589 49.4056 42.7514 49.7767 42.9942 49.7786Z" fill="black"/>
<path d="M47.4627 48.5686C47.5926 48.5629 47.5982 48.3717 47.4665 48.3641C46.3428 48.3092 45.2078 48.2278 44.0822 48.2467C43.8469 48.2505 43.8394 48.6084 44.0765 48.6141C45.2021 48.6368 46.339 48.6197 47.4627 48.5686Z" fill="black"/>
<path d="M5.81788 57.8491C7.74907 55.4347 9.80826 53.1113 10.7362 50.0797C10.7362 50.0778 10.74 50.0759 10.74 50.074L10.7795 49.9415C10.8586 49.6801 10.4482 49.5589 10.3748 49.8222C9.52404 52.8727 7.46109 55.2227 5.66918 57.7317C5.60707 57.8188 5.74824 57.9343 5.816 57.8491H5.81788Z" fill="black"/>
<path d="M6.40118 62.8993C7.36301 61.3465 8.61847 60.0115 9.67066 58.5213C10.689 57.0784 11.408 55.3666 12.0047 53.7097C12.0988 53.4503 11.696 53.3367 11.6 53.5904C10.9336 55.342 10.1789 57.0613 9.11727 58.6103C8.15544 60.0153 7.05244 61.2935 6.25436 62.8103C6.20354 62.9087 6.34283 62.9958 6.40118 62.9011V62.8993Z" fill="black"/>
<path d="M8.7936 61.5662C9.74602 60.43 10.4575 59.095 11.154 57.7904C11.9012 56.3891 12.6918 54.9784 13.2564 53.4881C13.3505 53.242 12.9741 53.1435 12.8743 53.3745C11.6678 56.1694 10.1827 58.8318 8.67878 61.4734C8.63926 61.5453 8.73714 61.6324 8.7936 61.5662Z" fill="black"/>
</g>
<defs>
<clipPath id="clip0_16_12942">
<rect width="173" height="91" fill="white" transform="translate(-26.3315)"/>
</clipPath>
</defs>
</svg>
